Merriweather-TextSemiWideItalic.ufo
<glyph name="exclam" format="2">
  <advance width="502.37908600444297"/>
  <unicode hex="0021"/>
  <outline>
    <contour>
      <point x="310.73825769596954" y="1745.456204379562" type="line"/>
      <point x="176.80077753094255" y="472.8072040622025" type="line"/>
      <point x="299.0741827991114" y="472.8072040622025" type="line"/>
      <point x="541.8405268168837" y="1745.456204379562" type="line"/>
    </contour>
    <contour>
      <point x="65.47405585528404" y="103.04435099968264" type="curve" smooth="yes"/>
      <point x="61.48532211996192" y="30.039273246588387"/>
      <point x="106.87123135512537" y="-19.19612821326563"/>
      <point x="166.39320850523643" y="-19.19612821326563" type="curve" smooth="yes"/>
      <point x="239.58267216756587" y="-19.19612821326563"/>
      <point x="304.7366708981276" y="26.86448746429705"/>
      <point x="309.8650428435417" y="120.01713741669312" type="curve" smooth="yes"/>
      <point x="314.4235956839099" y="185.4999206601079"/>
      <point x="281.24516026658193" y="245.29696921612185"/>
      <point x="204.37519834973025" y="245.29696921612185" type="curve" smooth="yes"/>
      <point x="134.2980006347191" y="245.29696921612185"/>
      <point x="70.29490637892734" y="190.0525230085687"/>
    </contour>
  </outline>
</glyph>
<glyph name="numbersign" format="2">
  <advance width="1349.8470326880358"/>
  <unicode hex="0023"/>
  <outline>
    <contour>
      <point x="337.30434782608694" y="413.0" type="line"/>
      <point x="273.30434782608694" y="0.0" type="line"/>
      <point x="382.91018724214535" y="0.0" type="line"/>
      <point x="447.91018724214535" y="413.0" type="line"/>
      <point x="840.2872104093939" y="413.0" type="line"/>
      <point x="777.2872104093939" y="0.0" type="line"/>
      <point x="886.8930498254523" y="0.0" type="line"/>
      <point x="949.8930498254523" y="413.0" type="line"/>
      <point x="1204.1973976515394" y="413.0" type="line"/>
      <point x="1225.349571564583" y="568.0652173913044" type="line"/>
      <point x="975.0452237384957" y="568.0652173913044" type="line"/>
      <point x="1039.4256585211044" y="954.9347826086956" type="line"/>
      <point x="1279.045223738496" y="954.9347826086956" type="line"/>
      <point x="1300.1973976515394" y="1108.0" type="line"/>
      <point x="1060.8930498254524" y="1108.0" type="line"/>
      <point x="1130.8930498254524" y="1539.0" type="line"/>
      <point x="1020.2872104093939" y="1539.0" type="line"/>
      <point x="950.2872104093939" y="1108.0" type="line"/>
      <point x="558.9101872421454" y="1108.0" type="line"/>
      <point x="626.9101872421454" y="1539.0" type="line"/>
      <point x="517.304347826087" y="1539.0" type="line"/>
      <point x="449.30434782608694" y="1108.0" type="line"/>
      <point x="204.0" y="1108.0" type="line"/>
      <point x="182.84782608695653" y="954.9347826086956" type="line"/>
      <point x="425.1521739130435" y="954.9347826086956" type="line"/>
      <point x="362.4021739130435" y="568.0652173913044" type="line"/>
      <point x="130.15217391304347" y="568.0652173913044" type="line"/>
      <point x="109.0" y="413.0" type="line"/>
    </contour>
    <contour>
      <point x="865.4393843224373" y="568.0652173913044" type="line"/>
      <point x="471.0080133291019" y="568.0652173913044" type="line"/>
      <point x="535.7580133291019" y="954.9347826086956" type="line"/>
      <point x="928.819819105046" y="954.9347826086956" type="line"/>
    </contour>
  </outline>
</glyph>
<glyph name="dollar" format="2">
  <advance width="1304.1887496033005"/>
  <unicode hex="0024"/>
  <outline>
    <contour>
      <point x="460.95882259600126" y="-235.2021580450651" type="line"/>
      <point x="600.7960171374167" y="-235.2021580450651" type="line"/>
      <point x="637.1394795303079" y="-20.264598540145986" type="line"/>
      <point x="966.6024278006981" y="2.346159949222469"/>
      <point x="1166.4507299270076" y="194.2384163757537"/>
      <point x="1157.9034433513173" y="426.47627737226276" type="curve" smooth="yes"/>
      <point x="1152.205252300857" y="608.7765788638528"/>
      <point x="1025.6340844176452" y="706.637892732466"/>
      <point x="789.3122024754047" y="836.0748175182482" type="curve"/>
      <point x="622.8393367185022" y="928.2707077118376"/>
      <point x="469.3095049190734" y="1004.9897651539194"/>
      <point x="469.3095049190734" y="1166.9466835925105" type="curve" smooth="yes"/>
      <point x="469.3095049190734" y="1325.6176610599812"/>
      <point x="620.280942557918" y="1414.0951285306253"/>
      <point x="781.5232465883845" y="1414.0951285306253" type="curve" smooth="yes"/>
      <point x="870.9642970485559" y="1414.2100920342748"/>
      <point x="969.1781180577594" y="1387.9580291970804"/>
      <point x="1010.5787051729611" y="1358.228181529673" type="curve"/>
      <point x="1037.1858140272927" y="1167.2845921929547" type="line"/>
      <point x="1170.5641066328149" y="1167.2845921929547" type="line"/>
      <point x="1214.3060933037132" y="1426.1818470326882" type="line"/>
      <point x="1162.099571564583" y="1453.9314503332275"/>
      <point x="1051.4991272611874" y="1488.9247064423992"/>
      <point x="893.7025547445255" y="1501.5283243414788" type="curve"/>
      <point x="924.7046969216123" y="1698.5125357029515" type="line"/>
      <point x="784.1750238019675" y="1698.5125357029517" type="line"/>
      <point x="753.6974769914312" y="1502.9626309108219" type="line"/>
      <point x="469.8149793716281" y="1485.7902253252935"/>
      <point x="250.60790225325295" y="1321.1502697556332"/>
      <point x="260.8646461440813" y="1079.0785464931766" type="curve" smooth="yes"/>
      <point x="269.9817518248176" y="862.2860203110123"/>
      <point x="455.39392256426527" y="765.2689622342115"/>
      <point x="645.0518882894319" y="657.3573468740084" type="curve"/>
      <point x="796.456918438591" y="573.1070295144398"/>
      <point x="943.0978260869565" y="496.39193906696283"/>
      <point x="943.0978260869565" y="335.247540463345" type="curve" smooth="yes"/>
      <point x="943.0978260869565" y="164.7956204379562"/>
      <point x="775.551967629324" y="68.43716280545858"/>
      <point x="593.959457315138" y="68.43716280545858" type="curve" smooth="yes"/>
      <point x="498.45644239923837" y="68.43716280545858"/>
      <point x="382.29585845763256" y="94.71501110758489"/>
      <point x="319.1544747699144" y="141.280863218026" type="curve"/>
      <point x="306.4031259917487" y="351.21715328467155" type="line"/>
      <point x="167.1718502062837" y="351.21715328467155" type="line"/>
      <point x="118.26983497302443" y="67.70556966042525" type="line"/>
      <point x="162.60195176134562" y="37.87710250714059"/>
      <point x="319.2685655347508" y="-7.01515391939067"/>
      <point x="496.83060933037126" y="-19.687083465566488" type="curve"/>
    </contour>
  </outline>
</glyph>
<glyph name="percent" format="2">
  <advance width="1908.4427959377974"/>
  <unicode hex="0025"/>
  <outline>
    <contour>
      <point x="485.7132656299588" y="723.8437797524595" type="curve" smooth="yes"/>
      <point x="732.9153443351317" y="723.8437797524595"/>
      <point x="907.6612186607427" y="933.8915423675023"/>
      <point x="907.6612186607427" y="1154.9599333544907" type="curve" smooth="yes"/>
      <point x="907.6612186607427" y="1324.4439066962868"/>
      <point x="818.4697715011108" y="1446.4673913043478"/>
      <point x="616.8233100602984" y="1446.4673913043478" type="curve" smooth="yes"/>
      <point x="374.84393843224376" y="1446.4673913043478"/>
      <point x="193.36067914947637" y="1243.8371152015234"/>
      <point x="193.36067914947637" y="1030.290622024754" type="curve" smooth="yes"/>
      <point x="193.36067914947637" y="853.3801174230404"/>
      <point x="299.7424627102507" y="723.8437797524595"/>
    </contour>
    <contour>
      <point x="508.7975245953665" y="803.9476356712155" type="curve" smooth="yes"/>
      <point x="413.24619168517927" y="803.9476356712155"/>
      <point x="361.3540145985401" y="891.5834655664869"/>
      <point x="361.3540145985401" y="1029.1204379562046" type="curve" smooth="yes"/>
      <point x="361.3540145985401" y="1182.3779752459536"/>
      <point x="447.24047921294823" y="1367.6619327197716"/>
      <point x="592.0602189781022" y="1367.6619327197716" type="curve" smooth="yes"/>
      <point x="685.0249127261186" y="1367.6619327197716"/>
      <point x="735.6145668041892" y="1286.9540622024756"/>
      <point x="735.6145668041892" y="1150.6264677880038" type="curve" smooth="yes"/>
      <point x="735.6145668041892" y="997.7821326562996"/>
      <point x="653.5863218026024" y="803.9476356712155"/>
    </contour>
    <contour>
      <point x="1344.5131704220883" y="1607.0666455093622" type="line"/>
      <point x="485.27332592827673" y="-85.40050777530944" type="line"/>
      <point x="602.5608536972389" y="-85.40050777530944" type="line"/>
      <point x="1461.9156616947" y="1607.1816090130117" type="line"/>
    </contour>
    <contour>
      <point x="1346.1934306569344" y="59.897016820057125" type="curve" smooth="yes"/>
      <point x="1595.6295620437957" y="59.897016820057125"/>
      <point x="1769.832989527134" y="269.3749603300539"/>
      <point x="1769.832989527134" y="491.58298952713426" type="curve" smooth="yes"/>
      <point x="1769.832989527134" y="662.4688987622976"/>
      <point x="1679.6994604887338" y="785.3697238971756"/>
      <point x="1477.3810695017457" y="785.3697238971756" type="curve" smooth="yes"/>
      <point x="1233.2373849571563" y="785.3697238971756"/>
      <point x="1051.588940019042" y="581.7471437638844"/>
      <point x="1051.588940019042" y="368.16827991113934" type="curve" smooth="yes"/>
      <point x="1051.588940019042" y="190.26547127895907"/>
      <point x="1158.8530625198346" y="59.897016820057125"/>
    </contour>
    <contour>
      <point x="1368.4455728340213" y="143.11226594731832" type="curve" smooth="yes"/>
      <point x="1274.4887337353223" y="143.11226594731832"/>
      <point x="1222.1238495715647" y="229.9728657569026"/>
      <point x="1222.1238495715647" y="367.26039352586486" type="curve" smooth="yes"/>
      <point x="1222.1238495715647" y="518.9558076801015"/>
      <point x="1309.3151380514119" y="703.145350682323"/>
      <point x="1452.163122818153" y="703.145350682323" type="curve" smooth="yes"/>
      <point x="1542.8485401459852" y="703.145350682323"/>
      <point x="1592.9654871469374" y="624.8640907648366"/>
      <point x="1592.9654871469374" y="487.88908283084737" type="curve" smooth="yes"/>
      <point x="1592.9654871469374" y="338.3486988257696"/>
      <point x="1513.119406537607" y="143.11226594731832"/>
    </contour>
  </outline>
</glyph>
<glyph name="ampersand" format="2">
  <advance width="1568.7958584576322"/>
  <unicode hex="0026"/>
  <outline>
    <contour>
      <point x="582.3083941605837" y="-17.6267058076801" type="curve" smooth="yes"/>
      <point x="716.7679308156142" y="-17.6267058076801"/>
      <point x="858.3907489685814" y="5.9489051094890515"/>
      <point x="970.2604728657569" y="60.33624246271025" type="curve"/>
      <point x="1051.6362265947319" y="4.400587115201524"/>
      <point x="1129.8533798794033" y="-18.370993335449064"/>
      <point x="1228.5960012694384" y="-18.370993335449064" type="curve" smooth="yes"/>
      <point x="1289.0763249761985" y="-18.370993335449064"/>
      <point x="1367.6578863852747" y="-9.169787369089176"/>
      <point x="1426.3698825769598" y="8.52784830212631" type="curve"/>
      <point x="1429.7340526816886" y="91.34687400825136" type="line"/>
      <point x="1381.888686131387" y="87.39527134243097"/>
      <point x="1320.3504443033958" y="96.54181212313551"/>
      <point x="1269.0244366867662" y="112.35290384005076" type="curve"/>
      <point x="1225.4919073310061" y="122.90963186290067"/>
      <point x="1185.6065534750874" y="144.04308156140905"/>
      <point x="1149.7153284671533" y="172.08259282767378" type="curve"/>
      <point x="1262.282608695652" y="267.70953665503015"/>
      <point x="1348.4953982862583" y="400.85242780069825"/>
      <point x="1348.8658362424628" y="568.0725166613773" type="curve" smooth="yes"/>
      <point x="1348.9716756585212" y="602.518644874643"/>
      <point x="1345.9702475404633" y="624.5633925737862"/>
      <point x="1343.0837829260552" y="640.5274516026658" type="curve"/>
      <point x="1360.1372580133288" y="638.4731037765788"/>
      <point x="1380.341796255157" y="637.4484290701365"/>
      <point x="1398.7557124722307" y="637.4484290701365" type="curve" smooth="yes"/>
      <point x="1440.5457791177405" y="637.4484290701365"/>
      <point x="1493.138606791495" y="645.2108060933036"/>
      <point x="1535.544668359251" y="665.6295620437957" type="curve"/>
      <point x="1534.3973341796254" y="798.1531259917487" type="line"/>
      <point x="1497.151618533799" y="777.7189781021898"/>
      <point x="1443.0910821961281" y="772.6148841637576"/>
      <point x="1379.6594731831165" y="772.6148841637576" type="curve" smooth="yes"/>
      <point x="1253.5876705807682" y="772.6148841637576"/>
      <point x="1208.0295144398601" y="794.7505553792447"/>
      <point x="1105.1239289114567" y="794.7505553792447" type="curve" smooth="yes"/>
      <point x="1054.5133291018724" y="794.7505553792447"/>
      <point x="1016.3617899079658" y="788.0960012694383"/>
      <point x="999.8371945414156" y="771.571405902888" type="curve"/>
      <point x="1000.6240875912407" y="642.0557759441447" type="line"/>
      <point x="1026.1978736908916" y="659.4693748016502"/>
      <point x="1061.1939066962868" y="660.1086956521739"/>
      <point x="1098.97238971755" y="660.1086956521739" type="curve" smooth="yes"/>
      <point x="1123.4471596318629" y="660.1086956521739"/>
      <point x="1140.8879720723578" y="659.4371628054586"/>
      <point x="1159.4917486512215" y="657.1223421136148" type="curve"/>
      <point x="1169.8405268168835" y="627.3522691209139"/>
      <point x="1179.3291812123132" y="579.9997619803238"/>
      <point x="1179.3291812123132" y="526.6614566804191" type="curve" smooth="yes"/>
      <point x="1179.3291812123132" y="402.80188828943193"/>
      <point x="1124.3404474769914" y="298.5480006347192"/>
      <point x="1064.5680736274198" y="237.37884798476676" type="curve"/>
      <point x="913.5580768010157" y="366.81093303713106"/>
      <point x="768.6094097112028" y="565.7976039352586"/>
      <point x="651.8371152015233" y="764.3491748651221" type="curve"/>
      <point x="868.2475404633449" y="866.5033322754682"/>
      <point x="1138.5694224055858" y="997.265391939067"/>
      <point x="1138.5694224055858" y="1228.4972231037766" type="curve" smooth="yes"/>
      <point x="1138.5694224055858" y="1373.8286258330686"/>
      <point x="1033.7559504919075" y="1506.630672802285"/>
      <point x="795.7699936528086" y="1506.630672802285" type="curve" smooth="yes"/>
      <point x="528.0579181212312" y="1506.630672802285"/>
      <point x="316.25531577277053" y="1343.4554109806409"/>
      <point x="316.25531577277053" y="1096.0199143129166" type="curve" smooth="yes"/>
      <point x="316.25531577277053" y="984.2868137099333"/>
      <point x="360.6253570295144" y="863.3433037131068"/>
      <point x="419.45001586797844" y="750.8175182481752" type="curve"/>
      <point x="228.87860996509045" y="669.054347826087"/>
      <point x="44.38360837829261" y="549.2626943827355"/>
      <point x="44.38360837829261" y="338.4641383687718" type="curve" smooth="yes"/>
      <point x="44.38360837829261" y="109.39662012059664"/>
      <point x="266.7103300539511" y="-17.6267058076801"/>
    </contour>
    <contour>
      <point x="631.0979054268487" y="74.57013646461442" type="curve" smooth="yes"/>
      <point x="389.8703586163122" y="74.57013646461442"/>
      <point x="262.9633449698508" y="199.94097112027927"/>
      <point x="262.9633449698508" y="358.1766105998096" type="curve" smooth="yes"/>
      <point x="262.9633449698508" y="496.74674706442397"/>
      <point x="355.5192002538877" y="591.560060298318"/>
      <point x="466.0904474769914" y="662.0873532211996" type="curve"/>
      <point x="591.1395588701998" y="458.04641383687726"/>
      <point x="696.6955728340212" y="291.3745636305934"/>
      <point x="886.6935893367186" y="124.1731989844494" type="curve"/>
      <point x="827.0293557600762" y="95.90153919390669"/>
      <point x="729.6778006981912" y="74.57013646461442"/>
    </contour>
    <contour>
      <point x="612.3148206918438" y="840.8183116470962" type="curve"/>
      <point x="573.2701523325927" y="917.4478736908918"/>
      <point x="532.9807997461124" y="1020.2614249444621"/>
      <point x="532.9807997461124" y="1130.3602824500163" type="curve" smooth="yes"/>
      <point x="532.9807997461124" y="1314.349650904475"/>
      <point x="645.3131545541099" y="1419.5346715328467"/>
      <point x="769.1310695017455" y="1419.5346715328467" type="curve" smooth="yes"/>
      <point x="884.6245636305936" y="1419.5346715328467"/>
      <point x="933.7520628371946" y="1324.5624404950809"/>
      <point x="933.7520628371946" y="1224.0091240875913" type="curve" smooth="yes"/>
      <point x="933.7520628371946" y="1033.0262615042845"/>
      <point x="757.0018248175181" y="925.5105522056491"/>
    </contour>
  </outline>
</glyph>
<glyph name="quotesingle" format="2">
  <advance width="470.9347826086956"/>
  <unicode hex="0027"/>
  <outline>
    <contour>
      <point x="291.5177721358299" y="1649.3394160583941" type="line"/>
      <point x="211.9437480165027" y="938.8138686131387" type="line"/>
      <point x="336.4763567121549" y="938.8138686131387" type="line"/>
      <point x="496.63344969850846" y="1649.3394160583941" type="line"/>
    </contour>
  </outline>
</glyph>
<glyph name="parenleft" format="2">
  <advance width="820.9170104728657"/>
  <unicode hex="0028"/>
  <outline>
    <contour>
      <point x="161.95921929546174" y="544.3640907648365" type="curve" smooth="yes"/>
      <point x="161.1723262456363" y="1.8974135195176118"/>
      <point x="455.803554427166" y="-265.54339892097744"/>
      <point x="530.7784036813711" y="-313.41018724214535" type="curve"/>
      <point x="627.8856712154872" y="-260.31085369723894" type="line"/>
      <point x="549.2924468422723" y="-198.59766740717234"/>
      <point x="352.1746271025072" y="85.81585211044111"/>
      <point x="358.9943668676611" y="551.7033481434465" type="curve" smooth="yes"/>
      <point x="364.2403205331641" y="1005.1499523960648"/>
      <point x="549.4224849254206" y="1401.247699143129"/>
      <point x="892.9137575372898" y="1641.977229450968" type="curve"/>
      <point x="813.5489527134243" y="1697.2689622342114" type="line"/>
      <point x="434.8943986036179" y="1490.294033640114"/>
      <point x="162.7461123452872" y="1071.3982862583305"/>
    </contour>
  </outline>
</glyph>
<glyph name="asterisk" format="2">
  <advance width="1237.7179466835923"/>
  <unicode hex="002A"/>
  <outline>
    <contour>
      <point x="193.72453189463664" y="973.953824182799" type="line"/>
      <point x="268.4011424944462" y="811.7000952078705" type="line"/>
      <point x="565.6666931132975" y="1012.0583148206919" type="line"/>
      <point x="656.3607584893684" y="1080.659790542685" type="line"/>
      <point x="629.1129006664552" y="978.4871469374802" type="line"/>
      <point x="556.9915899714377" y="643.9827832434147" type="line"/>
      <point x="746.9312916534433" y="643.3523484608061" type="line"/>
      <point x="740.9861155188829" y="975.664709615995" type="line"/>
      <point x="735.118454458902" y="1082.9046334496984" type="line"/>
      <point x="810.2365122183434" y="1012.2745160266583" type="line"/>
      <point x="1061.1800222151699" y="809.4955569660425" type="line"/>
      <point x="1171.1947794351001" y="969.523563947953" type="line"/>
      <point x="871.990320533164" y="1104.1766105998097" type="line"/>
      <point x="777.3497302443669" y="1142.3532211996194" type="line"/>
      <point x="884.478974928594" y="1180.2843541732782" type="line"/>
      <point x="1212.8346556648683" y="1314.3119644557285" type="line"/>
      <point x="1138.4203427483337" y="1475.4060615677563" type="line"/>
      <point x="840.4239130434783" y="1273.5400666455093" type="line"/>
      <point x="747.687480165027" y="1205.8796413836876" type="line"/>
      <point x="775.9791336083782" y="1310.336163122818" type="line"/>
      <point x="847.3627419866709" y="1645.664947635671" type="line"/>
      <point x="658.053475087274" y="1646.9258172008883" type="line"/>
      <point x="661.7108060933039" y="1313.1586004443034" type="line"/>
      <point x="670.437559504919" y="1204.5198349730244" type="line"/>
      <point x="592.9243890828309" y="1273.3767851475723" type="line"/>
      <point x="340.3397334179626" y="1476.4709615994923" type="line"/>
      <point x="230.1662170739448" y="1317.0081720088863" type="line"/>
      <point x="530.6007616629641" y="1180.6985877499205" type="line"/>
      <point x="629.5538717867344" y="1143.4070136464616" type="line"/>
      <point x="519.3046651856555" y="1105.8363218026025" type="line"/>
    </contour>
  </outline>
</glyph>
<glyph name="plus" format="2">
  <advance width="1282.8819422405588"/>
  <unicode hex="002B"/>
  <outline>
    <contour>
      <point x="546.1348778165662" y="397.08838463979686" type="line"/>
      <point x="517.9879403364013" y="166.62853062519832" type="line"/>
      <point x="670.3435417327833" y="166.62853062519832" type="line"/>
      <point x="699.0150745794986" y="397.08838463979686" type="line"/>
      <point x="714.7916534433513" y="572.3865439543002" type="line"/>
      <point x="856.901142494446" y="567.3938432243733" type="line"/>
      <point x="1125.694065376071" y="567.3938432243733" type="line"/>
      <point x="1138.1451920025393" y="703.5979054268488" type="line"/>
      <point x="875.2132656299588" y="703.5979054268488" type="line"/>
      <point x="730.935893367185" y="696.416375753729" type="line"/>
      <point x="761.0093621072675" y="872.0503014915901" type="line"/>
      <point x="786.2789590606156" y="1092.2099333544904" type="line"/>
      <point x="634.8006981910505" y="1092.2099333544904" type="line"/>
      <point x="606.9895271342432" y="872.0503014915901" type="line"/>
      <point x="590.118533798794" y="696.416375753729" type="line"/>
      <point x="420.19390669628694" y="703.5979054268488" type="line"/>
      <point x="181.676927959378" y="703.5979054268488" type="line"/>
      <point x="167.823865439543" y="567.3938432243733" type="line"/>
      <point x="401.3119644557284" y="567.3938432243733" type="line"/>
      <point x="574.0404633449698" y="572.3865439543002" type="line"/>
    </contour>
  </outline>
</glyph>
<glyph name="comma" format="2">
  <advance width="413.9481910504602"/>
  <unicode hex="002C"/>
  <outline>
    <contour>
      <point x="24.07354807997461" y="126.03395747381784" type="line"/>
      <point x="22.47008886067915" y="77.70303078387813" type="line"/>
      <point x="79.89582672167566" y="63.726356712154875"/>
      <point x="117.40011107584894" y="-19.032926055220564"/>
      <point x="117.40011107584894" y="-112.07013646461442" type="curve" smooth="yes"/>
      <point x="117.40011107584894" y="-243.21247223103776"/>
      <point x="32.97008886067915" y="-374.5847350047604"/>
      <point x="-73.42542050142812" y="-427.29284354173274" type="curve"/>
      <point x="-76.00436369406539" y="-445.59663598857503" type="line"/>
      <point x="-33.23786099650904" y="-498.59496985084104" type="line"/>
      <point x="152.51150428435415" y="-429.78054585845763"/>
      <point x="294.6873214852428" y="-236.66034592192958"/>
      <point x="294.6873214852428" y="-42.054982545223744" type="curve" smooth="yes"/>
      <point x="294.6873214852428" y="72.77110441129798"/>
      <point x="248.36496350364962" y="178.2453189463662"/>
      <point x="148.7817359568391" y="232.99809584258963" type="curve"/>
    </contour>
  </outline>
</glyph>
<glyph name="hyphen" format="2">
  <advance width="1093.2137416693113"/>
  <unicode hex="002D"/>
  <outline>
    <contour>
      <point x="953.8094255791812" y="697.1337670580768" type="line"/>
      <point x="180.70517296096477" y="697.1337670580768" type="line"/>
      <point x="162.2291336083783" y="562.3406854966677" type="line"/>
      <point x="935.3333862265946" y="562.3406854966677" type="line"/>
    </contour>
  </outline>
</glyph>
<glyph name="period" format="2">
  <advance width="450.1066328149793"/>
  <unicode hex="002E"/>
  <outline>
    <contour>
      <point x="58.18502062837195" y="102.56807362741986" type="curve" smooth="yes"/>
      <point x="53.36417010472864" y="29.880514122500795"/>
      <point x="99.42343700412569" y="-19.19612821326563"/>
      <point x="158.73373532212" y="-19.19612821326563" type="curve" smooth="yes"/>
      <point x="231.60568073627417" y="-19.19612821326563"/>
      <point x="296.49508092669" y="26.65280863218026"/>
      <point x="301.62345287210417" y="119.38210092034275" type="curve" smooth="yes"/>
      <point x="305.6121866074263" y="184.6002856236116"/>
      <point x="273.1623294192319" y="244.23857505553792"/>
      <point x="196.55696604252623" y="244.23857505553792" type="curve" smooth="yes"/>
      <point x="126.74436686766107" y="244.23857505553792"/>
      <point x="63.00587115201523" y="189.25872738813072"/>
    </contour>
  </outline>
</glyph>
<glyph name="slash" format="2">
  <advance width="796.9024912726119"/>
  <unicode hex="002F"/>
  <outline>
    <contour>
      <point x="-115.06696286893049" y="-354.0" type="line"/>
      <point x="36.235084100285626" y="-354.0" type="line"/>
      <point x="874.5398286258331" y="1560.1058394160584" type="line"/>
      <point x="723.2286575690257" y="1560.1058394160584" type="line"/>
    </contour>
  </outline>
</glyph>
<glyph name="one" format="2">
  <advance width="855.8327515074579"/>
  <unicode hex="0031"/>
  <anchor x="565.4242304030466" y="1538.0587115201524" name="top"/>
  <outline>
    <contour>
      <point x="61.30141225007934" y="77.65606156775627" type="line"/>
      <point x="50.30474452554744" y="0.0" type="line"/>
      <point x="726.1193271977149" y="0.0" type="line"/>
      <point x="735.336797841955" y="77.65606156775627" type="line"/>
      <point x="508.87749920660104" y="102.84663598857506" type="line"/>
      <point x="690.5937004125675" y="1479.2083465566488" type="line"/>
      <point x="578.6546334496986" y="1504.5775150745794" type="line"/>
      <point x="475.6294827039035" y="1426.7883211678834"/>
      <point x="299.1670104728658" y="1336.379958743256"/>
      <point x="155.28832116788323" y="1303.4894477943512" type="curve"/>
      <point x="170.69858774992062" y="1210.3329895271343" type="line"/>
      <point x="272.3386226594732" y="1227.9654078070455"/>
      <point x="372.16074262138994" y="1255.9289114566802"/>
      <point x="444.4343859092352" y="1279.3989209774675" type="curve"/>
      <point x="288.36298000634713" y="101.70699777848303" type="line"/>
    </contour>
  </outline>
</glyph>
<glyph name="two" format="2">
  <advance width="1145.0837829260556"/>
  <unicode hex="0032"/>
  <outline>
    <contour>
      <point x="-5.764995239606475" y="0.0" type="line"/>
      <point x="969.2767375436368" y="0.0" type="line"/>
      <point x="1057.4460488733735" y="321.66986670898126" type="line"/>
      <point x="960.4125674389084" y="350.3421929546176" type="line"/>
      <point x="857.0252300856872" y="170.17129482703905" type="line"/>
      <point x="179.57949857188197" y="116.10806093303714" type="line"/>
      <point x="491.15867978419556" y="301.66447159631866"/>
      <point x="1069.1653443351313" y="707.0620437956203"/>
      <point x="1069.0065852110438" y="1119.8136305934624" type="curve" smooth="yes"/>
      <point x="1068.9007457949854" y="1337.0230085687083"/>
      <point x="922.1149635036496" y="1496.8666296413837"/>
      <point x="642.491907331006" y="1496.8666296413837" type="curve" smooth="yes"/>
      <point x="415.55696604252614" y="1496.8666296413837"/>
      <point x="228.55791812123135" y="1374.4416851793083"/>
      <point x="156.5953665503015" y="1296.1251190098383" type="curve"/>
      <point x="204.46152015233258" y="1216.961837511901" type="line"/>
      <point x="278.14820691843863" y="1280.5045223738498"/>
      <point x="409.28966994604883" y="1363.9677086639163"/>
      <point x="558.7096159949222" y="1363.9677086639163" type="curve" smooth="yes"/>
      <point x="725.4303395747384" y="1363.9677086639163"/>
      <point x="840.6280545858458" y="1272.1685179308158"/>
      <point x="840.7338940019041" y="1075.0337987940334" type="curve" smooth="yes"/>
      <point x="840.9455728340208" y="743.7978419549349"/>
      <point x="337.91264677880037" y="286.1497143763884"/>
      <point x="-32.62250079339892" y="88.9365280863218" type="curve"/>
    </contour>
  </outline>
</glyph>
<glyph name="three" format="2">
  <advance width="1071.6872421453506"/>
  <unicode hex="0033"/>
  <outline>
    <contour>
      <point x="273.9230403046652" y="-11.507457949857189" type="curve" smooth="yes"/>
      <point x="676.5061885115836" y="-11.507457949857189"/>
      <point x="989.6286893049826" y="204.44660425261822"/>
      <point x="986.7795937797525" y="500.3305299904792" type="curve" smooth="yes"/>
      <point x="985.0701364646144" y="678.397016820057"/>
      <point x="860.5579181212313" y="805.2780069819105"/>
      <point x="583.2801491589971" y="790.6563789273247" type="curve"/>
      <point x="843.8234687400825" y="862.9805617264361"/>
      <point x="1009.1198032370676" y="1044.3567914947635"/>
      <point x="1007.4103459219294" y="1213.0991748651224" type="curve" smooth="yes"/>
      <point x="1005.1310695017453" y="1399.4195493494128"/>
      <point x="834.655744208188" y="1497.2546017137415"/>
      <point x="636.2766582037448" y="1497.2546017137415" type="curve" smooth="yes"/>
      <point x="419.15717232624564" y="1497.2546017137415"/>
      <point x="227.9291494763567" y="1399.0214217708665"/>
      <point x="147.4971437638845" y="1326.8508410028564" type="curve"/>
      <point x="187.28919390669628" y="1240.3498095842588" type="line"/>
      <point x="280.1581244049508" y="1304.5134084417646"/>
      <point x="407.7781656616947" y="1363.3515550618852"/>
      <point x="554.0541098064106" y="1363.3515550618852" type="curve" smooth="yes"/>
      <point x="695.1215487146939" y="1363.3515550618852"/>
      <point x="771.0452237384958" y="1290.3959060615675"/>
      <point x="771.0452237384958" y="1176.7036655030151" type="curve" smooth="yes"/>
      <point x="771.0452237384958" y="1010.6767692795937"/>
      <point x="598.0074579498571" y="853.1983497302444"/>
      <point x="280.2498413202158" y="790.5584735004761" type="curve"/>
      <point x="269.1643129165344" y="681.2877657886385" type="line"/>
      <point x="296.96747064423994" y="690.1804982545224"/>
      <point x="396.12781656616943" y="712.4193906696287"/>
      <point x="425.2315931450333" y="722.3135512535703" type="curve"/>
      <point x="664.9510472865758" y="735.8623452872104"/>
      <point x="738.2994287527769" y="624.7911774039987"/>
      <point x="740.578705172961" y="484.51729609647725" type="curve" smooth="yes"/>
      <point x="743.4278006981912" y="270.44509679466836"/>
      <point x="538.322913360838" y="104.30109489051095"/>
      <point x="236.6243256109172" y="104.30109489051095" type="curve" smooth="yes"/>
      <point x="145.96929546175815" y="104.30109489051095"/>
      <point x="80.75190415741035" y="114.36052046969218"/>
      <point x="31.79149476356713" y="124.22532529355759" type="curve"/>
      <point x="12.715883846397967" y="19.76824817518248" type="line"/>
      <point x="76.82783243414788" y="6.794827039035227"/>
      <point x="157.175341161536" y="-11.507457949857189"/>
    </contour>
  </outline>
</glyph>
<glyph name="four" format="2">
  <advance width="1218.7317518248176"/>
  <unicode hex="0034"/>
  <outline>
    <contour>
      <point x="670.9556490003174" y="0.0" type="line"/>
      <point x="884.4225642653126" y="0.0" type="line"/>
      <point x="933.120199936528" y="347.9278800380831" type="line"/>
      <point x="1152.7013646461442" y="347.40328467153284" type="line"/>
      <point x="1173.806013963821" y="501.4262932402412" type="line"/>
      <point x="953.1847826086957" y="488.81950174547757" type="line"/>
      <point x="1007.8341002856237" y="878.8850364963504" type="line"/>
      <point x="808.3432243732149" y="832.0620437956204" type="line"/>
      <point x="739.4727864170103" y="478.7440495080926" type="line"/>
      <point x="194.5286417010473" y="449.1062361155188" type="line"/>
      <point x="236.90693430656935" y="499.5543478260869"/>
      <point x="287.66240875912405" y="558.4865915582355"/>
      <point x="328.8621072675341" y="610.928594097112" type="curve"/>
      <point x="493.8380672802285" y="824.3242621390035"/>
      <point x="725.3704379562043" y="1184.3325928276738"/>
      <point x="845.0603776578865" y="1402.7680101555063" type="curve"/>
      <point x="682.201364646144" y="1493.9347826086957" type="line"/>
      <point x="635.4965090447477" y="1493.9347826086957" type="line"/>
      <point x="414.99317676927956" y="1072.6994604887338"/>
      <point x="200.05839416058393" y="675.1997778483022"/>
      <point x="32.500793398920976" y="438.8918597270708" type="curve"/>
      <point x="79.88709933354491" y="347.40328467153284" type="line"/>
      <point x="720.8315614090764" y="347.9278800380831" type="line"/>
    </contour>
  </outline>
</glyph>
<glyph name="five" format="2">
  <advance width="1117.3758330688672"/>
  <unicode hex="0035"/>
  <outline>
    <contour>
      <point x="61.64963503649634" y="93.06854966677244" type="curve"/>
      <point x="49.16732783243415" y="-0.300777530942558" type="line"/>
      <point x="88.00333227546813" y="-10.671294827039034"/>
      <point x="166.70564900031738" y="-20.6126626467788"/>
      <point x="258.9646144081244" y="-20.6126626467788" type="curve" smooth="yes"/>
      <point x="692.3042684861948" y="-20.6126626467788"/>
      <point x="1033.5420501428116" y="241.50745794985718"/>
      <point x="1033.5420501428116" y="564.2009679466836" type="curve" smooth="yes"/>
      <point x="1033.5420501428116" y="787.7998254522374"/>
      <point x="899.3488575055538" y="929.6278165661695"/>
      <point x="648.6078229133609" y="929.6278165661695" type="curve" smooth="yes"/>
      <point x="509.4966677245319" y="929.6278165661695"/>
      <point x="378.13463979688987" y="895.6993018089495"/>
      <point x="307.54696921612185" y="858.5469692161219" type="curve"/>
      <point x="454.1427324658838" y="1318.8064900031734" type="line"/>
      <point x="1062.731513805141" y="1318.2818946366233" type="line"/>
      <point x="1118.595763249762" y="1512.6304347826087" type="line"/>
      <point x="988.4310536337671" y="1512.6304347826087" type="line"/>
      <point x="957.0768803554428" y="1486.0" type="line"/>
      <point x="312.1705807680101" y="1486.0" type="line"/>
      <point x="144.8925737860996" y="781.1927165979055" type="line"/>
      <point x="195.99198667089814" y="744.5123770231671" type="line"/>
      <point x="274.50539511266265" y="777.4732624563632"/>
      <point x="396.54847667407176" y="811.2780069819105"/>
      <point x="510.17470644239927" y="811.2780069819105" type="curve" smooth="yes"/>
      <point x="707.4522373849572" y="811.2780069819105"/>
      <point x="797.4254205014282" y="707.66716915265"/>
      <point x="796.2757854649319" y="555.4973817835606" type="curve" smooth="yes"/>
      <point x="794.5513329101873" y="268.43383052999053"/>
      <point x="538.7989527134243" y="79.95096794668359"/>
      <point x="216.22730879086004" y="79.95096794668359" type="curve" smooth="yes"/>
      <point x="135.48016502697553" y="79.95096794668359"/>
      <point x="95.51626467788003" y="86.32767375436369"/>
    </contour>
  </outline>
</glyph>
<glyph name="six" format="2">
  <advance width="1196.9347032688033"/>
  <unicode hex="0036"/>
  <outline>
    <contour>
      <point x="551.824658838464" y="-22.57465883846398" type="curve" smooth="yes"/>
      <point x="889.4353379879403" y="-22.57465883846398"/>
      <point x="1128.4859568390987" y="266.0703744842907"/>
      <point x="1128.4859568390987" y="568.3895588702001" type="curve" smooth="yes"/>
      <point x="1128.4859568390987" y="787.2643605204696"/>
      <point x="1000.1641542367503" y="957.0992542050143"/>
      <point x="741.8719454141541" y="957.0992542050143" type="curve" smooth="yes"/>
      <point x="560.5480799746113" y="957.0992542050143"/>
      <point x="432.57799111393206" y="872.5678356077435"/>
      <point x="362.93946366232944" y="796.4272453189463" type="curve"/>
      <point x="450.7563471913678" y="1065.7826086956522"/>
      <point x="689.2902253252936" y="1351.1562202475404"/>
      <point x="1034.8701205966358" y="1448.7658679784197" type="curve"/>
      <point x="1001.3948746429705" y="1531.3195017454777" type="line"/>
      <point x="449.5671215487146" y="1409.094017772136"/>
      <point x="87.73198984449381" y="957.02118375119"/>
      <point x="87.73198984449381" y="491.9401777213583" type="curve" smooth="yes"/>
      <point x="87.73198984449381" y="222.56839098698825"/>
      <point x="243.27023167248495" y="-22.57465883846398"/>
    </contour>
    <contour>
      <point x="573.2635671215487" y="70.86559822278642" type="curve" smooth="yes"/>
      <point x="387.0107902253253" y="70.86559822278642"/>
      <point x="312.2084258965408" y="235.0134084417645"/>
      <point x="312.2084258965408" y="435.2580133291019" type="curve" smooth="yes"/>
      <point x="312.2084258965408" y="523.3031577277054"/>
      <point x="321.81680418914624" y="594.0875119009839"/>
      <point x="341.7514281180578" y="671.7416693113298" type="curve"/>
      <point x="390.2661853379879" y="735.9332751507459"/>
      <point x="490.7511900983816" y="837.3991589971437"/>
      <point x="665.9595366550302" y="837.3991589971437" type="curve" smooth="yes"/>
      <point x="803.8463979688988" y="837.3991589971437"/>
      <point x="898.5054744525547" y="734.8013329101873"/>
      <point x="898.5054744525547" y="535.0714059028879" type="curve" smooth="yes"/>
      <point x="898.5054744525547" y="325.5764836559822"/>
      <point x="793.0841002856235" y="70.86559822278642"/>
    </contour>
  </outline>
</glyph>
<glyph name="seven" format="2">
  <advance width="1144.2692795937796"/>
  <unicode hex="0037"/>
  <outline>
    <contour>
      <point x="1025.2538876547128" y="1326.3437004125674" type="line"/>
      <point x="302.8966201205966" y="0.45985401459854014" type="line"/>
      <point x="558.094969850841" y="-0.6304347826086957" type="line"/>
      <point x="1196.086004443034" y="1443.2653125991749" type="line"/>
      <point x="1164.7800698191052" y="1486.0" type="line"/>
      <point x="207.62615042843538" y="1486.0" type="line"/>
      <point x="138.2244525547445" y="1121.5752142177091" type="line"/>
      <point x="271.73302126309113" y="1097.6966835925105" type="line"/>
      <point x="367.81656616947" y="1326.9135195176134" type="line"/>
    </contour>
  </outline>
</glyph>
<glyph name="eight" format="2">
  <advance width="1217.3579815931448"/>
  <unicode hex="0038"/>
  <outline>
    <contour>
      <point x="536.0651380514121" y="-21.2534116153602" type="curve" smooth="yes"/>
      <point x="856.3680577594414" y="-21.2534116153602"/>
      <point x="1107.0341161536019" y="140.58306886702638"/>
      <point x="1107.4228022849886" y="391.5747381783561" type="curve" smooth="yes"/>
      <point x="1107.8114884163756" y="565.2049349412886"/>
      <point x="953.0050777530943" y="687.7213582989527"/>
      <point x="790.7073151380514" y="790.0812440495081" type="curve"/>
      <point x="1022.5061885115836" y="876.5138051412249"/>
      <point x="1170.9494604887338" y="1024.416375753729"/>
      <point x="1171.223183116471" y="1199.4899238337036" type="curve" smooth="yes"/>
      <point x="1171.4969057442083" y="1382.0165820374484"/>
      <point x="986.4621548714695" y="1502.5748175182482"/>
      <point x="750.0052364328786" y="1502.5748175182482" type="curve" smooth="yes"/>
      <point x="448.286496350365" y="1502.5748175182482"/>
      <point x="234.07418279911138" y="1345.042922881625"/>
      <point x="233.40264995239605" y="1131.0764043160902" type="curve" smooth="yes"/>
      <point x="233.0668835290384" y="976.7175499841321"/>
      <point x="359.2185814027292" y="850.4184385909236"/>
      <point x="478.29450967946684" y="763.215804506506" type="curve"/>
      <point x="228.25999682640435" y="691.216677245319"/>
      <point x="60.678197397651545" y="540.7072357981593"/>
      <point x="60.44827039035226" y="340.62821326562994" type="curve" smooth="yes"/>
      <point x="60.21834338305299" y="95.70358616312282"/>
      <point x="307.20128530625203" y="-21.2534116153602"/>
    </contour>
    <contour>
      <point x="707.7686448746431" y="846.0829101872422" type="curve"/>
      <point x="560.9411298000634" y="935.5067438908284"/>
      <point x="442.02951443986035" y="1031.503570295144"/>
      <point x="442.25944144715965" y="1166.9265312599175" type="curve" smooth="yes"/>
      <point x="442.6043319581085" y="1319.970723579816"/>
      <point x="571.6236908917805" y="1418.1675658521103"/>
      <point x="735.3655188828943" y="1418.1675658521103" type="curve" smooth="yes"/>
      <point x="867.0111869247859" y="1418.1675658521103"/>
      <point x="974.0199143129166" y="1343.0484766740717"/>
      <point x="973.7461916851793" y="1190.6317835607742" type="curve" smooth="yes"/>
      <point x="973.5253887654712" y="1038.8217232624565"/>
      <point x="875.6995398286259" y="913.1063947953031"/>
    </contour>
    <contour>
      <point x="560.8207711837513" y="71.17518248175183" type="curve" smooth="yes"/>
      <point x="388.61932719771494" y="71.17518248175183"/>
      <point x="275.6943827356395" y="192.90296731196446"/>
      <point x="275.8093462392892" y="351.360361789908" type="curve" smooth="yes"/>
      <point x="275.92430974293876" y="513.3017296096476"/>
      <point x="383.94366867661057" y="648.6658997143763"/>
      <point x="551.4708029197081" y="703.309266899397" type="curve"/>
      <point x="729.2115201523327" y="590.6518565534751"/>
      <point x="885.2633291018724" y="501.7552364328784"/>
      <point x="885.0334020945731" y="345.3006188511584" type="curve" smooth="yes"/>
      <point x="884.8034750872739" y="172.45660107902253"/>
      <point x="748.6201999365283" y="71.17518248175183"/>
    </contour>
  </outline>
</glyph>
<glyph name="nine" format="2">
  <advance width="1212.7397651539195"/>
  <unicode hex="0039"/>
  <outline>
    <contour>
      <point x="280.1235322119961" y="-63.47270707711837" type="line"/>
      <point x="851.6683592510313" y="63.469216121866076"/>
      <point x="1176.538876547128" y="511.99722310377655"/>
      <point x="1176.538876547128" y="987.6203586163123" type="curve" smooth="yes"/>
      <point x="1176.538876547128" y="1278.4722310377656"/>
      <point x="1010.1912884798477" y="1497.8693271977152"/>
      <point x="702.8736908917804" y="1496.729688987623" type="curve" smooth="yes"/>
      <point x="352.78784512853065" y="1495.590050777531"/>
      <point x="123.78070453824182" y="1211.233814662012"/>
      <point x="123.78070453824182" y="933.5867978419549" type="curve" smooth="yes"/>
      <point x="123.78070453824182" y="705.66074262139"/>
      <point x="260.17089812757854" y="513.8633767058076"/>
      <point x="523.3072040622025" y="513.8633767058076" type="curve" smooth="yes"/>
      <point x="707.4589812757856" y="513.8633767058076"/>
      <point x="832.2236591558236" y="595.8412408759124"/>
      <point x="902.3338622659473" y="672.7953030783877" type="curve"/>
      <point x="813.3395747381783" y="397.93541732783245"/>
      <point x="605.9151856553476" y="122.24722310377658"/>
      <point x="243.0927483338623" y="20.2112821326563" type="curve"/>
    </contour>
    <contour>
      <point x="589.4696921612187" y="635.8270390352269" type="curve" smooth="yes"/>
      <point x="444.49880990161853" y="635.8270390352269"/>
      <point x="352.0749761980324" y="764.2546017137416"/>
      <point x="352.0749761980324" y="968.2431767692796" type="curve" smooth="yes"/>
      <point x="352.0749761980324" y="1160.7535702951443"/>
      <point x="456.8799587432561" y="1402.6239289114567"/>
      <point x="683.6513011742304" y="1403.1987464297047" type="curve" smooth="yes"/>
      <point x="874.2711044112979" y="1403.773563947953"/>
      <point x="948.9198667089813" y="1242.2832434147888"/>
      <point x="948.4600126943827" y="1029.655109489051" type="curve" smooth="yes"/>
      <point x="948.3450491907332" y="951.6351158362424"/>
      <point x="937.7432561091717" y="871.2754681053633"/>
      <point x="919.8194224055856" y="801.3203744842907" type="curve"/>
      <point x="867.7416693113297" y="735.5023008568709"/>
      <point x="763.4116153602032" y="635.8270390352269"/>
    </contour>
  </outline>
</glyph>
<glyph name="less" format="2">
  <advance width="1261.616629641384"/>
  <unicode hex="003C"/>
  <outline>
    <contour>
      <point x="129.05791812123135" y="683.2818152967312" type="line"/>
      <point x="116.60679149476358" y="579.5760076166297" type="line"/>
      <point x="1037.1494763567125" y="86.89193906696286" type="line"/>
      <point x="1055.0969533481434" y="237.38940019041573" type="line"/>
      <point x="297.70580768010154" y="627.7016820057124" type="line"/>
      <point x="1157.6017137416695" y="1008.2037448429071" type="line"/>
      <point x="1178.2173913043475" y="1175.6656616947" type="line"/>
    </contour>
  </outline>
</glyph>
<glyph name="equal" format="2">
  <advance width="1179.0165026975565"/>
  <unicode hex="003D"/>
  <outline>
    <contour>
      <point x="215.70517296096477" y="952.5921929546175" type="line"/>
      <point x="200.0330053951126" y="816.2864170104729" type="line"/>
      <point x="1055.258806728023" y="816.2864170104729" type="line"/>
      <point x="1072.070612503967" y="952.5921929546175" type="line"/>
    </contour>
    <contour>
      <point x="146.32021580450652" y="443.6634401777214" type="line"/>
      <point x="131.1726436052047" y="307.3576642335766" type="line"/>
      <point x="986.1361472548397" y="307.3576642335766" type="line"/>
      <point x="1002.9479530307838" y="443.6634401777214" type="line"/>
    </contour>
  </outline>
</glyph>
<glyph name="question" format="2">
  <advance width="957.6919231989843"/>
  <unicode hex="003F"/>
  <outline>
    <contour>
      <point x="280.85869565217394" y="450.59838146620126" type="curve"/>
      <point x="293.4982545223739" y="448.59838146620126" type="line"/>
      <point x="406.1366232941923" y="482.7714217708664" type="line"/>
      <point x="393.1766899397017" y="521.1953348143446"/>
      <point x="381.3079181212314" y="595.1078229133608"/>
      <point x="382.9346239289115" y="663.0595049190732" type="curve" smooth="yes"/>
      <point x="385.1311488416376" y="764.6660583941606"/>
      <point x="485.44731831164705" y="821.4271659790543"/>
      <point x="583.4718343383053" y="876.2421453506823" type="curve" smooth="yes"/>
      <point x="691.6144874642971" y="933.852269120914"/>
      <point x="812.9784195493493" y="1004.6124246271025"/>
      <point x="888.2617423040306" y="1121.5416534433514" type="curve" smooth="yes"/>
      <point x="931.5753728974929" y="1184.403205331641"/>
      <point x="961.5190415741035" y="1266.911615360203"/>
      <point x="961.5190415741035" y="1365.8447318311646" type="curve" smooth="yes"/>
      <point x="961.5190415741035" y="1562.4170104728657"/>
      <point x="869.4112980006348" y="1773.8162488099017"/>
      <point x="507.58322754681046" y="1773.8162488099017" type="curve" smooth="yes"/>
      <point x="393.8594097112027" y="1773.8162488099017"/>
      <point x="283.4027292922882" y="1735.7211996191684"/>
      <point x="254.16621707394475" y="1709.1885909235161" type="curve"/>
      <point x="227.02070771183753" y="1582.179308156141" type="line"/>
      <point x="277.3403681370993" y="1607.012218343383"/>
      <point x="362.0999682640432" y="1621.1290066645508"/>
      <point x="438.9458108536973" y="1621.1290066645508" type="curve" smooth="yes"/>
      <point x="661.5274516026658" y="1621.1290066645508"/>
      <point x="786.219136781974" y="1493.9930180894955"/>
      <point x="784.3830529990479" y="1294.830609330371" type="curve" smooth="yes"/>
      <point x="783.2886385274516" y="1253.9706442399236"/>
      <point x="772.5764043160901" y="1201.459298635354"/>
      <point x="756.454538241828" y="1168.6074262139005" type="curve"/>
      <point x="701.7761028245002" y="1087.3024436686765"/>
      <point x="620.696366232942" y="1034.9889717549984"/>
      <point x="515.6042526182164" y="980.6642335766423" type="curve" smooth="yes"/>
      <point x="359.2325452237385" y="894.6829577911774"/>
      <point x="226.30958425896537" y="819.0911615360202"/>
      <point x="226.20374484290699" y="686.3347350047604" type="curve" smooth="yes"/>
      <point x="226.0979054268486" y="598.7408759124088"/>
      <point x="252.26840685496668" y="498.4871469374802"/>
    </contour>
    <contour>
      <point x="266.268724214535" y="103.04435099968264" type="curve" smooth="yes"/>
      <point x="261.44787369089175" y="30.039273246588387"/>
      <point x="307.66589971437634" y="-19.19612821326563"/>
      <point x="367.18787686448746" y="-19.19612821326563" type="curve" smooth="yes"/>
      <point x="440.37734052681685" y="-19.19612821326563"/>
      <point x="505.53133925737865" y="26.86448746429705"/>
      <point x="510.6597112027928" y="120.01713741669312" type="curve" smooth="yes"/>
      <point x="514.6484449381148" y="185.4999206601079"/>
      <point x="482.039828625833" y="245.29696921612185"/>
      <point x="405.16986670898126" y="245.29696921612185" type="curve" smooth="yes"/>
      <point x="335.09266899397016" y="245.29696921612185"/>
      <point x="271.08957473817827" y="190.0525230085687"/>
    </contour>
  </outline>
</glyph>
<glyph name="at" format="2">
  <advance width="2000.5480006347193"/>
  <unicode hex="0040"/>
  <outline>
    <contour>
      <point x="96.83989209774674" y="330.24420818787684" type="curve" smooth="yes"/>
      <point x="96.83989209774674" y="-173.59314503332274"/>
      <point x="427.35004760393525" y="-500.0"/>
      <point x="932.1766105998097" y="-500.0" type="curve" smooth="yes"/>
      <point x="1125.4432719771505" y="-500.0"/>
      <point x="1287.1668517930818" y="-453.2564265312599"/>
      <point x="1385.2530942557917" y="-381.2992700729927" type="curve"/>
      <point x="1359.4606474135198" y="-313.8175182481752" type="line"/>
      <point x="1287.1431291653446" y="-355.1624880990162"/>
      <point x="1134.9186766105997" y="-406.0054744525547"/>
      <point x="951.2131069501746" y="-405.9525547445255" type="curve" smooth="yes"/>
      <point x="541.9036020311013" y="-405.84671532846716"/>
      <point x="249.9226436052047" y="-119.3280704538242"/>
      <point x="249.9226436052047" y="361.6167883211679" type="curve" smooth="yes"/>
      <point x="249.9226436052047" y="889.4233576642337"/>
      <point x="613.8909076483656" y="1402.4671532846714"/>
      <point x="1169.7533322754682" y="1402.4671532846714" type="curve" smooth="yes"/>
      <point x="1504.0026182164395" y="1402.4671532846714"/>
      <point x="1798.268724214535" y="1240.8229927007299"/>
      <point x="1798.268724214535" y="815.9598540145986" type="curve" smooth="yes"/>
      <point x="1798.268724214535" y="450.72508727388134"/>
      <point x="1587.3725007933988" y="94.04506505871151"/>
      <point x="1428.8579815931453" y="94.04506505871151" type="curve" smooth="yes"/>
      <point x="1399.5195176134562" y="94.04506505871151"/>
      <point x="1388.9101872421456" y="127.01959695334814"/>
      <point x="1388.3403681370996" y="165.66090130117422" type="curve" smooth="yes"/>
      <point x="1386.0610917169156" y="206.8341796255157"/>
      <point x="1391.7858616312285" y="290.4374008251349"/>
      <point x="1402.4500952078706" y="389.3557600761663" type="curve" smooth="yes"/>
      <point x="1424.6667724531897" y="582.3001428118058"/>
      <point x="1478.1399555696605" y="868.9102665820375"/>
      <point x="1518.2991907331007" y="1015.2442081878768" type="curve"/>
      <point x="1354.6053633767058" y="982.9581878768645" type="line"/>
      <point x="1291.2768168835291" y="1019.5713265629959"/>
      <point x="1184.7874484290699" y="1037.8243414788956"/>
      <point x="1121.60401459854" y="1037.8243414788956" type="curve" smooth="yes"/>
      <point x="739.9857981593146" y="1037.8243414788956"/>
      <point x="543.3613138686133" y="692.4442240558553"/>
      <point x="542.2216756585212" y="399.1199619168518" type="curve" smooth="yes"/>
      <point x="540.8197397651539" y="115.32251666137734"/>
      <point x="702.7102507140589" y="-36.66050460171375"/>
      <point x="850.4665185655349" y="-36.66050460171375" type="curve" smooth="yes"/>
      <point x="1015.8740875912409" y="-36.66050460171375"/>
      <point x="1155.8652015233258" y="205.23508410028563"/>
      <point x="1253.8762297683277" y="435.0311805775944" type="curve"/>
      <point x="1224.9230403046654" y="322.286496350365"/>
      <point x="1215.4089178038716" y="210.69676293240238"/>
      <point x="1215.4089178038716" y="161.9193906696287" type="curve" smooth="yes"/>
      <point x="1215.4089178038716" y="56.82021580450651"/>
      <point x="1234.6246429704854" y="-28.11472548397334"/>
      <point x="1328.9572357981594" y="-28.11472548397334" type="curve" smooth="yes"/>
      <point x="1606.5725960012694" y="-28.11472548397334"/>
      <point x="1935.683513170422" y="322.9694541415423"/>
      <point x="1935.683513170422" y="862.1933513170422" type="curve" smooth="yes"/>
      <point x="1935.683513170422" y="1288.9323230720406"/>
      <point x="1613.0864804823866" y="1499.7372262773722"/>
      <point x="1235.5526023484613" y="1499.7372262773722" type="curve" smooth="yes"/>
      <point x="625.3150587115204" y="1499.7372262773722"/>
      <point x="96.83989209774674" y="1021.2072357981594"/>
    </contour>
    <contour>
      <point x="735.6215487146937" y="414.7899873056173" type="curve" smooth="yes"/>
      <point x="735.674468422723" y="665.2384163757537"/>
      <point x="840.5672008886067" y="933.4242304030466"/>
      <point x="1104.1625674389081" y="933.4242304030466" type="curve" smooth="yes"/>
      <point x="1166.5222151697874" y="933.4242304030466"/>
      <point x="1266.0046810536337" y="902.0126150428435"/>
      <point x="1307.9489844493814" y="849.5091240875912" type="curve"/>
      <point x="1232.614408124405" y="525.9174865122184"/>
      <point x="1029.580529990479" y="113.54728657569026"/>
      <point x="895.7322278641701" y="113.54728657569026" type="curve" smooth="yes"/>
      <point x="798.7656299587431" y="113.54728657569026"/>
      <point x="735.674468422723" y="243.618533798794"/>
    </contour>
  </outline>
</glyph>
<glyph name="A" format="2">
  <advance width="1412.3609965090445"/>
  <unicode hex="0041"/>
  <anchor x="605.8871786734371" y="0.0" name="bottom"/>
  <anchor x="1144.4438273563946" y="0.0" name="ogonek"/>
  <anchor x="838.283322754681" y="1486.0" name="top"/>
  <outline>
    <contour>
      <point x="-143.4920660107902" y="0.0" type="line"/>
      <point x="363.0562519834973" y="0.0" type="line"/>
      <point x="370.0848936845446" y="78.64598540145984" type="line"/>
      <point x="170.27292922881622" y="104.10028562361155" type="line"/>
      <point x="729.0883052999047" y="1218.16074262139" type="line"/>
      <point x="829.6187718184703" y="1430.0125357029515" type="line"/>
      <point x="774.345049190733" y="1429.5072199301808" type="line"/>
      <point x="803.333465566487" y="1199.3218819422407" type="line"/>
      <point x="1008.5454617581721" y="102.96064741351951" type="line"/>
      <point x="822.0550618851158" y="78.75182481751824" type="line"/>
      <point x="816.7553951126625" y="0.0" type="line"/>
      <point x="1405.1127419866705" y="0.0" type="line"/>
      <point x="1410.4242304030467" y="78.75182481751824" type="line"/>
      <point x="1241.5281656616949" y="105.76451920025389" type="line"/>
      <point x="956.1279752459535" y="1495.4782608695652" type="line"/>
      <point x="747.5738654395429" y="1495.4873849571566" type="line"/>
      <point x="12.498254522373848" y="103.1194065376071" type="line"/>
      <point x="-134.9903205331641" y="78.64598540145984" type="line"/>
    </contour>
    <contour>
      <point x="290.07791177404" y="443.34750872738806" type="line"/>
      <point x="1013.7433354490637" y="443.34750872738806" type="line"/>
      <point x="1002.9167724531897" y="548.6690733100602" type="line"/>
      <point x="338.25269755633127" y="548.6690733100602" type="line"/>
    </contour>
  </outline>
</glyph>
<glyph name="B" format="2">
  <advance width="1357.827197715011"/>
  <unicode hex="0042"/>
  <anchor x="652.2323072040622" y="0.0" name="bottom"/>
  <anchor x="795.4257378609965" y="1486.0" name="top"/>
  <outline>
    <contour>
      <point x="186.09576324976197" y="1486.0" type="line"/>
      <point x="176.41058394160584" y="1406.5671215487148" type="line"/>
      <point x="321.34298635353855" y="1382.9440653760712" type="line"/>
      <point x="148.97976832751507" y="105.3972548397334" type="line"/>
      <point x="-2.8656775626785134" y="79.5387178673437" type="line"/>
      <point x="-12.550856870834656" y="0.0" type="line"/>
      <point x="243.20937797524596" y="0.0" type="line" smooth="yes"/>
      <point x="331.35536337670584" y="0.0"/>
      <point x="458.83417962551573" y="-15.891304347826084"/>
      <point x="571.2345287210409" y="-15.891304347826084" type="curve" smooth="yes"/>
      <point x="977.3151380514122" y="-15.891304347826084"/>
      <point x="1284.3091875595048" y="124.5283243414789"/>
      <point x="1284.3091875595048" y="463.59052681688354" type="curve" smooth="yes"/>
      <point x="1284.3091875595048" y="649.9447794351"/>
      <point x="1131.9097112027928" y="771.0106315455412"/>
      <point x="925.5219771501112" y="780.6505077753094" type="curve"/>
      <point x="1161.5649000317362" y="838.6724055855285"/>
      <point x="1283.499920660108" y="970.6943827356396"/>
      <point x="1283.499920660108" y="1180.6833544906378" type="curve" smooth="yes"/>
      <point x="1283.499920660108" y="1356.117819739765"/>
      <point x="1146.7262773722628" y="1500.860361789908"/>
      <point x="795.3872580133292" y="1500.860361789908" type="curve" smooth="yes"/>
      <point x="671.7609489051093" y="1500.860361789908"/>
      <point x="569.263646461441" y="1487.6642335766423"/>
      <point x="462.79696921612197" y="1486.0" type="curve" smooth="yes"/>
    </contour>
    <contour>
      <point x="361.2744366867662" y="35.864566804189145" type="line"/>
      <point x="460.0496667724532" y="768.93343383053" type="line"/>
      <point x="407.84584258965407" y="711.0450650587117" type="line"/>
      <point x="475.66843859092353" y="714.4391463027611"/>
      <point x="551.7411932719772" y="716.5399873056173"/>
      <point x="704.4558870199938" y="716.5399873056173" type="curve" smooth="yes"/>
      <point x="925.9790542684862" y="716.5399873056173"/>
      <point x="1050.608140272929" y="628.606236115519"/>
      <point x="1050.608140272929" y="452.18962234211364" type="curve" smooth="yes"/>
      <point x="1050.608140272929" y="190.56180577594415"/>
      <point x="858.5787845128531" y="81.40836242462711"/>
      <point x="589.0348302126308" y="81.40836242462711" type="curve" smooth="yes"/>
      <point x="517.6701047286574" y="81.40836242462711"/>
      <point x="383.37488099016184" y="94.25864804823867"/>
      <point x="344.9459695334815" y="115.51198032370677" type="curve"/>
    </contour>
    <contour>
      <point x="459.10869565217394" y="762.8706759758805" type="line"/>
      <point x="554.630752142177" y="1463.6523325928279" type="line"/>
      <point x="504.64907965725166" y="1377.025150745795" type="line"/>
      <point x="560.0995715645826" y="1396.9757219930182"/>
      <point x="687.6407489685814" y="1404.962630910822"/>
      <point x="742.6909711202793" y="1404.962630910822" type="curve" smooth="yes"/>
      <point x="964.12027927642" y="1404.962630910822"/>
      <point x="1066.1674865122184" y="1314.425261821644"/>
      <point x="1066.1674865122184" y="1164.621548714694" type="curve" smooth="yes"/>
      <point x="1066.1674865122184" y="922.029990479213"/>
      <point x="898.2461123452872" y="820.2916534433513"/>
      <point x="691.0850523643287" y="820.2916534433513" type="curve" smooth="yes"/>
      <point x="583.5081720088862" y="820.2916534433513"/>
      <point x="494.71144081244057" y="818.6068708346556"/>
      <point x="420.1597112027928" y="821.8614725483974" type="curve"/>
    </contour>
  </outline>
</glyph>
<glyph name="C" format="2">
  <advance width="1355.423675023802"/>
  <unicode hex="0043"/>
  <anchor x="675.4596159949224" y="0.0" name="bottom"/>
  <anchor x="861.4892097746747" y="1486.0" name="top"/>
  <outline>
    <contour>
      <point x="700.3047445255476" y="-17.06021897810219" type="curve" smooth="yes"/>
      <point x="942.361234528721" y="-17.06021897810219"/>
      <point x="1095.8171215487148" y="47.37932402411932"/>
      <point x="1191.2933989209773" y="86.58735322119963" type="curve"/>
      <point x="1233.4817518248174" y="411.95263408441764" type="line"/>
      <point x="1105.6511424944463" y="411.95263408441764" type="line"/>
      <point x="1085.095049190733" y="339.0069819105046"/>
      <point x="1057.7907807045383" y="242.63305299904795"/>
      <point x="1033.0565693430656" y="181.87107267534114" type="curve"/>
      <point x="972.8398127578546" y="115.94787369089178"/>
      <point x="828.1889082830847" y="88.58005395112663"/>
      <point x="729.1508251348779" y="88.58005395112663" type="curve" smooth="yes"/>
      <point x="443.69858774992065" y="88.58005395112663"/>
      <point x="326.15312599174865" y="343.0119803237068"/>
      <point x="326.15312599174865" y="641.0262615042843" type="curve" smooth="yes"/>
      <point x="326.15312599174865" y="1026.2228657569024"/>
      <point x="516.7653125991749" y="1406.2610282450016"/>
      <point x="890.7085052364329" y="1406.2610282450016" type="curve" smooth="yes"/>
      <point x="1023.3793240241193" y="1406.2610282450016"/>
      <point x="1086.0147572199305" y="1382.3765471278957"/>
      <point x="1130.3777372262775" y="1360.5427642018406" type="curve"/>
      <point x="1150.347429387496" y="1075.1442399238335" type="line"/>
      <point x="1286.7141383687717" y="1075.1442399238335" type="line"/>
      <point x="1349.382973659156" y="1444.5217391304348" type="line"/>
      <point x="1273.4657251666135" y="1453.2056490003174"/>
      <point x="1119.3191050460173" y="1502.7362741986672"/>
      <point x="915.5403840050776" y="1502.7362741986672" type="curve" smooth="yes"/>
      <point x="445.80220564900026" y="1502.7362741986672"/>
      <point x="88.1443192637258" y="1156.255633132339"/>
      <point x="88.02935576007617" y="621.5614090764836" type="curve" smooth="yes"/>
      <point x="87.91439225642654" y="293.8364804823865"/>
      <point x="255.5452237384957" y="-17.06021897810219"/>
    </contour>
  </outline>
</glyph>
<glyph name="D" format="2">
  <advance width="1505.044033640114"/>
  <unicode hex="0044"/>
  <anchor x="353.57013622659474" y="748.0" name="bar"/>
  <anchor x="579.0303078387813" y="0.0" name="bottom"/>
  <anchor x="782.6699460488734" y="1484.6304347826087" name="top"/>
  <outline>
    <contour>
      <point x="186.09576324976197" y="1486.0" type="line"/>
      <point x="176.41058394160584" y="1406.5671215487148" type="line"/>
      <point x="321.34298635353855" y="1382.9440653760712" type="line"/>
      <point x="148.97976832751507" y="105.3972548397334" type="line"/>
      <point x="-2.8656775626785134" y="79.5387178673437" type="line"/>
      <point x="-12.550856870834656" y="0.0" type="line"/>
      <point x="261.0644239923834" y="0.0" type="line" smooth="yes"/>
      <point x="411.2438114884164" y="0.0"/>
      <point x="483.8642494446207" y="-16.37043795620438"/>
      <point x="631.356315455411" y="-16.37043795620438" type="curve" smooth="yes"/>
      <point x="1165.375595049191" y="-16.37043795620438"/>
      <point x="1471.410107902253" y="377.2470644239924"/>
      <point x="1467.4213741669312" y="893.5806886702633" type="curve" smooth="yes"/>
      <point x="1464.572278641701" y="1250.0716439225644"/>
      <point x="1275.9438273563946" y="1502.6833544906378"/>
      <point x="817.4343065693431" y="1502.1587591240875" type="curve" smooth="yes"/>
      <point x="710.5392732465883" y="1501.8964614408123"/>
      <point x="603.0449857188195" y="1487.3695652173913"/>
      <point x="488.42383370358624" y="1486.0" type="curve"/>
    </contour>
    <contour>
      <point x="362.24476356712154" y="41.44224055855284" type="line"/>
      <point x="551.312440495081" y="1445.3598857505553" type="line"/>
      <point x="515.6733576642335" y="1377.713424309743" type="line"/>
      <point x="568.1186924785782" y="1389.7876071088544"/>
      <point x="682.7019200253887" y="1406.9084417645192"/>
      <point x="780.0843383052999" y="1406.9084417645192" type="curve" smooth="yes"/>
      <point x="1096.5631545541098" y="1406.9084417645192"/>
      <point x="1232.6812916534432" y="1244.6839892097746"/>
      <point x="1234.9605680736274" y="881.1500317359569" type="curve" smooth="yes"/>
      <point x="1237.2398444938115" y="500.7401618533799"/>
      <point x="1049.7970485560143" y="79.96659790542685"/>
      <point x="628.5045223738497" y="79.96659790542685" type="curve" smooth="yes"/>
      <point x="536.7382576959697" y="79.96659790542685"/>
      <point x="401.6805775944145" y="98.59274833386229"/>
      <point x="328.8099016185338" y="119.56862900666455" type="curve"/>
    </contour>
  </outline>
</glyph>
<glyph name="E" format="2">
  <advance width="1302.0700571247226"/>
  <unicode hex="0045"/>
  <anchor x="627.1301967629323" y="0.0" name="bottom"/>
  <anchor x="959.3886067914947" y="0.0" name="ogonek"/>
  <anchor x="757.2234211361473" y="1486.0" name="top"/>
  <anchor x="160.74412884798474" y="1486.0" name="topleft"/>
  <outline>
    <contour>
      <point x="-12.550856870834656" y="0.0" type="line"/>
      <point x="1151.469216121866" y="0.0" type="line"/>
      <point x="1231.6305934623929" y="366.5161853379879" type="line"/>
      <point x="1117.4804030466519" y="388.1934306569343" type="line"/>
      <point x="997.9856394795303" y="129.44485877499207" type="line"/>
      <point x="370.3601237702317" y="103.62035861631227" type="line"/>
      <point x="453.40312599174865" y="716.9673119644558" type="line"/>
      <point x="965.0971913678197" y="697.3649635036496" type="line"/>
      <point x="978.4725483973342" y="847.5934623928912" type="line"/>
      <point x="468.03165661694703" y="826.8637734052681" type="line"/>
      <point x="544.8652808632181" y="1396.8367978419549" type="line"/>
      <point x="1052.7312757854647" y="1378.6299587432559" type="line"/>
      <point x="1102.8248175182484" y="1157.3119644557287" type="line"/>
      <point x="1215.964217708664" y="1157.3119644557287" type="line"/>
      <point x="1226.379800063472" y="1486.0" type="line"/>
      <point x="186.09576324976197" y="1486.0" type="line"/>
      <point x="176.41058394160584" y="1406.5671215487148" type="line"/>
      <point x="321.34298635353855" y="1382.9440653760712" type="line"/>
      <point x="148.97976832751507" y="105.3972548397334" type="line"/>
      <point x="-2.8656775626785134" y="79.5387178673437" type="line"/>
    </contour>
  </outline>
</glyph>
<glyph name="F" format="2">
  <advance width="1233.6383687718183"/>
  <unicode hex="0046"/>
  <anchor x="768.2918914630277" y="1486.0" name="top"/>
  <outline>
    <contour>
      <point x="-12.550856870834657" y="0.0" type="line"/>
      <point x="646.4785782291335" y="0.0" type="line"/>
      <point x="654.7541256743891" y="79.59163757537289" type="line"/>
      <point x="370.53030783878125" y="102.35964773087909" type="line"/>
      <point x="452.73119644557283" y="710.9344652491272" type="line"/>
      <point x="985.8922564265313" y="687.2993494128849" type="line"/>
      <point x="1003.7240558552841" y="835.8291018724215" type="line"/>
      <point x="467.6220247540463" y="821.3231513805142" type="line"/>
      <point x="544.865280863218" y="1395.852348460806" type="line"/>
      <point x="1076.868851158362" y="1376.2357188194223" type="line"/>
      <point x="1108.1414630276106" y="1159.3379879403367" type="line"/>
      <point x="1235.850761662964" y="1159.3379879403367" type="line"/>
      <point x="1258.6214693748016" y="1486.0" type="line"/>
      <point x="186.09576324976197" y="1486.0" type="line"/>
      <point x="176.4105839416058" y="1406.5671215487148" type="line"/>
      <point x="321.34298635353855" y="1382.9440653760712" type="line"/>
      <point x="148.9797683275151" y="105.3972548397334" type="line"/>
      <point x="-2.865677562678514" y="79.5387178673437" type="line"/>
    </contour>
  </outline>
</glyph>
<glyph name="G" format="2">
  <advance width="1465.154395430022"/>
  <unicode hex="0047"/>
  <anchor x="991.4738083148208" y="390.1621707394478" name="bar"/>
  <anchor x="702.7048556013964" y="0.0" name="bottom"/>
  <anchor x="928.5771977150112" y="1486.0" name="top"/>
  <outline>
    <contour>
      <point x="705.2634877816565" y="-16.37043795620438" type="curve" smooth="yes"/>
      <point x="881.0718819422406" y="-16.37043795620438"/>
      <point x="1010.0973500476039" y="25.723738495715647"/>
      <point x="1119.843383052999" y="55.367423040304665" type="curve" smooth="yes"/>
      <point x="1182.9272453189462" y="72.24333544906379"/>
      <point x="1227.7616629641384" y="86.2397651539194"/>
      <point x="1271.679942875278" y="87.74880990161854" type="curve"/>
      <point x="1358.2135829895271" y="715.8667089812758" type="line"/>
      <point x="858.4591399555698" y="715.8667089812758" type="line"/>
      <point x="847.4948429070138" y="616.364487464297" type="line"/>
      <point x="1123.4313709933356" y="599.7883211678832" type="line"/>
      <point x="1065.4011424944463" y="167.0141225007934" type="line"/>
      <point x="989.3172802284988" y="115.34139955569661"/>
      <point x="875.297921294827" y="86.8767851475722"/>
      <point x="748.4062995874325" y="86.8767851475722" type="curve" smooth="yes"/>
      <point x="443.29347826086956" y="86.8767851475722"/>
      <point x="325.71794668359246" y="352.9526340844177"/>
      <point x="325.71794668359246" y="639.591716915265" type="curve" smooth="yes"/>
      <point x="325.71794668359246" y="1041.9439860361788"/>
      <point x="498.0359409711203" y="1407.1707394477944"/>
      <point x="907.7426213900349" y="1407.1707394477942" type="curve" smooth="yes"/>
      <point x="1062.227864170105" y="1407.1707394477942"/>
      <point x="1137.3404474769914" y="1379.4765947318313"/>
      <point x="1193.2365122183435" y="1347.0950491907333" type="curve"/>
      <point x="1206.0623611551891" y="1134.7255633132338" type="line"/>
      <point x="1345.131466201206" y="1134.7255633132338" type="line"/>
      <point x="1405.0980641066326" y="1437.4306569343064" type="line"/>
      <point x="1385.357108854332" y="1439.8248968581402"/>
      <point x="1365.1586004443036" y="1444.4968264043162"/>
      <point x="1345.3485401459855" y="1449.3248175182482" type="curve"/>
      <point x="1265.0947318311648" y="1468.0784671532847"/>
      <point x="1143.8947953030784" y="1502.7362741986672"/>
      <point x="916.3145033322755" y="1502.7362741986672" type="curve" smooth="yes"/>
      <point x="413.35020628371944" y="1502.7362741986672"/>
      <point x="87.56680418914631" y="1150.8509203427482"/>
      <point x="87.56680418914631" y="624.871866074262" type="curve" smooth="yes"/>
      <point x="87.56680418914631" y="290.5847350047604"/>
      <point x="265.85909235163444" y="-16.37043795620438"/>
    </contour>
  </outline>
</glyph>
<glyph name="H" format="2">
  <advance width="1601.1507457949856"/>
  <unicode hex="0048"/>
  <anchor x="735.3398127578547" y="0.0" name="bottom"/>
  <anchor x="1472.5024595366554" y="0.0" name="bottomright"/>
  <anchor x="938.1900983814662" y="1486.0" name="top"/>
  <outline>
    <contour>
      <point x="-12.550856870834656" y="0.0" type="line"/>
      <point x="534.8202158045066" y="0.0" type="line"/>
      <point x="544.611234528721" y="79.5387178673437" type="line"/>
      <point x="370.67907013646465" y="105.3972548397334" type="line"/>
      <point x="543.0422881624881" y="1382.9440653760712" type="line"/>
      <point x="716.7303237067597" y="1406.5671215487148" type="line"/>
      <point x="726.3625833068867" y="1486.0" type="line"/>
      <point x="186.09576324976197" y="1486.0" type="line"/>
      <point x="176.41058394160584" y="1406.5671215487148" type="line"/>
      <point x="321.34298635353855" y="1382.9440653760712" type="line"/>
      <point x="148.97976832751507" y="105.3972548397334" type="line"/>
      <point x="-2.8656775626785134" y="79.5387178673437" type="line"/>
    </contour>
    <contour>
      <point x="419.75238019676294" y="705.5906854966677" type="line"/>
      <point x="1258.0898920977468" y="705.5906854966677" type="line"/>
      <point x="1257.5200729927008" y="811.6046493176768" type="line"/>
      <point x="418.6127419866709" y="811.6046493176768" type="line"/>
    </contour>
    <contour>
      <point x="927.6192478578229" y="0.0" type="line"/>
      <point x="1469.5294350999686" y="0.0" type="line"/>
      <point x="1478.6977150111077" y="79.5916375753729" type="line"/>
      <point x="1329.643287845129" y="105.3972548397334" type="line"/>
      <point x="1502.0065058711523" y="1382.9440653760712" type="line"/>
      <point x="1651.2450015867976" y="1406.5671215487148" type="line"/>
      <point x="1660.2016026658205" y="1486.0" type="line"/>
      <point x="1121.834417645192" y="1486.0" type="line"/>
      <point x="1112.7190574420817" y="1406.5671215487148" type="line"/>
      <point x="1280.3072040622023" y="1382.9440653760712" type="line"/>
      <point x="1107.943986036179" y="105.3972548397334" type="line"/>
      <point x="936.7346080609329" y="79.5916375753729" type="line"/>
    </contour>
  </outline>
</glyph>
<glyph name="I" format="2">
  <advance width="707.5366550301491"/>
  <unicode hex="0049"/>
  <anchor x="269.64638210092033" y="0.0" name="bottom"/>
  <anchor x="433.0047603935259" y="-164.0" name="btm"/>
  <anchor x="299.25642653125993" y="0.0" name="ogonek"/>
  <anchor x="478.5879086004443" y="1486.0" name="top"/>
  <anchor x="144.1093303713107" y="1486.0" name="topleft"/>
  <outline>
    <contour>
      <point x="0.15566486829577886" y="0.0" type="line"/>
      <point x="567.791336083783" y="0.0" type="line"/>
      <point x="575.7553951126627" y="78.80474452554743" type="line"/>
      <point x="400.7748333862266" y="105.13495715645827" type="line"/>
      <point x="572.7659473183115" y="1383.2063630593464" type="line"/>
      <point x="744.4130434782608" y="1406.3048238654396" type="line"/>
      <point x="753.7830053951125" y="1486.0" type="line"/>
      <point x="197.94779435099966" y="1486.0" type="line"/>
      <point x="188.78721040939388" y="1406.3048238654396" type="line"/>
      <point x="350.96080609330375" y="1383.2063630593464" type="line"/>
      <point x="178.96969216121866" y="105.13495715645827" type="line"/>
      <point x="10.10314185972707" y="78.80474452554743" type="line"/>
    </contour>
  </outline>
</glyph>
<glyph name="J" format="2">
  <advance width="695.5134877816566"/>
  <unicode hex="004A"/>
  <anchor x="300.33100602983177" y="-164.0" name="btm"/>
  <anchor x="498.80069819105046" y="1486.0" name="top"/>
  <outline>
    <contour>
      <point x="-153.4650111075849" y="-331.6259124087592" type="line"/>
      <point x="97.5530783878134" y="-295.32957791177404"/>
      <point x="313.8991589971438" y="-207.33132338940018"/>
      <point x="397.3629800063472" y="57.28459219295462" type="curve" smooth="yes"/>
      <point x="447.76443986036185" y="211.9220088860679"/>
      <point x="500.4353379879403" y="699.723183116471"/>
      <point x="581.485480799746" y="1384.2310377657886" type="curve"/>
      <point x="749.1619327197715" y="1406.3048238654394" type="line"/>
      <point x="758.339336718502" y="1486.0" type="line"/>
      <point x="211.55291970802915" y="1486.0" type="line"/>
      <point x="202.1300380831482" y="1406.3048238654394" type="line"/>
      <point x="363.7465090447477" y="1383.7064423992383" type="line"/>
      <point x="314.75103141859734" y="964.9978578229133"/>
      <point x="256.6547127895906" y="440.92208822596"/>
      <point x="193.88448111710568" y="107.77380196762932" type="curve" smooth="yes"/>
      <point x="153.41708981275784" y="-105.07767375436367"/>
      <point x="20.939939701682004" y="-201.32323072040623"/>
      <point x="-189.88424309742936" y="-257.1854173278324" type="curve"/>
    </contour>
  </outline>
</glyph>
<glyph name="K" format="2">
  <advance width="1458.5580768010157"/>
  <unicode hex="004B"/>
  <anchor x="716.4786575690256" y="0.0" name="bottom"/>
  <anchor x="853.5142018406855" y="1486.0" name="top"/>
  <outline>
    <contour>
      <point x="-9.403284671532846" y="27.803554427165977" type="line"/>
      <point x="354.607188194224" y="0.0" type="line"/>
      <point x="542.7606315455411" y="51.73516344017773" type="line"/>
      <point x="420.92526182164397" y="98.5775150745795" type="line"/>
      <point x="499.23857505553804" y="1062.4162964138368" type="line"/>
      <point x="666.6314662012059" y="1399.747381783561" type="line"/>
      <point x="723.2150111075849" y="1458.1964455728341" type="line"/>
      <point x="367.3434623928911" y="1486.0" type="line"/>
      <point x="179.55815614090764" y="1434.3706759758809" type="line"/>
      <point x="281.4737384957156" y="1389.7638051412252" type="line"/>
      <point x="192.78348143446524" y="425.92502380196765" type="line"/>
      <point x="37.00357029514441" y="86.3584576324976" type="line"/>
    </contour>
    <contour>
      <point x="409.3447318311647" y="523.3927324658838" type="line"/>
      <point x="1107.5655347508728" y="1149.0184861948587" type="line"/>
      <point x="1465.0922722945097" y="1399.7473817835605" type="line"/>
      <point x="1507.5646620120597" y="1457.6718502062838" type="line"/>
      <point x="1186.2317518248176" y="1486.0" type="line"/>
      <point x="1040.151777213583" y="1434.3706759758804" type="line"/>
      <point x="1149.6394795303079" y="1390.064900031736" type="line"/>
      <point x="609.679387496033" y="805.8694858774993" type="line"/>
    </contour>
    <contour>
      <point x="1389.996033005395" y="0.0" type="line"/>
      <point x="1404.0213424309743" y="78.67676927959377" type="line"/>
      <point x="1278.405109489051" y="109.83465566486831" type="line"/>
      <point x="1229.862741986671" y="135.90986988257694"/>
      <point x="1175.7825293557598" y="240.0744208187877"/>
      <point x="1055.241034592193" y="433.6862107267534" type="curve" smooth="yes"/>
      <point x="983.832672167566" y="545.6916058394161"/>
      <point x="866.5818787686449" y="760.2642018406855"/>
      <point x="798.4141542367503" y="866.6310695017455" type="curve"/>
      <point x="648.9998413202158" y="724.0994128847984" type="line"/>
      <point x="710.1315455410981" y="604.9701682005713"/>
      <point x="801.370199936528" y="423.4478736908918"/>
      <point x="867.619327197715" y="305.3028403681371" type="curve" smooth="yes"/>
      <point x="950.069819105046" y="160.47484925420503"/>
      <point x="1034.6699460488733" y="4.312916534433513"/>
      <point x="1088.9174071723262" y="0.0" type="curve"/>
    </contour>
  </outline>
</glyph>
<glyph name="L" format="2">
  <advance width="1249.8037131069507"/>
  <unicode hex="004C"/>
  <anchor x="557.4143922564266" y="0.0" name="bottom"/>
  <anchor x="855.2680894953982" y="1110.0" name="car"/>
  <anchor x="971.3422722945097" y="1618.0" name="caron"/>
  <anchor x="368.2745953665504" y="743.0" name="center"/>
  <anchor x="462.1232148524278" y="1486.0" name="top"/>
  <anchor x="1380.1337699936525" y="1486.0" name="topright"/>
  <outline>
    <contour>
      <point x="-9.403284671532846" y="27.803554427165977" type="line"/>
      <point x="759.2400825134879" y="0.0" type="line"/>
      <point x="1153.6661377340524" y="320.24206601079027" type="line"/>
      <point x="1109.8446524912727" y="479.77054903205334" type="line"/>
      <point x="957.1484449381148" y="226.14558870199937" type="line"/>
      <point x="477.67724531894635" y="102.2184227229451" type="line"/>
      <point x="498.9762773722629" y="1060.580212630911" type="line"/>
      <point x="678.8782132656299" y="1399.747381783561" type="line"/>
      <point x="740.707711837512" y="1458.1964455728341" type="line"/>
      <point x="372.5894160583942" y="1486.0" type="line"/>
      <point x="179.55815614090764" y="1434.3706759758809" type="line"/>
      <point x="281.4737384957156" y="1389.7638051412252" type="line"/>
      <point x="192.78348143446524" y="425.92502380196765" type="line"/>
      <point x="37.00357029514441" y="86.3584576324976" type="line"/>
    </contour>
  </outline>
</glyph>
<glyph name="M" format="2">
  <advance width="2025.4443827356395"/>
  <unicode hex="004D"/>
  <anchor x="830.6143287845128" y="0.0" name="bottom"/>
  <anchor x="1967.4799270072992" y="9.020562075079397e-17" name="bottomright"/>
  <anchor x="1045.1341637575374" y="1486.0" name="top"/>
  <outline>
    <contour>
      <point x="-78.3844017772136" y="0.0" type="line"/>
      <point x="475.3848778165662" y="0.0" type="line"/>
      <point x="483.09830212630914" y="79.4328784512853" type="line"/>
      <point x="266.90455410980644" y="106.38170422088226" type="line"/>
      <point x="491.88289431926376" y="1005.6853379879402" type="line"/>
      <point x="579.6473341796255" y="1383.5061885115838" type="line"/>
      <point x="642.7570612503966" y="1011.4781815296731" type="line"/>
      <point x="835.228895588702" y="0.0" type="line"/>
      <point x="963.4159790542685" y="-0.5245953665503015" type="line"/>
      <point x="1459.3647254839732" y="1033.235480799746" type="line"/>
      <point x="1614.617026340844" y="1376.1059187559506" type="line"/>
      <point x="1593.075214217709" y="987.3248968581403" type="line"/>
      <point x="1564.396144081244" y="104.78221199619168" type="line"/>
      <point x="1362.0280069819103" y="80.06331323389401" type="line"/>
      <point x="1355.4089971437638" y="0.0" type="line"/>
      <point x="1966.5629165344337" y="0.0" type="line"/>
      <point x="1972.6121072675342" y="79.4328784512853" type="line"/>
      <point x="1786.1689146302758" y="106.15177721358299" type="line"/>
      <point x="1808.8745636305935" y="1384.0111075848938" type="line"/>
      <point x="2002.4307362741988" y="1406.3577435734685" type="line"/>
      <point x="2011.500872738813" y="1486.0" type="line"/>
      <point x="1541.8266423357666" y="1486.0" type="line"/>
      <point x="1077.8559187559504" y="500.32521421770866" type="line"/>
      <point x="979.6936686766106" y="291.16764519200257" type="line"/>
      <point x="945.0752142177087" y="506.4220088860679" type="line"/>
      <point x="773.2154078070452" y="1486.0" type="line"/>
      <point x="265.7222310377658" y="1486.0" type="line"/>
      <point x="256.7838781339257" y="1406.4197873690891" type="line"/>
      <point x="457.1130593462393" y="1383.0913995556966" type="line"/>
      <point x="109.22429387496032" y="106.38170422088227" type="line"/>
      <point x="-70.25991748651221" y="79.4328784512853" type="line"/>
    </contour>
  </outline>
</glyph>
<glyph name="N" format="2">
  <advance width="1567.5170580768008"/>
  <unicode hex="004E"/>
  <anchor x="719.0934623928911" y="0.0" name="bottom"/>
  <anchor x="887.0249127261186" y="1486.0" name="top"/>
  <outline>
    <contour>
      <point x="-12.392097746747066" y="0.0" type="line"/>
      <point x="483.0606950174548" y="0.0" type="line"/>
      <point x="490.55704538241827" y="79.43287845128532" type="line"/>
      <point x="303.5247540463345" y="105.69192319898444" type="line"/>
      <point x="449.30553792446835" y="1400.1198825769595" type="line"/>
      <point x="410.20620437956205" y="1396.5929863535384" type="line"/>
      <point x="536.4989685814028" y="1062.6551888289434" type="line"/>
      <point x="1070.4030466518566" y="0.0" type="line"/>
      <point x="1284.4443827356392" y="0.0" type="line"/>
      <point x="1475.5259441447158" y="1381.7231037765787" type="line"/>
      <point x="1633.0184861948585" y="1406.5671215487148" type="line"/>
      <point x="1642.5449063789274" y="1486.0" type="line"/>
      <point x="1154.4456521739128" y="1486.0" type="line"/>
      <point x="1145.9001110758488" y="1406.5671215487148" type="line"/>
      <point x="1326.01134560457" y="1381.723103776579" type="line"/>
      <point x="1175.8591716915264" y="104.42780069819105" type="line"/>
      <point x="1221.6324182799112" y="107.20501428118055" type="line"/>
      <point x="1097.0969533481436" y="434.58529038400513" type="line"/>
      <point x="566.8388606791495" y="1486.0" type="line"/>
      <point x="186.74904792129485" y="1486.0" type="line"/>
      <point x="177.0109489051095" y="1406.4083624246273" type="line"/>
      <point x="326.3722627737226" y="1382.8382259600128" type="line"/>
      <point x="150.8556807362742" y="105.16732783243414" type="line"/>
      <point x="-2.7507140590288786" y="79.4328784512853" type="line"/>
    </contour>
  </outline>
</glyph>
<glyph name="O" format="2">
  <advance width="1490.4126467788005"/>
  <unicode hex="004F"/>
  <anchor x="680.4892097746747" y="0.0" name="bottom"/>
  <anchor x="788.7169946048873" y="743.9470802919708" name="center"/>
  <anchor x="801.5141225007933" y="0.0" name="ogonek"/>
  <anchor x="886.7439701682005" y="1486.0" name="top"/>
  <anchor x="179.8491748651222" y="1486.0" name="topleft"/>
  <anchor x="1025.977070771184" y="1486.0" name="topright"/>
  <outline>
    <contour>
      <point x="681.3321167883212" y="-20.44160583941606" type="curve" smooth="yes"/>
      <point x="1166.2715011107584" y="-20.44160583941606"/>
      <point x="1454.7695969533481" y="372.6324976198032"/>
      <point x="1454.769596953348" y="852.5702158045065" type="curve" smooth="yes"/>
      <point x="1454.769596953348" y="1219.0229292288163"/>
      <point x="1262.784274833386" y="1505.602189781022"/>
      <point x="862.0113456045698" y="1505.602189781022" type="curve" smooth="yes"/>
      <point x="383.88479847667406" y="1505.602189781022"/>
      <point x="89.87845128530624" y="1116.724849254205"/>
      <point x="89.87845128530623" y="634.3229133608379" type="curve" smooth="yes"/>
      <point x="89.87845128530624" y="259.94834973024433"/>
      <point x="284.48675023801974" y="-20.44160583941606"/>
    </contour>
    <contour>
      <point x="699.6132973659155" y="74.6692319898445" type="curve" smooth="yes"/>
      <point x="438.20882259600126" y="74.6692319898445"/>
      <point x="327.4547762615043" y="344.2580133291019"/>
      <point x="327.4547762615043" y="651.1999365280864" type="curve" smooth="yes"/>
      <point x="327.4547762615043" y="1077.0122976832752"/>
      <point x="536.5715645826722" y="1409.913836877182"/>
      <point x="845.6122659473184" y="1409.966756585211" type="curve" smooth="yes"/>
      <point x="1098.7796731196445" y="1410.0196762932403"/>
      <point x="1215.619485877499" y="1166.7619009838145"/>
      <point x="1217.1932719771498" y="842.3541732783244" type="curve" smooth="yes"/>
      <point x="1217.1932719771498" y="409.40685496667726"/>
      <point x="1018.5683909869882" y="74.6692319898445"/>
    </contour>
  </outline>
</glyph>
<glyph name="P" format="2">
  <advance width="1288.9003490955251"/>
  <unicode hex="0050"/>
  <anchor x="836.2645436369407" y="598.5168200571247" name="tick"/>
  <anchor x="796.3225166613773" y="1486.0" name="top"/>
  <outline>
    <contour>
      <point x="-12.550856870834656" y="0.0" type="line"/>
      <point x="595.7437321485244" y="0.0" type="line"/>
      <point x="604.8513963821008" y="80.64082830847349" type="line"/>
      <point x="370.9527927642019" y="107.78768644874644" type="line"/>
      <point x="552.8748016502698" y="1456.4153443351317" type="line"/>
      <point x="491.27848302126307" y="1376.7654712789592" type="line"/>
      <point x="563.123373532212" y="1394.2431767692797"/>
      <point x="675.1653443351317" y="1406.811726436052"/>
      <point x="750.517058076801" y="1406.7588067280228" type="curve" smooth="yes"/>
      <point x="979.5098381466202" y="1406.6529673119644"/>
      <point x="1075.3841637575372" y="1307.9892891145669"/>
      <point x="1075.3841637575372" y="1107.690019041574" type="curve" smooth="yes"/>
      <point x="1075.3841637575374" y="811.5839416058394"/>
      <point x="930.1251983497303" y="627.7207235798159"/>
      <point x="633.5661694700096" y="627.8265629958743" type="curve" smooth="yes"/>
      <point x="535.3398920977467" y="627.8265629958743"/>
      <point x="460.66867661059973" y="638.6950174547761"/>
      <point x="390.9193906696287" y="650.5514122500792" type="curve"/>
      <point x="386.6562995874326" y="538.9635036496351" type="line"/>
      <point x="430.79117740399874" y="534.9032846715329"/>
      <point x="558.214297048556" y="530.058473500476"/>
      <point x="624.4282767375436" y="530.058473500476" type="curve" smooth="yes"/>
      <point x="1030.8234687400823" y="530.058473500476"/>
      <point x="1306.510472865757" y="738.2314344652492"/>
      <point x="1306.510472865757" y="1107.7920501428116" type="curve" smooth="yes"/>
      <point x="1306.5104728657568" y="1377.0762456363057"/>
      <point x="1113.1449539828625" y="1501.8412408759125"/>
      <point x="789.824579498572" y="1501.735401459854" type="curve" smooth="yes"/>
      <point x="671.017930815614" y="1501.6824817518248"/>
      <point x="573.8617899079658" y="1486.0"/>
      <point x="453.46326562995876" y="1486.0" type="curve" smooth="yes"/>
      <point x="186.09576324976197" y="1486.0" type="line"/>
      <point x="176.41058394160584" y="1406.5671215487148" type="line"/>
      <point x="321.34298635353855" y="1382.9440653760712" type="line"/>
      <point x="148.97976832751507" y="105.3972548397334" type="line"/>
      <point x="-2.8656775626785134" y="79.5387178673437" type="line"/>
    </contour>
  </outline>
</glyph>
<glyph name="R" format="2">
  <advance width="1405.36686766106"/>
  <unicode hex="0052"/>
  <anchor x="639.9657251666137" y="0.0" name="bottom"/>
  <anchor x="771.991907331006" y="1486.0" name="top"/>
  <outline>
    <contour>
      <point x="-12.550856870834656" y="0.0" type="line"/>
      <point x="561.6025864804823" y="0.0" type="line"/>
      <point x="570.2539669946049" y="79.5387178673437" type="line"/>
      <point x="367.14201840685496" y="105.3972548397334" type="line"/>
      <point x="552.2849888924152" y="1453.939066962869" type="line"/>
      <point x="496.561726436052" y="1377.629165344335" type="line"/>
      <point x="555.2401618533798" y="1396.0869565217395"/>
      <point x="673.6794668359252" y="1407.0211044112982"/>
      <point x="747.5522849888923" y="1407.0211044112982" type="curve" smooth="yes"/>
      <point x="971.76475721993" y="1407.0211044112982"/>
      <point x="1075.741351951761" y="1319.9644557283405"/>
      <point x="1075.741351951761" y="1138.1286893049828" type="curve" smooth="yes"/>
      <point x="1075.7413519517613" y="922.7927642018406"/>
      <point x="939.058473500476" y="765.1590764836559"/>
      <point x="693.8122024754047" y="754.3584576324976" type="curve" smooth="yes"/>
      <point x="666.6262297683276" y="753.1682005712473"/>
      <point x="484.28697238971756" y="753.8415582354808"/>
      <point x="419.84401777213577" y="755.5363376705807" type="curve"/>
      <point x="405.0839416058394" y="657.0230085687083" type="line"/>
      <point x="472.55442716597906" y="656.5307838781339"/>
      <point x="636.6451126626467" y="656.8059346239288"/>
      <point x="661.9139955569659" y="657.8551253570295" type="curve" smooth="yes"/>
      <point x="754.5997302443668" y="641.7921294827039"/>
      <point x="850.1155188828943" y="418.6082989527133"/>
      <point x="937.0520469692162" y="221.5980641066328" type="curve" smooth="yes"/>
      <point x="1007.4632656299589" y="65.59750872738812"/>
      <point x="1053.151539193907" y="0.0"/>
      <point x="1092.5079339892097" y="0.0" type="curve"/>
      <point x="1336.4328784512857" y="0.0" type="line"/>
      <point x="1345.9707235798157" y="78.85766423357664" type="line"/>
      <point x="1233.4816724849254" y="80.06109171691527"/>
      <point x="1217.2452396064741" y="142.58806728022847"/>
      <point x="1116.8336242462713" y="339.44787369089175" type="curve" smooth="yes"/>
      <point x="1065.287289749286" y="436.84171691526495"/>
      <point x="957.2680101555063" y="692.963424309743"/>
      <point x="828.7433354490637" y="689.1009203427483" type="curve"/>
      <point x="802.189066962869" y="666.0527610282448" type="line"/>
      <point x="1111.760314185973" y="701.2952237384958"/>
      <point x="1299.0766423357663" y="901.041415423675"/>
      <point x="1299.0766423357663" y="1138.1929546175818" type="curve" smooth="yes"/>
      <point x="1299.0766423357663" y="1385.9965883846396"/>
      <point x="1136.0287210409392" y="1501.8412408759125"/>
      <point x="797.3290225325294" y="1501.8412408759125" type="curve" smooth="yes"/>
      <point x="651.2477784830213" y="1501.8412408759125"/>
      <point x="563.7982386543956" y="1486.0"/>
      <point x="457.3808314820692" y="1486.0" type="curve" smooth="yes"/>
      <point x="186.09576324976197" y="1486.0" type="line"/>
      <point x="176.41058394160584" y="1406.5671215487148" type="line"/>
      <point x="321.45794985718817" y="1382.9440653760712" type="line"/>
      <point x="148.97976832751507" y="105.3972548397334" type="line"/>
      <point x="-2.8656775626785134" y="79.5387178673437" type="line"/>
    </contour>
  </outline>
</glyph>
<glyph name="S" format="2">
  <advance width="1134.82148524278"/>
  <unicode hex="0053"/>
  <anchor x="456.3843224373215" y="0.0" name="bottom"/>
  <anchor x="667.3150587115201" y="1486.0" name="top"/>
  <outline>
    <contour>
      <point x="465.57830847350044" y="-22.105839416058394" type="curve" smooth="yes"/>
      <point x="822.0080133291019" y="-22.105839416058394"/>
      <point x="1041.3690098381464" y="159.52277054903206"/>
      <point x="1040.052919708029" y="414.0551412250079" type="curve" smooth="yes"/>
      <point x="1038.8426689939702" y="625.0206283719453"/>
      <point x="859.4078070453822" y="725.1457473817835"/>
      <point x="690.3886067914947" y="830.2171532846716" type="curve" smooth="yes"/>
      <point x="525.5000793398921" y="932.8095842589655"/>
      <point x="378.1920025388765" y="1009.6400349095525"/>
      <point x="378.1920025388766" y="1163.793160901301" type="curve" smooth="yes"/>
      <point x="378.1920025388765" y="1326.9521580450653"/>
      <point x="519.896223421136" y="1408.0725960012694"/>
      <point x="687.1651063154554" y="1408.0725960012694" type="curve" smooth="yes"/>
      <point x="804.6833544906378" y="1408.0725960012694"/>
      <point x="877.2258013329101" y="1384.086163122818"/>
      <point x="921.9525547445255" y="1351.2495239606474" type="curve"/>
      <point x="935.4628689304983" y="1157.4038400507775" type="line"/>
      <point x="1055.4324817518245" y="1157.4038400507775" type="line"/>
      <point x="1105.1637575372895" y="1425.037210409394" type="line"/>
      <point x="1043.3459219295457" y="1460.4623928911458"/>
      <point x="906.6103617899081" y="1502.6304347826087"/>
      <point x="701.7716597905426" y="1502.6304347826087" type="curve" smooth="yes"/>
      <point x="396.7575372897493" y="1502.6304347826087"/>
      <point x="171.87496033005397" y="1348.902729292288"/>
      <point x="171.87496033005397" y="1097.5418914630277" type="curve" smooth="yes"/>
      <point x="171.87496033005397" y="881.9468422722945"/>
      <point x="368.5319739765153" y="768.7408759124086"/>
      <point x="541.153443351317" y="662.3571088543318" type="curve" smooth="yes"/>
      <point x="699.9161377340528" y="564.8653602031102"/>
      <point x="824.108774992066" y="491.8850364963503"/>
      <point x="823.7962551570929" y="345.5291177403999" type="curve" smooth="yes"/>
      <point x="824.0585528403682" y="171.41463027610286"/>
      <point x="677.7384957156457" y="73.02951443986036"/>
      <point x="469.15931450333227" y="73.02951443986036" type="curve" smooth="yes"/>
      <point x="361.8050618851158" y="73.02951443986036"/>
      <point x="271.91589971437634" y="100.35980641066328"/>
      <point x="213.1364646144081" y="139.77221516978736" type="curve"/>
      <point x="200.5695017454776" y="351.6396382100921" type="line"/>
      <point x="74.9719930180895" y="351.6396382100921" type="line"/>
      <point x="24.407886385274512" y="67.03721040939385" type="line"/>
      <point x="80.58156140907647" y="31.037210409393843"/>
      <point x="273.3854331958109" y="-22.105839416058394"/>
    </contour>
  </outline>
</glyph>
<glyph name="T" format="2">
  <advance width="1411.0107902253253"/>
  <unicode hex="0054"/>
  <anchor x="614.9060615677563" y="0.0" name="bottom"/>
  <anchor x="1020.5945731513806" y="0.0" name="bottomright"/>
  <anchor x="744.0812012059664" y="743.0" name="center"/>
  <anchor x="809.5663281497937" y="1486.0" name="top"/>
  <outline>
    <contour>
      <point x="267.5356236115519" y="0.0" type="line"/>
      <point x="1018.9167724531894" y="0.0" type="line"/>
      <point x="1025.552602348461" y="79.7634877816566" type="line"/>
      <point x="755.4916693113297" y="100.56728022849889" type="line"/>
      <point x="930.3097429387497" y="1395.967311964456" type="line"/>
      <point x="1284.0563313233893" y="1378.2393684544588" type="line"/>
      <point x="1312.0348302126308" y="1006.7067597588068" type="line"/>
      <point x="1425.3081561409076" y="1008.0763249761981" type="line"/>
      <point x="1462.9380355442718" y="1486.0" type="line"/>
      <point x="191.91105998095844" y="1486.0" type="line"/>
      <point x="112.67867343700412" y="1008.0763249761981" type="line"/>
      <point x="232.13487781656616" y="1009.4458901935894" type="line"/>
      <point x="346.33298952713426" y="1378.2393684544588" type="line"/>
      <point x="707.8818629006664" y="1395.967311964456" type="line"/>
      <point x="534.2034274833385" y="100.56728022849889" type="line"/>
      <point x="273.2320691843859" y="79.7634877816566" type="line"/>
    </contour>
  </outline>
</glyph>
<glyph name="U" format="2">
  <advance width="1490.0738654395427"/>
  <unicode hex="0055"/>
  <anchor x="623.0622024754047" y="0.0" name="bottom"/>
  <anchor x="847.6813709933355" y="20.0" name="ogonek"/>
  <anchor x="895.6081402729294" y="1486.0" name="top"/>
  <anchor x="1424.0913202158044" y="1486.0" name="topright"/>
  <outline>
    <contour>
      <point x="1422.9171691526499" y="1384.4609647730879" type="line"/>
      <point x="1561.6406696286895" y="1406.82941923199" type="line"/>
      <point x="1570.027451602666" y="1486.0" type="line"/>
      <point x="1137.226515391939" y="1486.0" type="line"/>
      <point x="1128.6809742938747" y="1406.5671215487148" type="line"/>
      <point x="1280.9466835925105" y="1382.9440653760712" type="line"/>
      <point x="1182.3905902887973" y="614.9890510948904" type="line" smooth="yes"/>
      <point x="1136.285623611552" y="254.4212154871469"/>
      <point x="993.8299746112347" y="85.72683275150744"/>
      <point x="718.4799270072992" y="85.72683275150744" type="curve" smooth="yes"/>
      <point x="476.9155030149159" y="85.72683275150744"/>
      <point x="383.5422881624881" y="225.35663281497938"/>
      <point x="383.5422881624881" y="457.1735956839099" type="curve" smooth="yes"/>
      <point x="383.5422881624881" y="506.00119009838147"/>
      <point x="387.64812757854656" y="558.9578705172961"/>
      <point x="395.5240399873056" y="615.3835290384005" type="curve" smooth="yes"/>
      <point x="499.3269596953348" y="1382.9440653760712" type="line"/>
      <point x="675.8697238971755" y="1406.5671215487148" type="line"/>
      <point x="685.5549032053317" y="1486.0" type="line"/>
      <point x="145.5326086956522" y="1486.0" type="line"/>
      <point x="135.84742938749602" y="1406.5671215487146" type="line"/>
      <point x="277.62765788638535" y="1382.9440653760712" type="line"/>
      <point x="171.9305775944145" y="601.9073310060298" type="line" smooth="yes"/>
      <point x="165.4228022849889" y="555.7757854649318"/>
      <point x="162.5172167565852" y="512.1520152332592"/>
      <point x="162.5172167565852" y="470.8060933037131" type="curve" smooth="yes"/>
      <point x="162.5172167565852" y="161.25920342748336"/>
      <point x="337.7778483021263" y="-20.0"/>
      <point x="689.0703744842907" y="-20.0" type="curve" smooth="yes"/>
      <point x="1061.2419866708985" y="-20.0"/>
      <point x="1261.6790701364646" y="163.28427483338626"/>
      <point x="1320.3227546810538" y="611.9470802919708" type="curve" smooth="yes"/>
    </contour>
  </outline>
</glyph>
<glyph name="V" format="2">
  <advance width="1355.4956363059346"/>
  <unicode hex="0056"/>
  <anchor x="852.9089971437639" y="1660.0" name="top"/>
  <outline>
    <contour>
      <point x="485.87615042843544" y="-15.748809901618534" type="line"/>
      <point x="673.8271977150112" y="-9.7007299270073" type="line"/>
      <point x="1370.8208505236432" y="1385.5923516344017" type="line"/>
      <point x="1494.4428752776894" y="1406.6729609647732" type="line"/>
      <point x="1502.418597270708" y="1486.0" type="line"/>
      <point x="1050.8569501745478" y="1486.0" type="line"/>
      <point x="1042.5737067597588" y="1406.6729609647732" type="line"/>
      <point x="1220.8794033640118" y="1384.107822913361" type="line"/>
      <point x="758.2105680736275" y="431.6403522691209" type="line"/>
      <point x="606.7298476674072" y="88.50944144715963" type="line"/>
      <point x="660.1151221834339" y="84.9109806410663" type="line"/>
      <point x="608.1500317359569" y="433.08743256109176" type="line"/>
      <point x="430.42756267851473" y="1383.2592827673757" type="line"/>
      <point x="633.2571405902887" y="1406.4612821326564" type="line"/>
      <point x="640.7534909552522" y="1486.0" type="line"/>
      <point x="77.26086956521739" y="1486.0" type="line"/>
      <point x="69.45303078387812" y="1406.4612821326564" type="line"/>
      <point x="201.0422881624881" y="1383.8341002856237" type="line"/>
    </contour>
  </outline>
</glyph>
<glyph name="W" format="2">
  <advance width="2007.8916217073945"/>
  <unicode hex="0057"/>
  <anchor x="856.6421770866391" y="0.0" name="bottom"/>
  <anchor x="1077.6033005395113" y="1486.0" name="top"/>
  <outline>
    <contour>
      <point x="440.1819263725801" y="-15.748809901618534" type="line"/>
      <point x="630.8885274516026" y="-9.7007299270073" type="line"/>
      <point x="1184.0966359885751" y="1223.7056490003172" type="line"/>
      <point x="1064.4387496033005" y="1259.8291812123134" type="line"/>
      <point x="705.3162488099016" y="436.23889241510636" type="line"/>
      <point x="564.1634401777216" y="88.50944144715963" type="line"/>
      <point x="614.050380831482" y="84.9109806410663" type="line"/>
      <point x="566.634719136782" y="433.7772135829896" type="line"/>
      <point x="414.50357029514436" y="1383.2592827673757" type="line"/>
      <point x="616.8039511266264" y="1406.4612821326564" type="line"/>
      <point x="624.30030149159" y="1486.0" type="line"/>
      <point x="63.08695652173913" y="1486.0" type="line"/>
      <point x="55.279117740399876" y="1406.4612821326564" type="line"/>
      <point x="186.86837511900984" y="1383.8341002856237" type="line"/>
    </contour>
    <contour>
      <point x="1224.9916693113296" y="-15.748809901618534" type="line"/>
      <point x="1416.2803871786737" y="-9.7007299270073" type="line"/>
      <point x="2063.879879403364" y="1385.5923516344017" type="line"/>
      <point x="2187.5019041574105" y="1406.6729609647732" type="line"/>
      <point x="2195.4776261504285" y="1486.0" type="line"/>
      <point x="1743.9159790542683" y="1486.0" type="line"/>
      <point x="1735.6327356394795" y="1406.6729609647732" type="line"/>
      <point x="1913.9384322437324" y="1384.107822913361" type="line"/>
      <point x="1491.1132973659157" y="431.64035226912097" type="line"/>
      <point x="1346.4804030466516" y="88.50944144715963" type="line"/>
      <point x="1400.2890352269121" y="84.9109806410663" type="line"/>
      <point x="1357.6709774674705" y="433.31735956839105" type="line"/>
      <point x="1222.0192002538877" y="1383.2592827673757" type="line"/>
      <point x="1412.9231989844495" y="1406.4612821326564" type="line"/>
      <point x="1420.4195493494128" y="1486.0" type="line"/>
      <point x="856.926927959378" y="1486.0" type="line"/>
      <point x="849.1190891780386" y="1406.4612821326564" type="line"/>
      <point x="992.104728657569" y="1383.8341002856237" type="line"/>
    </contour>
  </outline>
</glyph>
<glyph name="X" format="2">
  <advance width="1412.299428752777"/>
  <unicode hex="0058"/>
  <anchor x="571.7690415741033" y="0.0" name="bottom"/>
  <anchor x="1337.4092351634404" y="0.0" name="bottomright"/>
  <anchor x="718.8738495715645" y="746.0" name="center"/>
  <anchor x="826.716835925103" y="1650.7919708029196" name="top"/>
  <outline>
    <contour>
      <point x="-68.34393843224375" y="0.0" type="line"/>
      <point x="431.4033640114249" y="0.0" type="line"/>
      <point x="439.8868613138686" y="79.53871786734369" type="line"/>
      <point x="268.3483021263091" y="105.62987940336401" type="line"/>
      <point x="680.296255157093" y="643.7411932719771" type="line"/>
      <point x="808.9980958425898" y="768.159869882577" type="line"/>
      <point x="1347.2019200253887" y="1384.9208187876866" type="line"/>
      <point x="1500.3625833068866" y="1406.5671215487148" type="line"/>
      <point x="1508.9081244049507" y="1486.0" type="line"/>
      <point x="1001.2969692161217" y="1486.0" type="line"/>
      <point x="992.6455887019993" y="1406.5671215487148" type="line"/>
      <point x="1170.146302761028" y="1383.4362900666456" type="line"/>
      <point x="757.9512853062521" y="862.1505871152015" type="line"/>
      <point x="629.2083465566486" y="749.594890510949" type="line"/>
      <point x="86.20969533481434" y="104.14535068232307" type="line"/>
      <point x="-59.745477626150425" y="79.53871786734369" type="line"/>
    </contour>
    <contour>
      <point x="741.4104252618216" y="0.0" type="line"/>
      <point x="1332.8186290066647" y="0.0" type="line"/>
      <point x="1338.5150745794986" y="79.53871786734369" type="line"/>
      <point x="1177.5622818152967" y="105.68279911139321" type="line"/>
      <point x="818.1478102189781" y="773.0192002538877" type="line"/>
      <point x="763.619089178039" y="865.1677245318947" type="line"/>
      <point x="514.4596953348143" y="1385.2360361789906" type="line"/>
      <point x="698.1036972389718" y="1406.7258806728023" type="line"/>
      <point x="706.8609171691527" y="1486.052919708029" type="line"/>
      <point x="129.794668359251" y="1486.052919708029" type="line"/>
      <point x="121.14328784512854" y="1406.620041256744" type="line"/>
      <point x="271.4414471596318" y="1382.2966518565536" type="line"/>
      <point x="613.0296731196446" y="739.7830053951128" type="line"/>
      <point x="666.4019358933673" y="636.3025230085686" type="line"/>
      <point x="922.4073310060297" y="103.9359727070771" type="line"/>
      <point x="747.8108536972389" y="79.53871786734369" type="line"/>
    </contour>
  </outline>
</glyph>
<glyph name="Y" format="2">
  <advance width="1287.7163598857505"/>
  <unicode hex="0059"/>
  <anchor x="579.8694858774992" y="0.0" name="bottom"/>
  <anchor x="643.9845287210411" y="469.0" name="center"/>
  <anchor x="754.030149158997" y="1486.0" name="top"/>
  <anchor x="166.48913043478262" y="1486.0" name="topleft"/>
  <outline>
    <contour>
      <point x="222.6134560456998" y="0.0" type="line"/>
      <point x="937.359568390987" y="0.0" type="line"/>
      <point x="945.8521897810218" y="79.76348778165661" type="line"/>
      <point x="700.7085845763249" y="107.66296413836879" type="line"/>
      <point x="777.3110917169151" y="675.0646620120597" type="line"/>
      <point x="707.154157410346" y="503.4811171056807" type="line"/>
      <point x="1317.8840844176452" y="1385.946366232942" type="line"/>
      <point x="1445.6017930815613" y="1406.5671215487148" type="line"/>
      <point x="1453.5775150745797" y="1486.0" type="line"/>
      <point x="991.7971278959061" y="1486.0" type="line"/>
      <point x="982.1119485877498" y="1406.5671215487148" type="line"/>
      <point x="1154.8503649635036" y="1384.5768010155507" type="line"/>
      <point x="782.6221834338306" y="820.7292129482703" type="line"/>
      <point x="655.4913519517614" y="611.2599174865122" type="line"/>
      <point x="730.1222627737226" y="610.1336083782925" type="line"/>
      <point x="655.9973024436688" y="831.067359568391" type="line"/>
      <point x="424.0710885433196" y="1384.3651221834339" type="line"/>
      <point x="607.2835607743573" y="1406.5671215487148" type="line"/>
      <point x="616.3989209774676" y="1486.0" type="line"/>
      <point x="68.07267534116154" y="1486.0" type="line"/>
      <point x="57.81767692795937" y="1406.5671215487148" type="line"/>
      <point x="184.5872738813075" y="1385.3636940653762" type="line"/>
      <point x="583.5549032053317" y="494.762218343383" type="line"/>
      <point x="556.2692002538876" y="680.1121866074263" type="line"/>
      <point x="479.42034274833384" y="107.66296413836879" type="line"/>
      <point x="231.15899714376388" y="79.76348778165661" type="line"/>
    </contour>
  </outline>
</glyph>
<glyph name="Z" format="2">
  <advance width="1307.203824182799"/>
  <unicode hex="005A"/>
  <anchor x="573.3326756585212" y="0.0" name="bottom"/>
  <anchor x="782.2906605839415" y="1486.0" name="top"/>
  <outline>
    <contour>
      <point x="6.5887813392573795" y="0.0" type="line"/>
      <point x="1132.4640590288798" y="0.0" type="line"/>
      <point x="1230.757299270073" y="373.89043160901304" type="line"/>
      <point x="1110.3573468740083" y="404.8462392891146" type="line"/>
      <point x="962.6033005395113" y="117.26229768327515" type="line"/>
      <point x="238.03689304982547" y="94.90510948905109" type="line"/>
      <point x="404.82243732148527" y="274.4600126943827" type="line"/>
      <point x="1326.3656775626785" y="1418.3583782926055" type="line"/>
      <point x="1304.0780704538242" y="1486.0" type="line"/>
      <point x="257.9280387178673" y="1486.0" type="line"/>
      <point x="196.32180260234847" y="1131.5884639796889" type="line"/>
      <point x="315.67795937797524" y="1114.6738337035863" type="line"/>
      <point x="425.3698825769597" y="1378.5364170104729" type="line"/>
      <point x="1078.194858774992" y="1390.8158521104413" type="line"/>
      <point x="902.2617423040305" y="1212.2446842272295" type="line"/>
      <point x="-18.55188828943193" y="69.71278959060615" type="line"/>
    </contour>
  </outline>
</glyph>
<glyph name="bracketleft" format="2">
  <advance width="815.9992066010789"/>
  <unicode hex="005B"/>
  <outline>
    <contour>
      <point x="312.90899714376394" y="-311.7769755633132" type="curve" smooth="yes"/>
      <point x="408.73222786417017" y="-311.7769755633132"/>
      <point x="505.1070295144398" y="-294.56902570612505"/>
      <point x="589.1885909235162" y="-272.3725007933989" type="curve"/>
      <point x="598.3736908917805" y="-192.75126943827357" type="line"/>
      <point x="320.2601555061885" y="-191.08703586163125" type="line"/>
      <point x="551.6924785782292" y="1573.9250238019677" type="line"/>
      <point x="826.3870993335449" y="1573.9250238019677" type="line"/>
      <point x="838.0233259282767" y="1652.391225007934" type="line"/>
      <point x="814.906616947001" y="1656.3757537289748"/>
      <point x="666.8055379244685" y="1692.705410980641"/>
      <point x="576.0553792446842" y="1692.705410980641" type="curve" smooth="yes"/>
      <point x="447.0418914630276" y="1692.705410980641"/>
      <point x="382.65939384322434" y="1645.6988257695973"/>
      <point x="361.7845128530625" y="1490.5630752142179" type="curve" smooth="yes"/>
      <point x="149.34496985084098" y="-108.49500158679784" type="line" smooth="yes"/>
      <point x="129.03990796572512" y="-261.65899714376394"/>
      <point x="165.77887972072358" y="-311.7769755633132"/>
    </contour>
  </outline>
</glyph>
<glyph name="backslash" format="2">
  <advance width="933.9101079022532"/>
  <unicode hex="005C"/>
  <outline>
    <contour>
      <point x="732.7024754046333" y="-354.0" type="line"/>
      <point x="882.4954776261504" y="-354.0" type="line"/>
      <point x="318.4954776261505" y="1563.891304347826" type="line"/>
      <point x="169.33291018724216" y="1563.891304347826" type="line"/>
    </contour>
  </outline>
</glyph>
<glyph name="asciicircum" format="2">
  <advance width="1382.34417645192"/>
  <unicode hex="005E"/>
  <outline>
    <contour>
      <point x="719.4412884798476" y="1496.0" type="line"/>
      <point x="140.3138686131387" y="404.0" type="line"/>
      <point x="292.36877181847024" y="404.0" type="line"/>
      <point x="770.8840050777533" y="1274.6683592510312" type="line"/>
      <point x="1048.1259124087592" y="404.0" type="line"/>
      <point x="1202.7164392256425" y="404.0" type="line"/>
      <point x="873.5290384005078" y="1496.0" type="line"/>
    </contour>
  </outline>
</glyph>
<glyph name="grave" format="2">
  <advance width="782.5005553792446"/>
  <unicode hex="0060"/>
  <anchor x="599.4395430022215" y="1108.6304347826087" name="_top"/>
  <anchor x="677.8523484608061" y="1670.8695652173913" name="top"/>
  <outline>
    <contour>
      <point x="666.7056490003175" y="1237.4934941288477" type="curve"/>
      <point x="724.4288321167884" y="1290.3652015233258" type="line"/>
      <point x="444.0809266899397" y="1704.17359568391" type="line"/>
      <point x="301.6578070453824" y="1578.320850523643" type="line"/>
      <point x="362.7757061250396" y="1480.0848936845446"/>
      <point x="572.0449857188195" y="1293.7977626150428"/>
    </contour>
  </outline>
</glyph>
<glyph name="a" format="2">
  <advance width="1170.6094890510951"/>
  <unicode hex="0061"/>
  <anchor x="485.0856077435734" y="0.0" name="bottom"/>
  <anchor x="1096.4857188194223" y="1622.0" name="caron"/>
  <anchor x="928.4973024436688" y="0.0" name="ogonek"/>
  <anchor x="715.1179784195492" y="1108.2299270072992" name="top"/>
  <outline>
    <contour>
      <point x="950.7058076801017" y="173.1141701047287" type="curve" smooth="yes"/>
      <point x="1093.9625515709297" y="1115.2618216439228" type="line"/>
      <point x="966.6654236750237" y="1078.9600126943828" type="line"/>
      <point x="909.4674706442399" y="1098.7309584258967"/>
      <point x="820.2348460806093" y="1118.5310218978104"/>
      <point x="725.7796731196446" y="1118.5310218978104" type="curve" smooth="yes"/>
      <point x="313.5713265629959" y="1118.5310218978104"/>
      <point x="44.3559187559505" y="751.9282767375436"/>
      <point x="44.3559187559505" y="380.6274992066011" type="curve" smooth="yes"/>
      <point x="44.3559187559505" y="151.8918597270708"/>
      <point x="172.63757537289752" y="-20.273722627737225"/>
      <point x="405.19184385909233" y="-20.273722627737225" type="curve" smooth="yes"/>
      <point x="540.0265788638528" y="-20.273722627737225"/>
      <point x="671.0614090764835" y="64.12289749285941"/>
      <point x="756.2327832434148" y="182.60417327832437" type="curve"/>
      <point x="747.387178673437" y="111.5107902253253" type="line"/>
      <point x="743.5301491589972" y="20.69700095207871"/>
      <point x="796.954538241828" y="-20.273722627737225"/>
      <point x="880.920342748334" y="-20.273722627737225" type="curve" smooth="yes"/>
      <point x="999.0363376705808" y="-20.273722627737225"/>
      <point x="1088.8113297365915" y="70.9614408124405"/>
      <point x="1110.786496350365" y="104.9051094890511" type="curve"/>
      <point x="1083.2627737226278" y="154.0556172643605" type="line"/>
      <point x="1044.7570612503966" y="117.55696604252618"/>
      <point x="1016.8802761028244" y="101.72238971754997"/>
      <point x="990.9298635353856" y="101.72238971754997" type="curve" smooth="yes"/>
      <point x="964.14939701682" y="101.72238971754997"/>
      <point x="942.2741986670898" y="115.2080291970803"/>
    </contour>
    <contour>
      <point x="861.8307680101555" y="981.1332116788321" type="curve"/>
      <point x="758.1306728022851" y="298.01015550618854" type="line"/>
      <point x="704.8281497937163" y="207.9615994922247"/>
      <point x="592.7008092668993" y="104.18145033322756"/>
      <point x="465.127419866709" y="104.18145033322756" type="curve" smooth="yes"/>
      <point x="351.23548079974603" y="104.18145033322756"/>
      <point x="269.88210092034274" y="199.97016820057127"/>
      <point x="269.88210092034274" y="388.2865756902571" type="curve" smooth="yes"/>
      <point x="269.93502062837194" y="710.5667248492542"/>
      <point x="446.38162488099016" y="1020.2151697873692"/>
      <point x="719.2584893684545" y="1020.2151697873692" type="curve" smooth="yes"/>
      <point x="771.5068232307204" y="1020.2151697873692"/>
      <point x="828.407489685814" y="1006.9553316407488"/>
    </contour>
  </outline>
</glyph>
<glyph name="b" format="2">
  <advance width="1174.2250079339892"/>
  <unicode hex="0062"/>
  <anchor x="439.82918121231353" y="0.0" name="bottom"/>
  <anchor x="809.4623135512536" y="1111.9580291970804" name="top"/>
  <outline>
    <contour>
      <point x="409.9685020628373" y="939.0778324341479" type="curve"/>
      <point x="509.6073468740082" y="1609.500079339892" type="line"/>
      <point x="463.91423357664235" y="1634.0" type="line"/>
      <point x="167.87868930498254" y="1596.498333862266" type="line"/>
      <point x="151.7988733735322" y="1532.8106156775625" type="line"/>
      <point x="284.2211202792764" y="1497.8842430974294" type="line"/>
      <point x="57.95961599492225" y="-10.20453824182799" type="line"/>
      <point x="174.8656775626785" y="28.19041574103459" type="line"/>
      <point x="231.74373214852426" y="3.9526340844176437"/>
      <point x="317.560060298318" y="-20.359013011742306"/>
      <point x="443.46175817200896" y="-20.359013011742306" type="curve" smooth="yes"/>
      <point x="887.0878292605521" y="-20.359013011742306"/>
      <point x="1124.2690415741035" y="379.02396064741356"/>
      <point x="1124.2690415741035" y="715.9535861631228" type="curve" smooth="yes"/>
      <point x="1124.2690415741035" y="948.4125674389082"/>
      <point x="1008.3859885750555" y="1118.7906220247544"/>
      <point x="761.9857981593144" y="1118.7906220247544" type="curve" smooth="yes"/>
      <point x="620.3788479847667" y="1118.7906220247544"/>
      <point x="492.4865915582355" y="1039.2162805458586"/>
    </contour>
    <contour>
      <point x="285.1505871152015" y="121.08068867026343" type="curve"/>
      <point x="388.217549984132" y="807.1620120596638" type="line"/>
      <point x="467.91701047286574" y="923.4838940019042"/>
      <point x="584.719216121866" y="994.3883687718185"/>
      <point x="696.6810536337671" y="994.3883687718185" type="curve" smooth="yes"/>
      <point x="837.6205966359885" y="994.3883687718185"/>
      <point x="899.7328625833069" y="886.9653284671533"/>
      <point x="899.7328625833069" y="714.003332275468" type="curve" smooth="yes"/>
      <point x="899.7328625833069" y="412.24309742938743"/>
      <point x="743.6401142494447" y="78.06267851475722"/>
      <point x="444.07735639479534" y="78.06267851475722" type="curve" smooth="yes"/>
      <point x="378.88575055537916" y="78.06267851475722"/>
      <point x="325.8801174230403" y="91.23619485877501"/>
    </contour>
  </outline>
</glyph>
<glyph name="c" format="2">
  <advance width="969.8213265629959"/>
  <unicode hex="0063"/>
  <anchor x="474.2737226277372" y="0.0" name="bottom"/>
  <anchor x="646.4164550936209" y="1110.1058394160584" name="top"/>
  <outline>
    <contour>
      <point x="853.9963503649635" y="869.2872104093938" type="curve" smooth="yes"/>
      <point x="892.9735004760394" y="860.7399238337035" type="line"/>
      <point x="955.2439701682005" y="1071.8884481117107" type="line"/>
      <point x="893.3401301174231" y="1099.0176927959378"/>
      <point x="803.9873056172645" y="1118.3193430656936"/>
      <point x="707.7860203110122" y="1118.3193430656936" type="curve" smooth="yes"/>
      <point x="273.68660742621387" y="1118.3193430656936"/>
      <point x="49.62837194541415" y="753.7339733417963"/>
      <point x="49.62837194541415" y="425.7115201523326" type="curve" smooth="yes"/>
      <point x="49.62837194541415" y="143.76705807680102"/>
      <point x="206.41359885750552" y="-22.162726118692476"/>
      <point x="469.8551253570296" y="-22.162726118692476" type="curve" smooth="yes"/>
      <point x="668.4631862900666" y="-22.162726118692476"/>
      <point x="817.8109330371311" y="74.62115201523326"/>
      <point x="885.2649952396065" y="159.86543954300222" type="curve"/>
      <point x="847.4548556013966" y="230.44557283402096" type="line"/>
      <point x="757.9769120913995" y="156.81204379562047"/>
      <point x="660.1895430022216" y="103.53030783878134"/>
      <point x="527.1929546175817" y="103.53030783878134" type="curve" smooth="yes"/>
      <point x="376.8972548397334" y="103.53030783878134"/>
      <point x="273.2702316724849" y="206.38781339257378"/>
      <point x="273.2702316724849" y="438.82973659155823" type="curve" smooth="yes"/>
      <point x="273.2702316724849" y="767.6748651221835"/>
      <point x="439.12289749285935" y="1004.2478578229133"/>
      <point x="665.1366232941922" y="1004.2478578229133" type="curve" smooth="yes"/>
      <point x="731.0607743573468" y="1004.2478578229133"/>
      <point x="782.763725801333" y="975.9615201523326"/>
    </contour>
  </outline>
</glyph>
<glyph name="d" format="2">
  <advance width="1191.2498413202156"/>
  <unicode hex="0064"/>
  <anchor x="495.5927483338623" y="0.0" name="bottom"/>
  <anchor x="1269.3567121548715" y="1622.0" name="caron"/>
  <anchor x="403.08457632497624" y="1110.0" name="top"/>
  <outline>
    <contour>
      <point x="972.1993811488416" y="171.32331006029833" type="curve"/>
      <point x="1184.9613614725483" y="1609.500079339892" type="line"/>
      <point x="1138.1286099650904" y="1634.0" type="line"/>
      <point x="830.1098064106633" y="1596.4983338622658" type="line"/>
      <point x="814.5998095842589" y="1532.8106156775625" type="line"/>
      <point x="959.3543319581086" y="1497.6105204696921" type="line"/>
      <point x="901.67359568391" y="1094.663916217074" type="line"/>
      <point x="850.6178197397652" y="1111.2367502380196"/>
      <point x="803.8222786417009" y="1118.990875912409"/>
      <point x="731.2433354490638" y="1118.990875912409" type="curve" smooth="yes"/>
      <point x="313.5702951443986" y="1118.990875912409"/>
      <point x="44.84814344652491" y="760.8658362424626"/>
      <point x="44.84814344652491" y="382.9906378927324" type="curve" smooth="yes"/>
      <point x="44.84814344652491" y="151.5314185972707"/>
      <point x="180.73175182481754" y="-20.273722627737225"/>
      <point x="405.77848302126307" y="-20.273722627737225" type="curve" smooth="yes"/>
      <point x="568.8778165661694" y="-20.273722627737225"/>
      <point x="703.7293716280545" y="72.21223421136146"/>
      <point x="777.4184385909234" y="171.5911615360203" type="curve"/>
      <point x="770.8844811171057" y="114.62734052681688" type="line" smooth="yes"/>
      <point x="764.4651697873691" y="27.376943827356396"/>
      <point x="811.6608219612821" y="-20.273722627737225"/>
      <point x="904.4074896858141" y="-20.273722627737225" type="curve" smooth="yes"/>
      <point x="1002.6172643605204" y="-20.273722627737225"/>
      <point x="1089.4370834655665" y="43.03102189781023"/>
      <point x="1135.6743097429387" y="106.09766740717231" type="curve"/>
      <point x="1108.1505871152015" y="155.24817518248173" type="line"/>
      <point x="1066.4546175817202" y="117.68748016502697"/>
      <point x="1039.2474611234525" y="101.77530942557917"/>
      <point x="1014.1478895588702" y="101.77530942557917" type="curve" smooth="yes"/>
      <point x="981.153443351317" y="101.77530942557917"/>
      <point x="965.3672643605204" y="124.21564582672167"/>
    </contour>
    <contour>
      <point x="882.6435258648048" y="973.6624087591242" type="curve"/>
      <point x="779.5205490320534" y="284.80030149159" type="line"/>
      <point x="727.8289431926372" y="199.047921294827"/>
      <point x="609.0772770549032" y="103.61163122818152"/>
      <point x="472.11107584893676" y="103.61163122818152" type="curve" smooth="yes"/>
      <point x="361.63035544271656" y="103.61163122818152"/>
      <point x="270.6389241510632" y="198.78673437004124"/>
      <point x="270.6389241510632" y="393.48198984449385" type="curve" smooth="yes"/>
      <point x="270.6389241510632" y="714.3382259600127"/>
      <point x="445.3974928594097" y="1020.6221040939384"/>
      <point x="724.662329419232" y="1020.6221040939384" type="curve" smooth="yes"/>
      <point x="794.4030466518565" y="1020.6221040939384"/>
      <point x="841.9934941288479" y="1005.7359568390989"/>
    </contour>
  </outline>
</glyph>
<glyph name="e" format="2">
  <advance width="1050.8098222786416"/>
  <unicode hex="0065"/>
  <anchor x="482.3095049190733" y="0.0" name="bottom"/>
  <anchor x="585.2560298317994" y="0.0" name="ogonek"/>
  <anchor x="661.1167883211677" y="1108.5245953665503" name="top"/>
  <outline>
    <contour>
      <point x="942.652570612504" y="190.45279276420186" type="curve"/>
      <point x="902.3500476039352" y="258.66708981275775" type="line"/>
      <point x="808.9042367502382" y="160.87741986670895"/>
      <point x="677.7746747064424" y="98.16137734052683"/>
      <point x="550.4050301491591" y="98.16137734052683" type="curve" smooth="yes"/>
      <point x="351.4093938432244" y="98.16137734052683"/>
      <point x="262.4810377657886" y="250.50523643287838"/>
      <point x="276.7265153919391" y="453.75325293557603" type="curve"/>
      <point x="653.4109806410662" y="464.04720723579817"/>
      <point x="1012.3033957473817" y="618.8323548079975"/>
      <point x="1012.3033957473817" y="886.227150111076" type="curve" smooth="yes"/>
      <point x="1012.3033957473817" y="1016.3172008886069"/>
      <point x="916.0504601713741" y="1120.788162488099"/>
      <point x="695.736194858775" y="1120.788162488099" type="curve" smooth="yes"/>
      <point x="314.98611551888297" y="1120.788162488099"/>
      <point x="49.81680418914629" y="809.6052046969215"/>
      <point x="49.81680418914629" y="413.47127895906067" type="curve" smooth="yes"/>
      <point x="49.81680418914629" y="193.15391939066964"/>
      <point x="164.81180577594412" y="-22.300936210726753"/>
      <point x="477.1012377023167" y="-22.300936210726753" type="curve" smooth="yes"/>
      <point x="688.687559504919" y="-22.300936210726753"/>
      <point x="851.7020787051729" y="75.0354649317677"/>
    </contour>
    <contour>
      <point x="651.820612503967" y="1025.2454776261504" type="curve" smooth="yes"/>
      <point x="732.9613614725483" y="1025.2454776261504"/>
      <point x="799.9227229450969" y="980.298873373532"/>
      <point x="799.9227229450969" y="879.2907013646462" type="curve" smooth="yes"/>
      <point x="799.9227229450969" y="680.846635988575"/>
      <point x="525.3961440812441" y="547.3933671850208"/>
      <point x="280.40614090764836" y="534.9665185655347" type="curve"/>
      <point x="299.2384163757538" y="754.4032846715328"/>
      <point x="428.14431926372583" y="1025.2454776261504"/>
    </contour>
  </outline>
</glyph>
<glyph name="f" format="2">
  <advance width="714.5089654078071"/>
  <unicode hex="0066"/>
  <anchor x="220.69930180894954" y="1364.2265947318313" name="top"/>
  <outline>
    <contour>
      <point x="284.4759600126944" y="1200.6837511900983" type="curve" smooth="yes"/>
      <point x="268.1219454141542" y="1089.4119327197714" type="line"/>
      <point x="96.83203744842906" y="1035.065931450333" type="line"/>
      <point x="83.80299904792129" y="968.5279276420183" type="line"/>
      <point x="247.46477308790864" y="968.5279276420183" type="line"/>
      <point x="115.6054427165979" y="-56.980958425896546" type="line" smooth="yes"/>
      <point x="82.91558235480798" y="-307.0149158997144"/>
      <point x="32.9823865439543" y="-387.77277054903203"/>
      <point x="-62.35330053951127" y="-387.77277054903203" type="curve" smooth="yes"/>
      <point x="-113.08568708346559" y="-387.77277054903203"/>
      <point x="-183.20969533481437" y="-359.85536337670584"/>
      <point x="-228.00372897492858" y="-338.0338781339258" type="curve"/>
      <point x="-274.88590923516347" y="-480.29784195493494" type="line"/>
      <point x="-238.48611551888294" y="-492.39939701682005"/>
      <point x="-175.819819105046" y="-503.4224849254205"/>
      <point x="-105.83497302443669" y="-503.4224849254205" type="curve" smooth="yes"/>
      <point x="149.69144715963185" y="-503.4224849254205"/>
      <point x="291.470723579816" y="-292.60456997778476"/>
      <point x="332.847350047604" y="30.958108536972382" type="curve" smooth="yes"/>
      <point x="454.2574579498572" y="968.5279276420183" type="line"/>
      <point x="726.1447953030784" y="968.5279276420183" type="line"/>
      <point x="743.1116312281816" y="1092.6345604569979" type="line"/>
      <point x="470.02919708029196" y="1092.6345604569979" type="line"/>
      <point x="489.54911139320853" y="1238.8933671850207" type="line" smooth="yes"/>
      <point x="512.5815614090765" y="1414.2879244684227"/>
      <point x="567.50983814662" y="1515.544509679467"/>
      <point x="692.056093303713" y="1515.544509679467" type="curve" smooth="yes"/>
      <point x="765.8060933037132" y="1515.544509679467"/>
      <point x="829.7238971754999" y="1473.7454776261504"/>
      <point x="856.9509679466835" y="1445.285702951444" type="curve"/>
      <point x="908.7061250396699" y="1592.9093145033323" type="line"/>
      <point x="857.8247381783561" y="1614.3448905109487"/>
      <point x="807.2140590288797" y="1629.8850364963503"/>
      <point x="717.3598857505553" y="1629.8850364963503" type="curve" smooth="yes"/>
      <point x="479.7431767692796" y="1629.8850364963503"/>
      <point x="320.7198508410029" y="1446.1730403046652"/>
    </contour>
  </outline>
</glyph>
<glyph name="g" format="2">
  <advance width="1170.8286258330688"/>
  <unicode hex="0067"/>
  <anchor x="502.4404157410346" y="0.0" name="bottom"/>
  <anchor x="761.1018673437004" y="580.0" name="tbar"/>
  <anchor x="707.8620279276419" y="1109.2608695652175" name="top"/>
  <outline>
    <contour>
      <point x="934.9088384639797" y="-53.47445255474453" type="curve" smooth="yes"/>
      <point x="1110.7657092986353" y="1116.1715328467155" type="line"/>
      <point x="983.1858933671851" y="1073.145192002539" type="line"/>
      <point x="925.3827356394796" y="1097.2792764201843"/>
      <point x="832.9866708981276" y="1118.1605839416059"/>
      <point x="729.9678673437005" y="1118.1605839416059" type="curve" smooth="yes"/>
      <point x="280.38099016185333" y="1118.1605839416059"/>
      <point x="44.585845763249765" y="723.7775309425579"/>
      <point x="44.585845763249765" y="385.6433671850207" type="curve" smooth="yes"/>
      <point x="44.585845763249765" y="158.64598540145985"/>
      <point x="167.35218978102188" y="-20.273722627737225"/>
      <point x="411.5723579815932" y="-20.273722627737225" type="curve" smooth="yes"/>
      <point x="553.3113297365916" y="-20.273722627737225"/>
      <point x="680.5675975880672" y="56.40693430656935"/>
      <point x="758.2366708981276" y="154.97675341161536" type="curve"/>
      <point x="719.9604093938431" y="-98.51221834338305" type="line" smooth="yes"/>
      <point x="687.4183592510316" y="-317.8015709298636"/>
      <point x="602.7542050142811" y="-379.30196762932405"/>
      <point x="450.39098698825774" y="-379.30196762932405" type="curve" smooth="yes"/>
      <point x="329.5617264360521" y="-379.30196762932405"/>
      <point x="211.47754681053635" y="-334.65931450333227"/>
      <point x="133.18160901301172" y="-277.05046017137414" type="curve"/>
      <point x="83.00158679784195" y="-441.88329101872426" type="line"/>
      <point x="152.51570929863536" y="-472.8943192637258"/>
      <point x="259.34846080609327" y="-499.44827039035226"/>
      <point x="399.4600126943828" y="-499.44827039035226" type="curve" smooth="yes"/>
      <point x="643.0343541732784" y="-499.44827039035226"/>
      <point x="884.3413202158044" y="-389.99603300539513"/>
    </contour>
    <contour>
      <point x="881.1143287845128" y="974.7408759124088" type="curve"/>
      <point x="779.2407965725167" y="289.20874325610913" type="line"/>
      <point x="715.1216280545858" y="186.349809584259"/>
      <point x="592.2564265312598" y="103.61163122818152"/>
      <point x="478.67756267851473" y="103.61163122818152" type="curve" smooth="yes"/>
      <point x="336.684227229451" y="103.61163122818152"/>
      <point x="268.7538876547128" y="212.29212948270393"/>
      <point x="268.7538876547128" y="403.28102189781026" type="curve" smooth="yes"/>
      <point x="268.7538876547128" y="665.5295144398605"/>
      <point x="411.6424944462076" y="1020.1622500793399"/>
      <point x="723.5012694382737" y="1020.1622500793399" type="curve" smooth="yes"/>
      <point x="793.5996509044749" y="1020.1622500793399"/>
      <point x="847.5244366867661" y="1004.0922722945097"/>
    </contour>
  </outline>
</glyph>
<glyph name="h" format="2">
  <advance width="1225.838384639797"/>
  <unicode hex="0068"/>
  <anchor x="561.6166296413836" y="0.0" name="bottom"/>
  <anchor x="1049.012218343383" y="0.0" name="bottomright"/>
  <anchor x="213.48746429704858" y="1814.0" name="cap"/>
  <anchor x="353.3140756902571" y="1292.0" name="tbar"/>
  <anchor x="387.8112503966995" y="1543.0326086956522" name="top"/>
  <outline>
    <contour>
      <point x="393.5648206918439" y="830.5540304665187" type="curve"/>
      <point x="508.3618692478578" y="1609.500079339892" type="line"/>
      <point x="462.66875595049186" y="1634.0" type="line"/>
      <point x="167.05656934306572" y="1596.498333862266" type="line"/>
      <point x="150.9767534116154" y="1532.8106156775625" type="line"/>
      <point x="283.08148206918435" y="1497.8842430974294" type="line"/>
      <point x="61.100126943827355" y="0.0" type="line"/>
      <point x="270.03252935576006" y="0.0" type="line"/>
      <point x="371.572278641701" y="683.3717867343702" type="line"/>
      <point x="460.0771977150111" y="838.06013963821"/>
      <point x="628.8118851158363" y="973.8972548397334"/>
      <point x="759.0332434147889" y="973.8972548397334" type="curve" smooth="yes"/>
      <point x="847.4147096159951" y="973.8972548397334"/>
      <point x="893.6221834338304" y="943.1895430022216"/>
      <point x="893.6221834338304" y="818.8753570295144" type="curve" smooth="yes"/>
      <point x="893.6221834338304" y="723.6012377023168"/>
      <point x="871.9579498571883" y="598.2300063471913"/>
      <point x="853.2100920342748" y="497.49032053316404" type="curve" smooth="yes"/>
      <point x="824.5891780387178" y="345.6923198984449"/>
      <point x="789.186607426214" y="165.2021580450651"/>
      <point x="789.186607426214" y="102.42311964455729" type="curve" smooth="yes"/>
      <point x="789.186607426214" y="26.086877181847033"/>
      <point x="829.2895906061568" y="-20.326642335766422"/>
      <point x="923.1828784512852" y="-20.326642335766422" type="curve" smooth="yes"/>
      <point x="1054.1067121548715" y="-20.326642335766422"/>
      <point x="1144.5376071088544" y="71.25872738813075"/>
      <point x="1166.493652808632" y="102.79371628054587" type="curve"/>
      <point x="1141.3965407807045" y="152.52316724849257" type="line"/>
      <point x="1098.2990320533163" y="115.87987940336401"/>
      <point x="1071.8422722945097" y="102.00523643287845"/>
      <point x="1046.533322754681" y="102.00523643287845" type="curve" smooth="yes"/>
      <point x="1027.5762456363059" y="102.00523643287845"/>
      <point x="1013.3373532211996" y="114.92510314185974"/>
      <point x="1013.3373532211996" y="154.48278324341481" type="curve" smooth="yes"/>
      <point x="1013.8136305934623" y="220.6149635036496"/>
      <point x="1046.9361313868615" y="397.66970802919707"/>
      <point x="1063.3895588702" y="484.61298000634724" type="curve" smooth="yes"/>
      <point x="1085.2542050142815" y="603.1446366232941"/>
      <point x="1115.052046969216" y="766.2953030783879"/>
      <point x="1115.052046969216" y="852.0430815614089" type="curve" smooth="yes"/>
      <point x="1115.052046969216" y="1044.3144239923834"/>
      <point x="1012.4376388448111" y="1118.3722627737227"/>
      <point x="863.4045541098064" y="1118.3722627737227" type="curve" smooth="yes"/>
      <point x="674.0159473183116" y="1118.3722627737227"/>
      <point x="496.9169311329736" y="987.7098540145986"/>
    </contour>
  </outline>
</glyph>
<glyph name="k" format="2">
  <advance width="1103.8607584893684"/>
  <unicode hex="006B"/>
  <anchor x="470.0790225325294" y="0.0" name="bottom"/>
  <anchor x="353.79035306251984" y="1292.0" name="tbar"/>
  <anchor x="725.9930180894954" y="1468.8478260869565" name="top"/>
  <outline>
    <contour>
      <point x="61.576404316090134" y="0.0" type="line"/>
      <point x="270.3938432243732" y="0.0" type="line"/>
      <point x="508.7323072040621" y="1609.500079339892" type="line"/>
      <point x="463.03919390669625" y="1634.0" type="line"/>
      <point x="167.05656934306572" y="1596.498333862266" type="line"/>
      <point x="150.9767534116154" y="1532.8106156775625" type="line"/>
      <point x="283.39900031735954" y="1497.8842430974294" type="line"/>
    </contour>
    <contour>
      <point x="844.2415899714374" y="-19.749127261186924" type="curve" smooth="yes"/>
      <point x="954.7065217391304" y="-19.749127261186924"/>
      <point x="1040.5107108854331" y="52.13797207235798"/>
      <point x="1084.7872104093938" y="113.92867343700414" type="curve"/>
      <point x="1057.170501428118" y="162.26943827356394" type="line"/>
      <point x="1014.0692637258013" y="121.64281180577595"/>
      <point x="982.8417962551571" y="110.90384005077753"/>
      <point x="956.5782291336084" y="110.90384005077753" type="curve" smooth="yes"/>
      <point x="925.7940336401143" y="110.90384005077753"/>
      <point x="905.5449063789273" y="130.09052681688354"/>
      <point x="855.4421612186608" y="201.96778800380827" type="curve" smooth="yes"/>
      <point x="548.8548873373534" y="648.1313868613139" type="line"/>
      <point x="509.6221040939384" y="582.6707394477944" type="line"/>
      <point x="641.1048079974612" y="643.5679942875277"/>
      <point x="893.9388289431928" y="769.2730085687084"/>
      <point x="989.3917010472865" y="878.1773246588384" type="curve" smooth="yes"/>
      <point x="1028.889479530308" y="920.1172643605204"/>
      <point x="1046.7993494128852" y="967.0769596953348"/>
      <point x="1046.7993494128852" y="1013.153364011425" type="curve" smooth="yes"/>
      <point x="1046.7993494128852" y="1068.5412567438907"/>
      <point x="1005.1802602348461" y="1112.0777530942557"/>
      <point x="939.5843383053" y="1112.0777530942557" type="curve" smooth="yes"/>
      <point x="878.7390510948906" y="1112.0777530942557"/>
      <point x="829.1263884481117" y="1073.6335290384006"/>
      <point x="821.1550301491592" y="1003.8312440495081" type="curve" smooth="yes"/>
      <point x="815.6175817200889" y="951.9527134243096"/>
      <point x="807.9903205331641" y="905.7462710250713"/>
      <point x="759.4359727070771" y="846.2953030783879" type="curve" smooth="yes"/>
      <point x="684.2503173595685" y="754.2956204379562"/>
      <point x="509.2912567438908" y="661.8292605522057"/>
      <point x="372.3829736591558" y="585.5565693430657" type="curve"/>
      <point x="669.1806569343065" y="105.02562678514757" type="line" smooth="yes"/>
      <point x="719.0434782608694" y="15.67486512218343"/>
      <point x="754.559901618534" y="-19.749127261186924"/>
    </contour>
  </outline>
</glyph>
<glyph name="l" format="2">
  <advance width="547.1539987305617"/>
  <unicode hex="006C"/>
  <anchor x="234.32227864170102" y="0.0" name="bottom"/>
  <anchor x="620.1912884798476" y="1618.2941923198985" name="caron"/>
  <anchor x="403.18787686448746" y="1567.2836401142495" name="top"/>
  <outline>
    <contour>
      <point x="306.93065693430657" y="163.7174706442399" type="curve" smooth="yes"/>
      <point x="521.7378609965091" y="1609.500079339892" type="line"/>
      <point x="476.6145668041891" y="1634.0" type="line"/>
      <point x="181.64971437638843" y="1596.498333862266" type="line"/>
      <point x="165.56989844493808" y="1532.8106156775625" type="line"/>
      <point x="296.40455410980644" y="1497.8842430974294" type="line"/>
      <point x="101.97588067280229" y="189.53030783878134" type="line" smooth="yes"/>
      <point x="97.71770866391623" y="161.53427483338623"/>
      <point x="90.86107584893685" y="113.19025706125039"/>
      <point x="90.86107584893685" y="98.19438273563946" type="curve" smooth="yes"/>
      <point x="90.86107584893685" y="18.306648682957793"/>
      <point x="140.89066962868932" y="-20.326642335766422"/>
      <point x="225.8936052046969" y="-20.326642335766422" type="curve" smooth="yes"/>
      <point x="354.10560139638216" y="-20.326642335766422"/>
      <point x="443.0979054268487" y="69.15431609013012"/>
      <point x="468.0822754681053" y="107.06942240558553" type="curve"/>
      <point x="442.645271342431" y="155.59719136781973" type="line"/>
      <point x="394.9026499523961" y="108.80315772770551"/>
      <point x="366.1122659473183" y="101.72238971754997"/>
      <point x="341.39907965725166" y="101.72238971754997" type="curve" smooth="yes"/>
      <point x="316.2423040304665" y="101.72238971754997"/>
      <point x="300.4224849254205" y="114.5280069819105"/>
    </contour>
  </outline>
</glyph>
<glyph name="m" format="2">
  <advance width="1896.6529673119644"/>
  <unicode hex="006D"/>
  <anchor x="875.8951920025388" y="0.0" name="bottom"/>
  <anchor x="1729.6635988575051" y="0.0" name="bottomright"/>
  <anchor x="1036.615994922247" y="1110.0" name="top"/>
  <outline>
    <contour>
      <point x="430.69192319898445" y="1095.6278165661695" type="line"/>
      <point x="387.6734370041257" y="1117.682481751825" type="line"/>
      <point x="113.66740717232625" y="1070.5480799746113" type="line"/>
      <point x="100.19890510948906" y="1003.1222627737227" type="line"/>
      <point x="207.59703268803554" y="955.6462234211363" type="line"/>
      <point x="74.61202792764202" y="0.0" type="line"/>
      <point x="284.1991431291654" y="0.0" type="line"/>
      <point x="381.0061885115836" y="684.2039035226913" type="line"/>
      <point x="483.36091716915263" y="852.8264836559823"/>
      <point x="646.7936369406538" y="973.8972548397334"/>
      <point x="753.7565852110441" y="973.8972548397334" type="curve" smooth="yes"/>
      <point x="837.0482386543953" y="973.8972548397334"/>
      <point x="867.8566328149794" y="941.4439066962868"/>
      <point x="867.8566328149794" y="815.0517296096477" type="curve" smooth="yes"/>
      <point x="867.8566328149794" y="748.0249920660109"/>
      <point x="854.4320057124723" y="642.0313392573787"/>
      <point x="827.5593462392891" y="444.2269914312917" type="curve" smooth="yes"/>
      <point x="766.6267851475723" y="0.0" type="line"/>
      <point x="976.2591240875913" y="0.0" type="line"/>
      <point x="1044.9762773722625" y="491.01094890510944" type="line" smooth="yes"/>
      <point x="1057.150983814662" y="578.5491113932084"/>
      <point x="1070.0433989209776" y="686.1007616629641"/>
      <point x="1074.9130434782608" y="769.0310218978102" type="curve"/>
      <point x="1025.729847667407" y="619.2526182164393" type="line"/>
      <point x="1118.7632497619804" y="805.52118375119"/>
      <point x="1311.0698191050458" y="973.5897334179625"/>
      <point x="1444.9759600126943" y="973.5897334179625" type="curve" smooth="yes"/>
      <point x="1520.8338622659473" y="973.5897334179625"/>
      <point x="1564.3166455093622" y="932.1951761345604"/>
      <point x="1564.3166455093622" y="829.2158045065057" type="curve" smooth="yes"/>
      <point x="1564.3166455093622" y="725.582037448429"/>
      <point x="1544.2958584576324" y="606.7953824182798"/>
      <point x="1516.1984290701366" y="459.5295144398604" type="curve" smooth="yes"/>
      <point x="1490.599809584259" y="325.12456363059346"/>
      <point x="1459.8281497937162" y="152.14733417962552"/>
      <point x="1459.8281497937162" y="103.56275785464932" type="curve" smooth="yes"/>
      <point x="1459.8281497937162" y="28.935972707077113"/>
      <point x="1495.3786099650904" y="-20.326642335766422"/>
      <point x="1599.4979371628056" y="-20.326642335766422" type="curve" smooth="yes"/>
      <point x="1708.8562361155189" y="-20.326642335766422"/>
      <point x="1803.5433989209773" y="56.67589654078071"/>
      <point x="1837.3082354808" y="102.79371628054587" type="curve"/>
      <point x="1812.2111234528722" y="152.52316724849257" type="line"/>
      <point x="1768.4662012059664" y="116.22476991431292"/>
      <point x="1739.8648048238658" y="102.00523643287845"/>
      <point x="1714.5558552840369" y="102.00523643287845" type="curve" smooth="yes"/>
      <point x="1694.1594731831162" y="102.00523643287845"/>
      <point x="1684.261900983815" y="120.88559187559504"/>
      <point x="1684.261900983815" y="158.68859092351633" type="curve" smooth="yes"/>
      <point x="1684.7381783560777" y="222.56505871152018"/>
      <point x="1714.3888448111709" y="383.45660107902256"/>
      <point x="1728.615915582355" y="461.2503966994604" type="curve" smooth="yes"/>
      <point x="1752.7675341161535" y="586.0500634719137"/>
      <point x="1783.7593621072676" y="748.7773722627736"/>
      <point x="1783.7593621072676" y="843.6247223103776" type="curve" smooth="yes"/>
      <point x="1783.7593621072676" y="1030.121866074262"/>
      <point x="1680.0843383053" y="1118.3722627737227"/>
      <point x="1535.8843224373213" y="1118.3722627737227" type="curve" smooth="yes"/>
      <point x="1342.7219136781973" y="1118.3722627737227"/>
      <point x="1150.5480799746113" y="965.6890669628689"/>
      <point x="1038.674389082831" y="771.0022215169788" type="curve"/>
      <point x="1072.016185337988" y="751.3450491907331" type="line"/>
      <point x="1075.8541732783242" y="784.1255950491906"/>
      <point x="1078.8249761980323" y="817.3578229133609"/>
      <point x="1078.7214376388447" y="844.7525388765472" type="curve" smooth="yes"/>
      <point x="1078.1531259917485" y="1036.323151380514"/>
      <point x="997.9663598857505" y="1118.3722627737227"/>
      <point x="852.3779752459537" y="1118.3722627737227" type="curve" smooth="yes"/>
      <point x="688.1658997143766" y="1118.3722627737227"/>
      <point x="516.2294509679466" y="997.1466994604888"/>
      <point x="399.94168517930814" y="831.6858140272931" type="curve"/>
    </contour>
  </outline>
</glyph>
<glyph name="n" format="2">
  <advance width="1234.5861631228183"/>
  <unicode hex="006E"/>
  <anchor x="556.5830688670262" y="0.0" name="bottom"/>
  <anchor x="1064.8563154554108" y="0.0" name="bottomright"/>
  <anchor x="664.9787369089177" y="1110.0" name="top"/>
  <outline>
    <contour>
      <point x="399.73000634719136" y="831.115994922247" type="curve"/>
      <point x="430.795461758172" y="1095.6278165661695" type="line"/>
      <point x="388.40883846397963" y="1117.682481751825" type="line"/>
      <point x="113.66740717232624" y="1070.5480799746113" type="line"/>
      <point x="100.19890510948906" y="1003.1222627737227" type="line"/>
      <point x="207.59703268803554" y="955.6462234211363" type="line"/>
      <point x="74.98928911456682" y="0.0" type="line"/>
      <point x="284.62702316724847" y="0.0" type="line"/>
      <point x="380.79450967946684" y="683.3717867343702" type="line"/>
      <point x="468.1597905426849" y="837.9451761345604"/>
      <point x="633.8652015233259" y="973.8972548397334"/>
      <point x="763.8566328149794" y="973.8972548397334" type="curve" smooth="yes"/>
      <point x="850.4236750238019" y="973.8972548397334"/>
      <point x="902.1641542367502" y="943.1895430022216"/>
      <point x="902.1641542367502" y="818.3005395112662" type="curve" smooth="yes"/>
      <point x="902.1641542367502" y="723.6012377023168"/>
      <point x="881.0697397651539" y="598.2300063471913"/>
      <point x="861.7520628371944" y="497.490320533164" type="curve" smooth="yes"/>
      <point x="832.5613297365916" y="345.69231989844496"/>
      <point x="797.7285782291335" y="165.20215804506506"/>
      <point x="797.7285782291335" y="102.42311964455729" type="curve" smooth="yes"/>
      <point x="797.7285782291335" y="26.086877181847033"/>
      <point x="837.946524912726" y="-20.326642335766422"/>
      <point x="933.4471596318629" y="-20.326642335766422" type="curve" smooth="yes"/>
      <point x="1062.3801174230405" y="-20.326642335766422"/>
      <point x="1153.0554585845764" y="71.25872738813075"/>
      <point x="1175.2414312916535" y="102.79371628054587" type="curve"/>
      <point x="1150.144319263726" y="152.52316724849257" type="line"/>
      <point x="1107.3867026340847" y="115.87987940336403"/>
      <point x="1077.7359568390987" y="102.00523643287845"/>
      <point x="1052.2796731196445" y="102.00523643287845" type="curve" smooth="yes"/>
      <point x="1033.2400031735958" y="102.00523643287845"/>
      <point x="1021.9651697873691" y="117.77419866708982"/>
      <point x="1021.9651697873691" y="157.33187876864486" type="curve" smooth="yes"/>
      <point x="1022.4414471596319" y="220.92010472865755"/>
      <point x="1054.7642018406852" y="397.43978102189783"/>
      <point x="1070.6478102189778" y="484.61298000634724" type="curve" smooth="yes"/>
      <point x="1092.5124563630595" y="603.1446366232941"/>
      <point x="1121.7404792129482" y="758.8876547127895"/>
      <point x="1121.7404792129482" y="844.635433195811" type="curve" smooth="yes"/>
      <point x="1121.7404792129482" y="1036.906775626785"/>
      <point x="1013.0879879403363" y="1118.3722627737227"/>
      <point x="866.8633767058077" y="1118.3722627737227" type="curve" smooth="yes"/>
      <point x="679.0045223738493" y="1118.3722627737227"/>
      <point x="504.7915741034592" y="985.9925420501429"/>
    </contour>
  </outline>
</glyph>
<glyph name="o" format="2">
  <advance width="1174.8471120279276"/>
  <unicode hex="006F"/>
  <anchor x="508.29617581720095" y="-9.880434782608697" name="bottom"/>
  <anchor x="586.1792288162488" y="549.0000793398922" name="center"/>
  <anchor x="636.1733576642335" y="18.94160583941606" name="ogonek"/>
  <anchor x="668.3119644557283" y="1110.0" name="top"/>
  <anchor x="838.1790701364647" y="1092.3722627737227" name="topright"/>
  <outline>
    <contour>
      <point x="677.2727705490322" y="1119.1614566804192" type="curve" smooth="yes"/>
      <point x="312.84822278641695" y="1119.1614566804192"/>
      <point x="49.749761980323704" y="806.4193113297365"/>
      <point x="49.749761980323704" y="433.5438749603301" type="curve" smooth="yes"/>
      <point x="49.749761980323704" y="141.49238337035865"/>
      <point x="234.61908917803868" y="-22.52173913043478"/>
      <point x="498.4786575690257" y="-22.52173913043478" type="curve" smooth="yes"/>
      <point x="861.1261504284353" y="-22.52173913043478"/>
      <point x="1124.695414154237" y="288.6199619168518"/>
      <point x="1124.695414154237" y="656.2680101555061" type="curve" smooth="yes"/>
      <point x="1124.695414154237" y="951.5673595683909"/>
      <point x="944.9576324976199" y="1119.1614566804192"/>
    </contour>
    <contour>
      <point x="657.524278006982" y="1021.6816883529038" type="curve" smooth="yes"/>
      <point x="794.3877340526817" y="1021.6816883529038"/>
      <point x="895.7968898762298" y="903.6205172960965"/>
      <point x="895.7968898762298" y="678.5656140907648" type="curve" smooth="yes"/>
      <point x="895.7968898762298" y="377.35814027292935"/>
      <point x="752.3784512853063" y="74.38821009203429"/>
      <point x="522.5363376705807" y="74.38821009203429" type="curve" smooth="yes"/>
      <point x="383.6389241510631" y="74.38821009203429"/>
      <point x="278.6482862583307" y="192.06609013011743"/>
      <point x="278.6482862583307" y="416.32172326245643" type="curve" smooth="yes"/>
      <point x="278.6482862583307" y="719.2724531894638"/>
      <point x="421.1196445572835" y="1021.6816883529038"/>
    </contour>
  </outline>
</glyph>
<glyph name="p" format="2">
  <advance width="1186.9508886067913"/>
  <unicode hex="0070"/>
  <anchor x="713.8957473817835" y="92.0" name="tick"/>
  <anchor x="680.6263884481118" y="1110.0" name="top"/>
  <outline>
    <contour>
      <point x="5.344731831164709" y="-507.77007299270076" type="line"/>
      <point x="213.72016820057124" y="-507.77007299270076" type="line"/>
      <point x="283.9897651539194" y="-1.4194700095207868" type="line"/>
      <point x="326.2592034274833" y="-12.337035861631227"/>
      <point x="384.4869089178038" y="-20.359013011742306"/>
      <point x="456.39836559822277" y="-20.359013011742306" type="curve" smooth="yes"/>
      <point x="893.0998095842591" y="-20.359013011742306"/>
      <point x="1136.8270390352268" y="368.71754998413206"/>
      <point x="1136.8270390352268" y="717.3133925737861" type="curve" smooth="yes"/>
      <point x="1136.8270390352268" y="953.7703903522691"/>
      <point x="1014.4639796889876" y="1118.7906220247544"/>
      <point x="778.1456680418914" y="1118.7906220247544" type="curve" smooth="yes"/>
      <point x="626.9604887337354" y="1118.7906220247544"/>
      <point x="494.6320215804506" y="1032.718422722945"/>
      <point x="409.98095842589646" y="924.9843700412569" type="curve"/>
      <point x="431.1129800063472" y="1095.6278165661695" type="line"/>
      <point x="388.6643129165344" y="1117.682481751825" type="line"/>
      <point x="114.143684544589" y="1070.5480799746113" type="line"/>
      <point x="101.24500158679785" y="1003.1222627737227" type="line"/>
      <point x="208.54958743256108" y="955.6462234211363" type="line"/>
    </contour>
    <contour>
      <point x="301.2821326562996" y="118.44097112027927" type="curve"/>
      <point x="399.4653284671533" y="807.7222310377657" type="line"/>
      <point x="479.43303713106945" y="921.1797048556015"/>
      <point x="593.260552205649" y="994.3883687718185"/>
      <point x="710.020390352269" y="994.3883687718185" type="curve" smooth="yes"/>
      <point x="853.7403998730562" y="994.3883687718185"/>
      <point x="912.2908600444304" y="879.4174071723262"/>
      <point x="912.2908600444304" y="714.7354014598541" type="curve" smooth="yes"/>
      <point x="912.2908600444304" y="415.98056172643606"/>
      <point x="761.9506505871153" y="78.06267851475722"/>
      <point x="455.90994922246904" y="78.06267851475722" type="curve" smooth="yes"/>
      <point x="395.3738495715645" y="78.06267851475722"/>
      <point x="337.4120120596636" y="90.3237860996509"/>
    </contour>
  </outline>
</glyph>
<glyph name="q" format="2">
  <advance width="1173.2492066010789"/>
  <unicode hex="0071"/>
  <anchor x="468.9989685814027" y="1580.0" name="cr"/>
  <anchor x="677.6624880990161" y="1219.7554744525548" name="top"/>
  <outline>
    <contour>
      <point x="895.7027134243099" y="-328.7762615042844" type="curve" smooth="yes"/>
      <point x="1112.2698349730242" y="1116.1715328467155" type="line"/>
      <point x="983.5362583306887" y="1073.145192002539" type="line"/>
      <point x="923.8696445572833" y="1097.7715011107587"/>
      <point x="835.3552046969216" y="1118.160583941606"/>
      <point x="728.7791177403999" y="1118.160583941606" type="curve" smooth="yes"/>
      <point x="287.7423040304665" y="1118.160583941606"/>
      <point x="44.323548079974614" y="735.0130117423041"/>
      <point x="44.323548079974614" y="385.39892097746747" type="curve" smooth="yes"/>
      <point x="44.323548079974614" y="159.724849254205"/>
      <point x="166.5561726436052" y="-20.273722627737225"/>
      <point x="410.58148206918446" y="-20.273722627737225" type="curve" smooth="yes"/>
      <point x="547.5649000317359" y="-20.273722627737225"/>
      <point x="679.6917645192001" y="51.51658203744843"/>
      <point x="759.4154236750238" y="154.2919708029197" type="curve"/>
      <point x="682.0508568708347" y="-365.18938432243726" type="line" smooth="yes"/>
      <point x="668.5677562678516" y="-456.17851475721994"/>
      <point x="709.9271659790543" y="-510.2939543002221"/>
      <point x="809.0296731196445" y="-510.2939543002221" type="curve" smooth="yes"/>
      <point x="952.0206283719455" y="-510.2939543002221"/>
      <point x="1040.0814027292922" y="-409.760552205649"/>
      <point x="1062.90883846398" y="-377.86789907965726" type="curve"/>
      <point x="1037.3039511266265" y="-325.155030149159" type="line"/>
      <point x="996.7478578229131" y="-364.96675658521104"/>
      <point x="959.2557124722312" y="-386.9282767375436"/>
      <point x="930.4690574420819" y="-386.9282767375436" type="curve" smooth="yes"/>
      <point x="904.9222469057443" y="-386.9282767375436"/>
      <point x="890.4819105046017" y="-365.3994763567121"/>
    </contour>
    <contour>
      <point x="881.6458267216757" y="974.5821167883212" type="curve"/>
      <point x="780.7776896223421" y="289.78768644874646" type="line"/>
      <point x="719.5373690891779" y="187.3350523643288"/>
      <point x="593.853855918756" y="103.34933354490637"/>
      <point x="474.98087908600445" y="103.34933354490637" type="curve" smooth="yes"/>
      <point x="341.0712472231038" y="103.34933354490637"/>
      <point x="268.49158997143763" y="213.88638527451604"/>
      <point x="268.49158997143763" y="392.00245953665507" type="curve" smooth="yes"/>
      <point x="268.49158997143763" y="664.1874801650268"/>
      <point x="409.7364328784513" y="1019.9505712472233"/>
      <point x="724.3972548397336" y="1019.950571247223" type="curve" smooth="yes"/>
      <point x="791.9664392256426" y="1019.950571247223"/>
      <point x="845.4360520469692" y="1006.2998254522374"/>
    </contour>
  </outline>
</glyph>
<glyph name="r" format="2">
  <advance width="832.4389876229768"/>
  <unicode hex="0072"/>
  <anchor x="183.7466677245319" y="0.0" name="bottom"/>
  <anchor x="478.64884163757534" y="1110.0" name="top"/>
  <outline>
    <contour>
      <point x="382.22492859409715" y="810.1776420184069" type="curve"/>
      <point x="395.0042050142811" y="928.0215804506506" type="line"/>
      <point x="412.84068549666773" y="1095.6278165661697" type="line"/>
      <point x="370.71635988575053" y="1117.682481751825" type="line"/>
      <point x="113.93200571247222" y="1070.5480799746113" type="line"/>
      <point x="100.46350364963504" y="1003.1222627737227" type="line"/>
      <point x="207.33243414788956" y="955.6462234211363" type="line"/>
      <point x="73.43771818470327" y="0.0" type="line"/>
      <point x="282.80403046651855" y="0.0" type="line"/>
      <point x="383.49555696604256" y="704.1020311012377" type="line"/>
      <point x="450.9877023167249" y="837.7751507457949"/>
      <point x="567.302046969216" y="903.5773563947953"/>
      <point x="682.5518882894318" y="903.5773563947953" type="curve" smooth="yes"/>
      <point x="726.1870041256744" y="903.5773563947953"/>
      <point x="768.2688035544272" y="893.8333862265948"/>
      <point x="800.2432561091716" y="874.2560298317994" type="curve"/>
      <point x="846.9374008251349" y="1094.3874166931134" type="line"/>
      <point x="823.8790860044431" y="1107.0761662964142"/>
      <point x="795.6632814979372" y="1116.7727705490322"/>
      <point x="743.4502538876546" y="1116.7727705490322" type="curve" smooth="yes"/>
      <point x="579.4880990161853" y="1116.7727705490322"/>
      <point x="443.78681370993337" y="951.7248492542049"/>
    </contour>
  </outline>
</glyph>
<glyph name="s" format="2">
  <advance width="882.0140431609013"/>
  <unicode hex="0073"/>
  <anchor x="354.92391304347825" y="0.0" name="bottom"/>
  <anchor x="539.3082354807999" y="1110.0" name="top"/>
  <outline>
    <contour>
      <point x="803.61686766106" y="913.3031577277055" type="line"/>
      <point x="839.8643287845128" y="1072.46897810219" type="line"/>
      <point x="775.8454458901936" y="1094.851237702317"/>
      <point x="687.4182799111394" y="1117.9721516978736"/>
      <point x="538.2740399873056" y="1117.9721516978736" type="curve" smooth="yes"/>
      <point x="306.09695334814353" y="1117.9721516978736"/>
      <point x="120.84552523008568" y="998.5273722627737"/>
      <point x="120.84552523008568" y="791.2684068549667" type="curve" smooth="yes"/>
      <point x="120.84552523008568" y="633.8456045699777"/>
      <point x="241.71421770866388" y="554.540542684862"/>
      <point x="376.52951443986035" y="469.77277054903215" type="curve" smooth="yes"/>
      <point x="487.29133608378294" y="400.4138368771819"/>
      <point x="578.6742304030465" y="337.49468422722947"/>
      <point x="578.6742304030465" y="249.69105046017134" type="curve" smooth="yes"/>
      <point x="578.6742304030465" y="120.93859092351634"/>
      <point x="446.0802126309108" y="75.27768962234211"/>
      <point x="353.82735639479523" y="75.27768962234211" type="curve" smooth="yes"/>
      <point x="218.13947953030782" y="75.27768962234211"/>
      <point x="103.63233894001905" y="153.8275944144716"/>
      <point x="54.37353221199619" y="216.2546017137417" type="curve"/>
      <point x="43.41637575372897" y="216.2546017137417" type="line"/>
      <point x="5.35702951443986" y="50.37258013329101" type="line"/>
      <point x="73.61797841954933" y="8.557283402094573"/>
      <point x="198.04649317676927" y="-22.36298000634719"/>
      <point x="350.7995874325611" y="-22.36298000634719" type="curve" smooth="yes"/>
      <point x="570.0332434147889" y="-22.36298000634719"/>
      <point x="780.6273405268169" y="92.46159949222469"/>
      <point x="780.6273405268169" y="314.0751348778166" type="curve" smooth="yes"/>
      <point x="780.6273405268169" y="463.0652967311965"/>
      <point x="665.7203268803555" y="542.3970961599492"/>
      <point x="515.8086321802604" y="638.1678038717866" type="curve" smooth="yes"/>
      <point x="409.8256109171691" y="705.8045858457632"/>
      <point x="316.25182481751824" y="767.3675817200888"/>
      <point x="316.25182481751824" y="861.6958901935893" type="curve" smooth="yes"/>
      <point x="316.25182481751824" y="978.5748175182482"/>
      <point x="444.15955252300864" y="1019.5522849888923"/>
      <point x="530.1815296731196" y="1019.5522849888923" type="curve" smooth="yes"/>
      <point x="648.379958743256" y="1019.5522849888923"/>
      <point x="749.1858140272931" y="966.6354331958108"/>
      <point x="789.9280387178675" y="913.3031577277055" type="curve"/>
    </contour>
  </outline>
</glyph>
<glyph name="t" format="2">
  <advance width="747.9289114566803"/>
  <unicode hex="0074"/>
  <anchor x="271.9822278641701" y="0.0" name="bottom"/>
  <anchor x="707.7420660107902" y="1295.5693430656934" name="car"/>
  <anchor x="651.5877499206601" y="1617.771897810219" name="caron"/>
  <anchor x="283.37953697238976" y="580.0" name="tbar"/>
  <anchor x="451.119327197715" y="1362.0" name="top"/>
  <outline>
    <contour>
      <point x="356.7565852110441" y="343.06140907648364" type="curve" smooth="yes"/>
      <point x="450.42978419549354" y="968.5279276420184" type="line"/>
      <point x="736.8838463979688" y="968.5279276420184" type="line"/>
      <point x="755.0108695652174" y="1092.3722627737227" type="line"/>
      <point x="469.3320374484291" y="1092.3722627737227" type="line"/>
      <point x="510.82283402094566" y="1369.0091240875913" type="line"/>
      <point x="398.88765471278964" y="1369.0091240875913" type="line"/>
      <point x="367.18676610599806" y="1281.657648365598"/>
      <point x="306.8948746429705" y="1138.1350364963505"/>
      <point x="262.45422088225956" y="1090.2181053633767" type="curve"/>
      <point x="97.44533481434466" y="1035.7557124722307" type="line"/>
      <point x="84.74063789273247" y="968.5279276420183" type="line"/>
      <point x="241.85179308156142" y="968.5279276420183" type="line"/>
      <point x="151.44604887337354" y="363.94636623294195" type="line" smooth="yes"/>
      <point x="137.8388606791495" y="274.2521421770867"/>
      <point x="127.87448429070137" y="196.3940019041574"/>
      <point x="127.87448429070136" y="149.23072040622023" type="curve" smooth="yes"/>
      <point x="127.87448429070137" y="26.220961599492227"/>
      <point x="199.79022532529353" y="-20.21167883211679"/>
      <point x="327.62456363059346" y="-20.21167883211679" type="curve" smooth="yes"/>
      <point x="460.6447159631863" y="-20.21167883211679"/>
      <point x="597.1251983497302" y="44.920580768010154"/>
      <point x="674.4312916534433" y="142.0362583306887" type="curve"/>
      <point x="649.601475721993" y="196.89233576642334" type="line"/>
      <point x="582.4428752776896" y="139.02197715011104"/>
      <point x="500.00729927007296" y="105.13908283084734"/>
      <point x="423.4194700095208" y="105.13908283084734" type="curve" smooth="yes"/>
      <point x="366.61448746429704" y="105.13908283084734"/>
      <point x="340.6152015233259" y="130.52245318946365"/>
      <point x="340.6152015233259" y="189.65677562678516" type="curve" smooth="yes"/>
      <point x="340.6152015233259" y="225.4467629324024"/>
      <point x="347.57085052364334" y="281.4387496033006"/>
    </contour>
  </outline>
</glyph>
<glyph name="u" format="2">
  <advance width="1201.7201682005714"/>
  <unicode hex="0075"/>
  <anchor x="539.469136781974" y="0.0" name="bottom"/>
  <anchor x="1038.7624563630595" y="0.0" name="bottomright"/>
  <anchor x="971.5013487781657" y="0.0" name="ogonek"/>
  <anchor x="678.1655030149159" y="1110.0" name="top"/>
  <anchor x="1014.2115994922248" y="1103.144557283402" name="topright"/>
  <outline>
    <contour>
      <point x="367.8590130117423" y="-20.432481751824817" type="curve" smooth="yes"/>
      <point x="532.0866391621707" y="-20.432481751824817"/>
      <point x="689.4450967946684" y="88.96810536337668"/>
      <point x="785.9079657251667" y="216.76086956521738" type="curve"/>
      <point x="788.5384005077753" y="215.09663598857506" type="line"/>
      <point x="779.978102189781" y="175.51570929863536"/>
      <point x="771.9939701682006" y="116.80688670263409"/>
      <point x="773.0431609013011" y="79.4892891145668" type="curve" smooth="yes"/>
      <point x="777.2399238337036" y="29.061805775944144"/>
      <point x="809.9344652491274" y="-20.273722627737225"/>
      <point x="901.0587908600443" y="-20.273722627737225" type="curve" smooth="yes"/>
      <point x="1022.685020628372" y="-20.273722627737225"/>
      <point x="1111.3110917169151" y="55.503728974928585"/>
      <point x="1150.0023008568705" y="110.60330053951127" type="curve"/>
      <point x="1123.8805141225007" y="158.9746112345287" type="line"/>
      <point x="1075.681212313551" y="116.02181847032688"/>
      <point x="1046.430101555062" y="101.77530942557917"/>
      <point x="1016.1324182799112" y="101.77530942557917" type="curve" smooth="yes"/>
      <point x="988.7365915582354" y="101.77530942557917"/>
      <point x="976.6536020311013" y="125.77673754363693"/>
      <point x="983.3707553157727" y="174.71778800380832" type="curve" smooth="yes"/>
      <point x="1121.7698349730244" y="1105.0710885433195" type="line"/>
      <point x="911.6033798794034" y="1105.0710885433195" type="line"/>
      <point x="795.2419866708981" y="328.99032053316404" type="line"/>
      <point x="720.8373532211996" y="215.83830529990482"/>
      <point x="564.55672802285" y="111.90582354807998"/>
      <point x="454.66090130117425" y="111.90582354807998" type="curve" smooth="yes"/>
      <point x="366.2703110123771" y="111.90582354807998"/>
      <point x="323.0622818152967" y="145.39931767692795"/>
      <point x="323.0622818152967" y="262.48579815931447" type="curve" smooth="yes"/>
      <point x="323.0622818152967" y="311.4665979054268"/>
      <point x="339.14662012059665" y="458.3099016185338"/>
      <point x="361.75333227546815" y="607.3777372262773" type="curve" smooth="yes"/>
      <point x="434.9920660107902" y="1095.6278165661695" type="line"/>
      <point x="392.9297841954935" y="1117.682481751825" type="line"/>
      <point x="111.87964138368773" y="1070.5480799746113" type="line"/>
      <point x="98.41113932085052" y="1003.3845604569979" type="line"/>
      <point x="205.17653125991748" y="955.6462234211363" type="line"/>
      <point x="154.83560774357343" y="637.2953824182802" type="line" smooth="yes"/>
      <point x="132.9045541098064" y="497.65518882894315"/>
      <point x="106.12432561091717" y="313.55347508727385"/>
      <point x="106.12432561091717" y="234.4156616947001" type="curve" smooth="yes"/>
      <point x="106.12432561091717" y="52.1795461758172"/>
      <point x="218.91145668041892" y="-20.432481751824817"/>
    </contour>
  </outline>
</glyph>
<glyph name="v" format="2">
  <advance width="1062.4799270072992"/>
  <unicode hex="0076"/>
  <anchor x="578.0400666455093" y="1109.7700729927008" name="top"/>
  <outline>
    <contour>
      <point x="145.06513805141222" y="930.2059663598857" type="curve" smooth="yes"/>
      <point x="240.61718502062837" y="402.0864804823865" type="line"/>
      <point x="318.20842589654075" y="-20.0" type="line"/>
      <point x="469.387972072358" y="-7.484528721040939" type="line"/>
      <point x="661.3264836559823" y="221.59203427483342" type="line" smooth="yes"/>
      <point x="898.6108378292606" y="502.2734846080609"/>
      <point x="1045.809901618534" y="743.9385909235162"/>
      <point x="1045.809901618534" y="929.4164550936209" type="curve" smooth="yes"/>
      <point x="1045.809901618534" y="1035.0739447794351"/>
      <point x="1009.647810218978" y="1118.5665661694702"/>
      <point x="914.3135512535703" y="1118.5665661694702" type="curve" smooth="yes"/>
      <point x="852.5915582354808" y="1118.5665661694702"/>
      <point x="810.6517772135829" y="1079.2392891145669"/>
      <point x="810.6517772135829" y="1010.0320533164074" type="curve" smooth="yes"/>
      <point x="810.6517772135829" y="948.2057283402096"/>
      <point x="850.4730244366868" y="906.1010790225325"/>
      <point x="850.4730244366868" y="809.4275626785147" type="curve" smooth="yes"/>
      <point x="850.4730244366868" y="653.5661694700095"/>
      <point x="769.8014915899714" y="503.87345287210405"/>
      <point x="608.6086163122818" y="300.1698667089814" type="curve" smooth="yes"/>
      <point x="424.3259282767376" y="67.24428752776896" type="line"/>
      <point x="495.0772770549032" y="81.6795461758172" type="line"/>
      <point x="441.8446524912726" y="449.4037607108854" type="line"/>
      <point x="367.7102507140591" y="961.9654871469374" type="line" smooth="yes"/>
      <point x="352.36321802602345" y="1065.6918438590924"/>
      <point x="319.7184227229451" y="1118.3986829577912"/>
      <point x="221.36718502062837" y="1118.3986829577912" type="curve" smooth="yes"/>
      <point x="139.0599809584259" y="1118.3986829577912"/>
      <point x="55.262297683275136" y="1068.1551888289432"/>
      <point x="2.8037924468422717" y="1010.5361789907965" type="curve"/>
      <point x="27.614328784512857" y="960.5558552840367" type="line"/>
      <point x="50.05736274198667" y="978.0943351317043"/>
      <point x="76.68835290384006" y="994.0197556331325"/>
      <point x="99.28617899079657" y="994.0197556331325" type="curve" smooth="yes"/>
      <point x="126.4938908283085" y="994.0197556331325"/>
      <point x="136.95929863535383" y="974.9382735639479"/>
    </contour>
  </outline>
</glyph>
<glyph name="w" format="2">
  <advance width="1672.6017137416693"/>
  <unicode hex="0077"/>
  <anchor x="928.0540304665186" y="1110.0" name="top"/>
  <outline>
    <contour>
      <point x="298.845763249762" y="-20.0" type="line"/>
      <point x="491.42097746747066" y="-6.748254522373849" type="line"/>
      <point x="670.2006505871152" y="388.88725801332913" type="line"/>
      <point x="839.3706759758808" y="744.2026340844176" type="line"/>
      <point x="890.8523484608062" y="878.9723103776579" type="line"/>
      <point x="895.233655982228" y="745.5721993018088" type="line"/>
      <point x="936.6131386861314" y="364.6578863852745" type="line"/>
      <point x="980.3315614090765" y="-18.105839416058394" type="line"/>
      <point x="1134.7584100285626" y="-7.903284671532846" type="line"/>
      <point x="1328.0207870517297" y="255.9995239606474" type="line" smooth="yes"/>
      <point x="1490.8433830529991" y="477.93803554427166"/>
      <point x="1652.7316724849256" y="740.6295620437955"/>
      <point x="1652.7316724849256" y="928.837591240876" type="curve" smooth="yes"/>
      <point x="1652.7316724849256" y="1039.8418755950493"/>
      <point x="1615.5397492859408" y="1118.8288638527451"/>
      <point x="1522.809980958426" y="1118.8288638527451" type="curve" smooth="yes"/>
      <point x="1462.6887496033005" y="1118.8288638527451"/>
      <point x="1421.2901459854013" y="1078.2469850841003"/>
      <point x="1421.2901459854013" y="1011.9005077753095" type="curve" smooth="yes"/>
      <point x="1421.2901459854013" y="949.8241034592193"/>
      <point x="1460.9617581720088" y="897.5080926689939"/>
      <point x="1460.9617581720088" y="815.2473817835609" type="curve" smooth="yes"/>
      <point x="1460.9617581720088" y="654.5455410980641"/>
      <point x="1376.2973659155825" y="483.25238019676294"/>
      <point x="1248.8304506505872" y="299.5380038083149" type="curve" smooth="yes"/>
      <point x="1082.5483179942873" y="60.108695652173914" type="line"/>
      <point x="1150.2749127261184" y="71.0835449063789" type="line"/>
      <point x="1111.6578070453827" y="416.4036020311013" type="line"/>
      <point x="1037.319739765154" y="1106.231910504602" type="line"/>
      <point x="860.139479530308" y="1106.231910504602" type="line"/>
      <point x="570.4809584258965" y="423.15471278959063" type="line"/>
      <point x="423.7471437638845" y="61.38598857505554" type="line"/>
      <point x="463.5628371945414" y="56.98087908600444" type="line"/>
      <point x="419.2692795937798" y="442.26102824500157" type="line"/>
      <point x="369.2984766740717" y="959.991827991114" type="line" smooth="yes"/>
      <point x="358.0126943827356" y="1071.8291812123136"/>
      <point x="324.23167248492547" y="1118.3986829577912"/>
      <point x="226.3178356077436" y="1118.3986829577912" type="curve" smooth="yes"/>
      <point x="127.96017137416695" y="1118.3986829577912"/>
      <point x="44.01293240241193" y="1047.6400349095525"/>
      <point x="13.864170104728657" y="1011.6758172008883" type="curve"/>
      <point x="37.166931132973666" y="958.2765788638527" type="line"/>
      <point x="64.11559822278639" y="978.2868930498255"/>
      <point x="81.31045699777849" y="991.1177403998731"/>
      <point x="109.19319263725801" y="991.1177403998731" type="curve" smooth="yes"/>
      <point x="131.24341478895587" y="991.1177403998731"/>
      <point x="145.6127419866709" y="973.3617899079657"/>
      <point x="152.9074103459219" y="923.3621866074262" type="curve" smooth="yes"/>
      <point x="231.44128847984766" y="384.8543319581085" type="line"/>
    </contour>
  </outline>
</glyph>
<glyph name="x" format="2">
  <advance width="1108.8924151063154"/>
  <unicode hex="0078"/>
  <anchor x="952.7882418279912" y="0.0" name="bottomright"/>
  <anchor x="548.1597905426848" y="548.5373690891779" name="center"/>
  <anchor x="645.6574103459218" y="1226.0" name="top"/>
  <outline>
    <contour>
      <point x="822.3714693748016" y="-19.468978102189784" type="curve" smooth="yes"/>
      <point x="910.9999206601079" y="-19.468978102189784"/>
      <point x="1010.4305775944146" y="33.356156775626786"/>
      <point x="1064.0124563630593" y="111.18406854966676" type="curve"/>
      <point x="1036.1191685179308" y="157.68486194858772" type="line"/>
      <point x="998.0457791177405" y="121.01237702316725"/>
      <point x="969.0196762932403" y="105.5951285306252"/>
      <point x="939.0640272929229" y="105.5951285306252" type="curve" smooth="yes"/>
      <point x="908.7652332592828" y="105.5951285306252"/>
      <point x="897.5440336401143" y="122.87694382735641"/>
      <point x="865.0492700729926" y="182.26943827356394" type="curve" smooth="yes"/>
      <point x="614.0838622659475" y="635.5735480799746" type="line"/>
      <point x="588.1639955569663" y="487.5039669946048" type="line"/>
      <point x="1121.4884163757538" y="1092.3722627737227" type="line"/>
      <point x="893.9125674389084" y="1092.3722627737227" type="line"/>
      <point x="545.1052046969216" y="600.7738813075213" type="line"/>
      <point x="618.6221040939386" y="599.8735322119961" type="line"/>
      <point x="470.0629165344335" y="985.6098857505556" type="line" smooth="yes"/>
      <point x="435.3902729292288" y="1080.0027768962234"/>
      <point x="401.6374960330054" y="1115.1641542367502"/>
      <point x="305.9343065693431" y="1115.1641542367502" type="curve" smooth="yes"/>
      <point x="204.55014281180576" y="1115.1641542367502"/>
      <point x="114.21469374801649" y="1055.4398603617897"/>
      <point x="64.56164709615994" y="994.364566804189" type="curve"/>
      <point x="93.8517137416693" y="948.0549032053316" type="line"/>
      <point x="115.82473817835607" y="969.1941447159633"/>
      <point x="149.98563947953028" y="993.5320533164074"/>
      <point x="184.82616629641385" y="993.5320533164074" type="curve" smooth="yes"/>
      <point x="219.56712154871468" y="993.5320533164074"/>
      <point x="232.99769914312915" y="968.8856712154872"/>
      <point x="252.37956204379563" y="932.61686766106" type="curve" smooth="yes"/>
      <point x="498.62242145350694" y="480.9173278324341" type="line"/>
      <point x="524.2461916851794" y="625.9096318629006" type="line"/>
      <point x="-24.370913995556965" y="-0.10583941605839416" type="line"/>
      <point x="206.47707077118375" y="0.0" type="line"/>
      <point x="564.086004443034" y="511.38646461440817" type="line"/>
      <point x="493.3126785147573" y="516.1820057124722" type="line"/>
      <point x="656.3786099650905" y="116.66764519200255" type="line" smooth="yes"/>
      <point x="695.2270707711838" y="18.15701364646144"/>
      <point x="732.725483973342" y="-19.468978102189784"/>
    </contour>
  </outline>
</glyph>
<glyph name="y" format="2">
  <advance width="1103.9215328467153"/>
  <unicode hex="0079"/>
  <anchor x="874.0864804823865" y="0.0" name="bottom"/>
  <anchor x="622.5038083148206" y="1110.0" name="top"/>
  <outline>
    <contour>
      <point x="165.6551888289432" y="926.3344176451919" type="curve" smooth="yes"/>
      <point x="372.1443986036179" y="-69.56037765788638" type="line"/>
      <point x="481.7035068232308" y="-69.56037765788638" type="line"/>
      <point x="360.79784195493494" y="-271.51126626467783"/>
      <point x="236.95239606474135" y="-360.9257378609965"/>
      <point x="148.91359885750558" y="-360.9257378609965" type="curve" smooth="yes"/>
      <point x="85.83195810853697" y="-360.9257378609965"/>
      <point x="29.359171691526498" y="-329.2843541732783"/>
      <point x="4.791336083782928" y="-308.86774039987307" type="curve"/>
      <point x="-50.01943827356394" y="-458.02808632180256" type="line"/>
      <point x="-5.426689939701683" y="-479.43097429387495"/>
      <point x="58.22929228816249" y="-497.4619168517931"/>
      <point x="116.86321802602349" y="-497.4619168517931" type="curve" smooth="yes"/>
      <point x="254.46612186607427" y="-497.4619168517931"/>
      <point x="353.4093938432244" y="-408.69025706125046"/>
      <point x="451.14733417962555" y="-274.63495715645826" type="curve" smooth="yes"/>
      <point x="544.0086480482387" y="-151.34322437321487"/>
      <point x="726.5996509044746" y="144.702078705173"/>
      <point x="869.2956997778483" y="387.81450333227554" type="curve" smooth="yes"/>
      <point x="1016.0262615042844" y="637.5338781339257"/>
      <point x="1071.4918279911142" y="797.6857346874007"/>
      <point x="1070.1803395747384" y="937.8861472548398" type="curve" smooth="yes"/>
      <point x="1069.1311488416377" y="1054.076245636306"/>
      <point x="1025.813233894002" y="1118.5665661694702"/>
      <point x="938.0109489051093" y="1118.5665661694702" type="curve" smooth="yes"/>
      <point x="880.9042367502382" y="1118.5665661694702"/>
      <point x="833.8763091082195" y="1082.0919549349414"/>
      <point x="834.663202158045" y="1005.099968264043" type="curve" smooth="yes"/>
      <point x="835.4500952078705" y="949.4735004760394"/>
      <point x="873.5504601713741" y="902.4031259917485"/>
      <point x="874.9171691526499" y="811.7789590606159" type="curve" smooth="yes"/>
      <point x="876.4932561091716" y="681.0985401459853"/>
      <point x="832.3659949222468" y="527.6831164709616"/>
      <point x="675.3723421136148" y="258.6620913995557" type="curve" smooth="yes"/>
      <point x="532.5226912091399" y="15.333227546810537" type="line"/>
      <point x="480.71675658521104" y="317.30815614090767" type="line"/>
      <point x="456.80395112662643" y="506.3525864804824"/>
      <point x="416.74888924151065" y="759.5921929546175"/>
      <point x="382.2945096794668" y="970.1895430022214" type="curve" smooth="yes"/>
      <point x="365.156616947001" y="1067.3648048238654"/>
      <point x="329.0338781339258" y="1118.3986829577912"/>
      <point x="229.98849571564583" y="1118.3986829577912" type="curve" smooth="yes"/>
      <point x="121.62654712789592" y="1118.3986829577912"/>
      <point x="35.74397016820057" y="1034.7104093938433"/>
      <point x="11.341558235480798" y="1001.7051729609649" type="curve"/>
      <point x="38.09401777213583" y="953.041494763567" type="line"/>
      <point x="64.47929228816248" y="976.2507933989209"/>
      <point x="92.02546810536337" y="993.9139162170741"/>
      <point x="116.53197397651539" y="993.9139162170741" type="curve" smooth="yes"/>
      <point x="143.27237384957158" y="993.9139162170741"/>
      <point x="155.53110123770236" y="974.5065852110441"/>
    </contour>
  </outline>
</glyph>
<glyph name="z" format="2">
  <advance width="1056.2562678514755"/>
  <unicode hex="007A"/>
  <anchor x="466.5334020945731" y="0.0" name="bottom"/>
  <anchor x="619.9347826086956" y="1110.0" name="top"/>
  <outline>
    <contour>
      <point x="819.6447159631864" y="929.9452554744526" type="curve"/>
      <point x="689.5038083148208" y="803.1159155823549" type="line"/>
      <point x="-12.198429070136463" y="26.43914630276103" type="line"/>
      <point x="36.745239606474144" y="-22.855839416058394" type="line"/>
      <point x="64.11123452872104" y="0.5693430656934308"/>
      <point x="97.17240558552841" y="9.460806093303713"/>
      <point x="136.67073944779432" y="9.460806093303713" type="curve" smooth="yes"/>
      <point x="270.6653443351317" y="9.460806093303713"/>
      <point x="589.0659314503332" y="-19.525468105363377"/>
      <point x="759.2910187242146" y="-19.525468105363377" type="curve" smooth="yes"/>
      <point x="816.5126943827356" y="-19.525468105363377"/>
      <point x="850.3342589654077" y="-10.165026975563315"/>
      <point x="867.1157569025704" y="1.3029990479212947" type="curve" smooth="yes"/>
      <point x="931.3444144715961" y="44.714931767692796"/>
      <point x="945.1933513170422" y="230.18930498254525"/>
      <point x="946.1927959377975" y="340.7130276102824" type="curve"/>
      <point x="880.9440653760711" y="340.7130276102824" type="line"/>
      <point x="865.4676293240242" y="228.96374166931133"/>
      <point x="813.4650904474769" y="160.65082513487783"/>
      <point x="709.4419231989846" y="160.0851317042209" type="curve" smooth="yes"/>
      <point x="633.5518882894319" y="159.40447476991434"/>
      <point x="366.43343383053" y="162.7522215169787"/>
      <point x="245.29173278324342" y="163.32204062202476" type="curve"/>
      <point x="381.8310853697239" y="296.2960964773087" type="line"/>
      <point x="1077.846556648683" y="1068.9258172008888" type="line"/>
      <point x="1034.3180736274198" y="1114.7398444938115" type="line"/>
      <point x="1005.611313868613" y="1091.0938590923515"/>
      <point x="976.0480006347192" y="1085.7153284671533"/>
      <point x="938.4908759124087" y="1085.7153284671533" type="curve" smooth="yes"/>
      <point x="795.9898444938115" y="1085.7153284671533"/>
      <point x="499.93787686448746" y="1113.609330371311"/>
      <point x="353.3479847667407" y="1113.609330371311" type="curve" smooth="yes"/>
      <point x="273.8447318311646" y="1113.609330371311"/>
      <point x="246.96540780704538" y="1103.5501428118057"/>
      <point x="231.7637258013329" y="1093.0938590923517" type="curve" smooth="yes"/>
      <point x="169.42026340844177" y="1052.0319739765155"/>
      <point x="153.5311805775944" y="840.0806886702635"/>
      <point x="160.26769279593776" y="752.1414630276104" type="curve"/>
      <point x="225.98809901618532" y="752.1414630276104" type="line"/>
      <point x="233.2253252935576" y="843.6823230720406"/>
      <point x="279.20223738495713" y="932.3992383370359"/>
      <point x="362.5505395112663" y="932.8590923516342" type="curve" smooth="yes"/>
      <point x="443.735401459854" y="933.0890193589336"/>
      <point x="726.2703903522691" y="930.9699301808951"/>
    </contour>
  </outline>
</glyph>
<glyph name="braceleft" format="2">
  <advance width="965.6798635353855"/>
  <unicode hex="007B"/>
  <outline>
    <contour>
      <point x="492.642891145668" y="-305.7751507457949" type="curve" smooth="yes"/>
      <point x="575.0007140590288" y="-305.7751507457949"/>
      <point x="647.6862107267533" y="-288.7817359568391"/>
      <point x="727.8605998095845" y="-268.6229768327515" type="curve"/>
      <point x="740.4800063471913" y="-182.5919549349413" type="line"/>
      <point x="717.6333703586163" y="-185.64630276102824"/>
      <point x="629.5449857188194" y="-188.7006505871152"/>
      <point x="603.802761028245" y="-188.7006505871152" type="curve" smooth="yes"/>
      <point x="487.42986353538555" y="-188.7006505871152"/>
      <point x="380.0501428118058" y="-156.74246271025072"/>
      <point x="399.6701840685497" y="-16.701602665820374" type="curve" smooth="yes"/>
      <point x="417.400190415741" y="107.30926689939702"/>
      <point x="520.356394795303" y="324.5806886702635"/>
      <point x="540.1470168200572" y="465.11329736591557" type="curve" smooth="yes"/>
      <point x="559.1916851793083" y="599.8274357346874"/>
      <point x="435.9335131704221" y="668.924547762615"/>
      <point x="293.9044747699143" y="688.5303078387814" type="curve"/>
      <point x="442.24873056172646" y="709.8208505236433"/>
      <point x="583.219930180895" y="768.5087273881308"/>
      <point x="602.3795620437957" y="903.6827197715011" type="curve" smooth="yes"/>
      <point x="622.1701840685498" y="1044.845763249762"/>
      <point x="578.038797207236" y="1276.279276420184"/>
      <point x="595.4612821326563" y="1399.9749285940973" type="curve" smooth="yes"/>
      <point x="614.7738019676294" y="1536.6462234211363"/>
      <point x="732.9775468105363" y="1570.7193748016502"/>
      <point x="847.7262773722628" y="1570.7193748016502" type="curve" smooth="yes"/>
      <point x="869.8881307521422" y="1570.7193748016502"/>
      <point x="961.2425420501428" y="1569.29688987623"/>
      <point x="983.0891780387178" y="1566.242542050143" type="curve"/>
      <point x="994.8235480799746" y="1650.7503966994605" type="line"/>
      <point x="919.1911298000634" y="1671.0679149476357"/>
      <point x="854.7419073310061" y="1686.5330053951127"/>
      <point x="771.5017454776262" y="1686.5330053951127" type="curve" smooth="yes"/>
      <point x="534.5341954934943" y="1686.5330053951127"/>
      <point x="416.8825769596953" y="1594.3649635036497"/>
      <point x="393.40860044430343" y="1430.4736591558237" type="curve" smooth="yes"/>
      <point x="367.24984132021586" y="1245.4193113297367"/>
      <point x="451.291415423675" y="1058.965169787369"/>
      <point x="429.11171056807365" y="904.5207077118375" type="curve" smooth="yes"/>
      <point x="415.23849571564585" y="808.5022215169787"/>
      <point x="364.3796413836877" y="759.643605204697"/>
      <point x="129.8870993335449" y="761.0131704220883" type="curve"/>
      <point x="110.9998413202158" y="627.8175182481752" type="line"/>
      <point x="346.1771659790543" y="629.1870834655665"/>
      <point x="380.3959854014599" y="561.4421612186608"/>
      <point x="366.9776261504285" y="464.59568390986993" type="curve" smooth="yes"/>
      <point x="345.25277689622345" y="310.20414154236755"/>
      <point x="215.09980958425896" y="135.96271025071405"/>
      <point x="189.08838463979689" y="-50.14598540145985" type="curve" smooth="yes"/>
      <point x="166.44652491272612" y="-212.3525071405903"/>
      <point x="257.198111710568" y="-305.7751507457949"/>
    </contour>
  </outline>
</glyph>
<glyph name="bar" format="2">
  <advance width="826.283322754681"/>
  <unicode hex="007C"/>
  <outline>
    <contour>
      <point x="364.4665185655347" y="1738.0" type="line"/>
      <point x="364.4665185655347" y="-182.0" type="line"/>
      <point x="511.71762932402413" y="-182.0" type="line"/>
      <point x="511.71762932402413" y="1738.0" type="line"/>
    </contour>
  </outline>
</glyph>
<glyph name="asciitilde" format="2">
  <advance width="1232.7591240875913"/>
  <unicode hex="007E"/>
  <outline>
    <contour>
      <point x="169.37035861631233" y="616.6650269755633" type="curve"/>
      <point x="226.181847032688" y="540.7253252935575" type="line"/>
      <point x="282.0036496350364" y="624.5980641066329"/>
      <point x="355.1439225642653" y="660.3746429704855"/>
      <point x="432.9996826404316" y="660.3746429704855" type="curve" smooth="yes"/>
      <point x="582.4211361472549" y="660.3746429704855"/>
      <point x="620.6129800063472" y="485.74071723262455"/>
      <point x="803.1610599809583" y="485.74071723262455" type="curve" smooth="yes"/>
      <point x="941.2026340844177" y="485.74071723262455"/>
      <point x="1059.0506188511583" y="576.6918438590924"/>
      <point x="1091.4389082830849" y="683.9185972707078" type="curve"/>
      <point x="1029.6856553475086" y="760.7259600126944" type="line"/>
      <point x="982.6225007933989" y="683.4084417645191"/>
      <point x="917.0979054268488" y="638.3519517613456"/>
      <point x="831.5280863218028" y="638.3519517613456" type="curve" smooth="yes"/>
      <point x="682.1236115518883" y="638.3519517613456"/>
      <point x="641.2053316407489" y="809.2232624563632"/>
      <point x="462.5555379244685" y="809.2232624563632" type="curve" smooth="yes"/>
      <point x="321.3573468740083" y="809.2232624563632"/>
      <point x="201.45112662646778" y="711.0363376705807"/>
    </contour>
  </outline>
</glyph>
<glyph name="cent" format="2">
  <advance width="1133.4623928911456"/>
  <unicode hex="00A2"/>
  <outline>
    <contour>
      <point x="403.5910821961282" y="-240.93517930815614" type="line"/>
      <point x="521.908283084735" y="-240.93517930815614" type="line"/>
      <point x="570.9529514439861" y="-18.264598540145986" type="line"/>
      <point x="762.1940653760711" y="-3.3777372262773717"/>
      <point x="884.9153443351317" y="96.15622024754046"/>
      <point x="939.6785147572199" y="162.39931767692795" type="curve"/>
      <point x="901.1344017772135" y="233.29466835925103" type="line"/>
      <point x="815.0992542050144" y="162.98056172643606"/>
      <point x="727.3380672802285" y="107.87043795620438"/>
      <point x="612.5902887972072" y="107.81751824817518" type="curve" smooth="yes"/>
      <point x="454.4888130752142" y="107.6587591240876"/>
      <point x="378.3489368454459" y="212.7887972072358"/>
      <point x="377.56204379562047" y="441.70096794668353" type="curve" smooth="yes"/>
      <point x="376.25055537924476" y="775.8717867343701"/>
      <point x="534.1845445890193" y="1002.9363694065378"/>
      <point x="725.1603459219297" y="1002.9363694065378" type="curve" smooth="yes"/>
      <point x="817.4728657569026" y="1002.9363694065378"/>
      <point x="875.5053951126627" y="948.7639638210094"/>
      <point x="915.9098698825769" y="851.9303395747381" type="curve"/>
      <point x="984.0107108854331" y="850.7907013646461" type="line"/>
      <point x="1040.208505236433" y="1062.201523325928" type="line"/>
      <point x="980.0034116153602" y="1087.9871469374802"/>
      <point x="863.8051412250079" y="1114.945652173913"/>
      <point x="785.42208822596" y="1117.1797048556016" type="curve"/>
      <point x="841.326245636306" y="1355.207870517296" type="line"/>
      <point x="721.9223262456362" y="1355.207870517296" type="line"/>
      <point x="665.0104728657569" y="1107.941685179308" type="line"/>
      <point x="321.9106632814979" y="1044.9864328784513"/>
      <point x="143.9996826404316" y="704.2987146937481"/>
      <point x="146.36036178990796" y="414.75142811805785" type="curve" smooth="yes"/>
      <point x="148.45874325610916" y="175.30522056490005"/>
      <point x="265.0869565217391" y="19.44589019358934"/>
      <point x="455.2999841320216" y="-11.834020945731517" type="curve"/>
    </contour>
  </outline>
</glyph>
<glyph name="sterling" format="2">
  <advance width="1562.0601396382103"/>
  <unicode hex="00A3"/>
  <outline>
    <contour>
      <point x="934.3417169152651" y="-22.41161536020311" type="curve" smooth="yes"/>
      <point x="1247.5668835290387" y="-22.41161536020311"/>
      <point x="1440.0824341478897" y="123.67407172326247"/>
      <point x="1440.0824341478897" y="333.32140590288793" type="curve" smooth="yes"/>
      <point x="1440.0824341478897" y="451.50721993018095"/>
      <point x="1378.3863059346238" y="539.2562678514756"/>
      <point x="1288.722707077118" y="600.1365439543002" type="curve"/>
      <point x="1129.811567756268" y="495.19033640114253" type="line"/>
      <point x="1178.7815772770548" y="459.3302126309109"/>
      <point x="1225.340923516344" y="394.03498889241513"/>
      <point x="1225.340923516344" y="309.7258806728023" type="curve" smooth="yes"/>
      <point x="1225.340923516344" y="171.08219612821327"/>
      <point x="1112.4541415423678" y="86.19184385909237"/>
      <point x="904.9287527768963" y="86.19184385909237" type="curve" smooth="yes"/>
      <point x="727.5967946683592" y="86.19184385909237"/>
      <point x="568.1667724531894" y="147.32291336083782"/>
      <point x="436.3824182799112" y="172.0069819105046" type="curve"/>
      <point x="521.9737384957157" y="261.5124563630593"/>
      <point x="587.0521263091083" y="380.4791336083783"/>
      <point x="623.5650587115204" y="578.4549349412885" type="curve" smooth="yes"/>
      <point x="632.1307521421774" y="631.9654078070453"/>
      <point x="641.1490003173595" y="682.6282132656299"/>
      <point x="649.2913360837829" y="732.7495239606475" type="curve"/>
      <point x="995.6742304030465" y="732.7495239606475" type="line"/>
      <point x="1007.1253570295145" y="850.735401459854" type="line"/>
      <point x="669.5598222786417" y="850.735401459854" type="line"/>
      <point x="678.8244208187876" y="905.2349254205014"/>
      <point x="688.8836083782926" y="969.8290225325294"/>
      <point x="698.0423675023802" y="1025.5825134877816" type="curve" smooth="yes"/>
      <point x="747.9185179308156" y="1319.6102824500158"/>
      <point x="882.2037448429072" y="1397.0960806093303"/>
      <point x="1004.9605680736274" y="1397.0960806093303" type="curve" smooth="yes"/>
      <point x="1135.9350206283718" y="1397.0960806093303"/>
      <point x="1234.6945414154236" y="1310.1935893367186"/>
      <point x="1258.9005077753095" y="1270.3486194858772" type="curve"/>
      <point x="1372.0605363376708" y="1427.9646937480163" type="line"/>
      <point x="1308.1735163440178" y="1482.7461916851794"/>
      <point x="1206.1473341796254" y="1510.3894795303079"/>
      <point x="1089.5286417010473" y="1510.3894795303079" type="curve" smooth="yes"/>
      <point x="756.723024436687" y="1510.3894795303079"/>
      <point x="534.7950650587115" y="1292.0655347508725"/>
      <point x="475.72151697873693" y="989.7886385274516" type="curve" smooth="yes"/>
      <point x="464.9005871152016" y="926.3672643605205"/>
      <point x="459.5818787686449" y="895.0775150745794"/>
      <point x="452.1593938432244" y="850.735401459854" type="curve"/>
      <point x="241.17383370358618" y="850.735401459854" type="line"/>
      <point x="228.05847350047603" y="732.7495239606475" type="line"/>
      <point x="433.60806093303717" y="732.7495239606475" type="line"/>
      <point x="422.2291336083783" y="669.0689463662329"/>
      <point x="418.5995715645827" y="604.9702475404633"/>
      <point x="405.54046334496985" y="521.1673278324341" type="curve" smooth="yes"/>
      <point x="377.2057283402095" y="355.28895588701994"/>
      <point x="347.06609013011746" y="245.47167565852112"/>
      <point x="309.86837511900984" y="198.51063154554112" type="curve"/>
      <point x="139.65019041574104" y="198.0111075848937"/>
      <point x="40.648286258330685" y="137.14479530307835"/>
      <point x="40.648286258330685" y="66.94319263725804" type="curve" smooth="yes"/>
      <point x="40.648286258330685" y="24.994604887337356"/>
      <point x="75.21921612186608" y="-5.553475087273882"/>
      <point x="145.36829577911774" y="-5.553475087273882" type="curve" smooth="yes"/>
      <point x="230.35298317994284" y="-5.553475087273882"/>
      <point x="306.87408759124094" y="39.38178356077435"/>
      <point x="362.1715328467153" y="100.92478578229134" type="curve"/>
      <point x="510.69874642970484" y="61.76626467788003"/>
      <point x="699.4592192954617" y="-22.41161536020311"/>
    </contour>
  </outline>
</glyph>
